<svg id="Calque_1" data-name="Calque 1" xmlns="http://www.w3.org/2000/svg" viewBox="0 0 725 595.28"><defs><style>.cls-1{fill:#2598b1;}.cls-2{fill:#fff;}.cls-3{fill:#1f4998;}</style></defs><rect class="cls-1" x="251.95" y="226.33" width="221.1" height="221.1" transform="translate(344.39 -157.66) rotate(45)"/><rect class="cls-2" x="297.4" y="271.78" width="130.21" height="130.21" transform="translate(344.39 -157.66) rotate(45)"/><rect class="cls-3" x="312.97" y="287.35" width="99.06" height="99.06" transform="translate(344.39 -157.66) rotate(45)"/><rect class="cls-2" x="117.06" y="336.88" width="490.87" height="92.07"/><rect class="cls-3" x="97.42" y="342.89" width="173.04" height="4.32" rx="2.16"/><rect class="cls-3" x="454.54" y="342.89" width="173.04" height="4.32" rx="2.16"/><rect class="cls-3" x="34.67" y="424.63" width="235.8" height="4.32" rx="2.16"/><rect class="cls-3" x="454.54" y="424.63" width="235.8" height="4.32" rx="2.16"/><path class="cls-3" d="M116,355.23a2.07,2.07,0,1,0,0-4.14,2.07,2.07,0,1,0,0,4.14Z"/><path class="cls-3" d="M111.09,355.23a2.07,2.07,0,1,0,0-4.14,2.07,2.07,0,0,0,0,4.14Z"/><path class="cls-3" d="M155.82,375.58a2.11,2.11,0,0,0-2.11,2.08,2.09,2.09,0,1,0,2.11-2.08Z"/><path class="cls-3" d="M160.51,375.58a2.1,2.1,0,0,0-2.07,2.08,2.07,2.07,0,0,0,2.07,2.1,2.13,2.13,0,0,0,2.14-2.1A2.16,2.16,0,0,0,160.51,375.58Z"/><path class="cls-3" d="M193.86,351.45h-1.34V367c0,1.64-.62,2.58-2.33,2.73H165.05c-2.72,0-3.67-1.13-3.81-3.67v-2.22a2.51,2.51,0,0,0-2.84-2.83h-1.31v6c0,1.67-.65,2.58-2.36,2.73H120.87l0-3.13c0-4.21-2-8.68-7.15-8.68-4.77,0-7.31,3.6-7.31,8,0,6.51,5.89,7.38,10.32,7.49,2.22-.11,8.62,0,8.4,0h29.9a6.6,6.6,0,0,0,4.54-1.71,7.54,7.54,0,0,0,4.9,1.7h26c4.18-.14,6.22-2.76,6.22-6.18V354.29A2.54,2.54,0,0,0,193.86,351.45Zm-76.59,18.32c-2.4-.07-7.23.51-7.23-4.29,0-2.62,1.12-4.47,3.38-4.47,3.49,0,3.89,3.09,3.89,6.14C117.31,368.06,117.27,369,117.27,369.77Z"/><path class="cls-3" d="M270.21,351.45h-1.35V367c0,1.64-.62,2.58-2.32,2.73H245.39c-3,0-4.21-1.06-4.21-3.82,0-4.39-2.58-8-7.31-8-4.36,0-7,3.53-7,7.38-.08,3.24-1,4.4-4.29,4.4H206.51a2.21,2.21,0,0,1-2.29-2.07V353.56a2.28,2.28,0,0,0-2.33-2.11H200v15.77c0,3.42,2,6,6.22,6.18h17.62v0a7.28,7.28,0,0,0,5.09-2.08,7.22,7.22,0,0,0,5.27,2.1,6.74,6.74,0,0,0,4.94-2,7.43,7.43,0,0,0,5.67,2h22.05c4.18-.14,6.22-2.76,6.22-6.18V354.29A2.53,2.53,0,0,0,270.21,351.45Zm-36.34,18.9c-2.29,0-3.42-1.82-3.42-4.4,0-3.09,1.17-4.9,3.75-4.9,2.22,0,3.34,1.81,3.34,4.43C237.54,368.53,236.45,370.35,233.87,370.35Z"/><path class="cls-3" d="M278.93,351.49h-1.86V370.6a2.51,2.51,0,0,0,2.51,2.8h1.67V353.56A2.32,2.32,0,0,0,278.93,351.49Z"/><path class="cls-3" d="M303.71,358.39v0a6.84,6.84,0,0,0-2.65-.51c-4.76,0-7.31,3.6-7.31,8,0,6.5,5.89,7.41,10.32,7.48-.91,1.68-3.12,3.16-8,3.27V378c0,1,1,1.74,2.55,1.74,7.45,0,9.52-4.83,9.55-7.45l.08-5.7a14.83,14.83,0,0,0-.33-2.87A7,7,0,0,0,303.71,358.39Zm-1.35,11.41c-2.36,0-5-.43-5-4.36,0-2.58,1.13-4.47,3.38-4.47,4.25,0,3.71,5.24,3.85,8.8C304,369.77,303.16,369.8,302.36,369.8Z"/><path class="cls-3" d="M327.15,359.19a6.72,6.72,0,0,0-1.57-.22,3.63,3.63,0,0,0-3.3,2l-.73,1.17a10.59,10.59,0,0,1,1.78-.15,6.57,6.57,0,0,1,3.64,1.09,7.94,7.94,0,0,1,3.23,6.69h-10v1.45a2,2,0,0,0,2,2.18H334v-3.63a12.83,12.83,0,0,0-3-8.21A7.81,7.81,0,0,0,327.15,359.19Z"/><path class="cls-3" d="M470.42,358.47a2.09,2.09,0,1,0-2.07-2.08A2.08,2.08,0,0,0,470.42,358.47Z"/><path class="cls-3" d="M465.69,358.47a2.09,2.09,0,1,0-2.11-2.08A2.07,2.07,0,0,0,465.69,358.47Z"/><path class="cls-3" d="M515.11,355.19a2.07,2.07,0,0,0,0-4.14,2.07,2.07,0,1,0,0,4.14Z"/><path class="cls-3" d="M510.2,355.19a2.07,2.07,0,1,0,0-4.14,2.07,2.07,0,1,0,0,4.14Z"/><path class="cls-3" d="M512.6,357.92c-4.76,0-7.3,3.6-7.3,8a7.17,7.17,0,0,0,.94,3.85H474c-2.73-.07-3.68-1.13-3.82-3.67v-2.22a2.51,2.51,0,0,0-2.84-2.83h-1.3v6c0,1.67-.66,2.58-2.37,2.73h-37.2v-1.06c0-4.54-2.18-10.72-8.14-10.72-3.85,0-7.05,3-9.27,6.73v-.62c0-2.69-.8-2.69-2.8-2.69h-.83v8.36H343.39a2.21,2.21,0,0,1-2.29-2.07V353.56a2.28,2.28,0,0,0-2.33-2.11h-1.89v15.77c0,3.42,2,6,6.22,6.18H464a6.6,6.6,0,0,0,4.54-1.71,7.59,7.59,0,0,0,4.91,1.7h46.29v-6.79a10.41,10.41,0,0,0-1.41-5.6A6.47,6.47,0,0,0,512.6,357.92Zm-89.74,11.85H409.63c.65-2.69,3.6-7.56,7.85-7.71,4.76.22,5.41,3.42,5.41,6.44C422.89,368.93,422.89,369.37,422.86,369.77Zm93.23,0c-2.69-.11-7.19.62-7.19-4.33,0-2.61,1.12-4.47,3.38-4.47,3.45,0,3.85,3,3.85,6.07C516.13,368,516.09,368.93,516.09,369.77Z"/><path class="cls-3" d="M538.26,351.34H537V367c0,1.67-.62,2.61-2.32,2.76h-4V353.45a2.34,2.34,0,0,0-2.32-2.07h-1.89v18.39H522.3v1.05c0,1.68,1,2.58,3.09,2.58H535c4.15-.14,6.18-2.8,6.18-6.18v-13A2.55,2.55,0,0,0,538.26,351.34Z"/><path class="cls-3" d="M547.7,351.49h-1.85V370.6a2.51,2.51,0,0,0,2.51,2.8H550V353.56A2.32,2.32,0,0,0,547.7,351.49Z"/><path class="cls-3" d="M568.53,355.23a2,2,0,1,0,0-4,2,2,0,1,0,0,4Z"/><path class="cls-3" d="M570.92,358c-4.76,0-7.3,3.56-7.3,8,0,4,2.54,7.48,7,7.48,4.76,0,7.34-3.52,7.34-8C577.94,361.52,575.36,358,570.92,358Zm0,12.39c-2.58,0-3.7-1.82-3.7-4.91,0-2.58,1.12-4.43,3.38-4.43,2.54,0,3.7,1.85,3.7,4.91C574.3,368.53,573.21,370.35,570.92,370.35Z"/><path class="cls-3" d="M573.14,355.23a2,2,0,0,0,0-4,2,2,0,1,0,0,4Z"/><path class="cls-3" d="M582.37,361h-1.56v8.8c0,3.92.29,6.4-2.58,6.4a12.41,12.41,0,0,1-1.46-.15v1.53c0,1.41,1.2,2.21,3,2.21a5.11,5.11,0,0,0,5.27-4.94V363.88C585,361.81,584.41,361,582.37,361Z"/><path class="cls-3" d="M593.2,353.56a2.32,2.32,0,0,0-2.33-2.07H589V370.6a2.5,2.5,0,0,0,2.51,2.8h1.67Z"/><path class="cls-3" d="M598.36,358.72a2.13,2.13,0,0,0,2.07-2.11,2.07,2.07,0,0,0-2.07-2.07,2,2,0,0,0-2.07,2.07A2.1,2.1,0,0,0,598.36,358.72Z"/><path class="cls-3" d="M598.18,361h-1.57v8.8c0,3.92.29,6.4-2.58,6.4a12.12,12.12,0,0,1-1.45-.15v1.53c0,1.41,1.2,2.21,3,2.21a5.12,5.12,0,0,0,5.27-4.94V363.88C600.83,361.81,600.21,361,598.18,361Z"/><path class="cls-3" d="M618.24,363.74a7,7,0,0,0-4.18-5.35v0a6.89,6.89,0,0,0-2.66-.51c-4.76,0-7.3,3.6-7.3,8,0,6.5,5.89,7.41,10.32,7.48-.91,1.68-3.13,3.16-8,3.27V378c0,1,1,1.74,2.54,1.74,7.45,0,9.52-4.83,9.56-7.45l.07-5.7A14.84,14.84,0,0,0,618.24,363.74Zm-5.53,6.06c-2.36,0-5-.43-5-4.36,0-2.58,1.12-4.47,3.38-4.47,4.25,0,3.7,5.24,3.85,8.8C614.31,369.77,613.51,369.8,612.71,369.8Z"/><path class="cls-3" d="M98.9,414.31a2.49,2.49,0,0,1-2.7-2.77c0-2.66-.45-10.31-.8-12.35-.28.65-.66,1.52-1,2.45l-2.9,9a15.49,15.49,0,0,1-1.73,3.7H88.69c-1.39,0-2.6-1.08-3.36-3.32l-3-8.79c-.38-1.08-.87-2.32-1.18-3.05a128.43,128.43,0,0,0-.9,15.16H78.83a2.51,2.51,0,0,1-2.63-2.77,137.18,137.18,0,0,1,1.66-18.1h.9c2.9,0,4.91,1.32,5.71,3.53l2.9,8.17a25.9,25.9,0,0,1,1.18,4,17.15,17.15,0,0,1,.59-2.15l2.42-7.4c1.07-3.29,2.35-5.44,3.25-6.13h.49c2.35,0,3.8,1.46,4.15,4.33.38,3.29,1,12.35,1,16.54Z"/><path class="cls-3" d="M107,397.49a2.27,2.27,0,0,1-2.25-2.28A2.24,2.24,0,0,1,107,393a2.31,2.31,0,0,1,2.32,2.25A2.34,2.34,0,0,1,107,397.49Zm2.77,17c-3,0-4.68-1.7-4.68-4.88V398.94h1.11c1.73,0,2.77.94,2.77,2.91v7.34c0,1.59.69,2.07,2.39,2.07h.72v.83C112.08,413.79,111.43,414.45,109.77,414.45Z"/><path class="cls-3" d="M127.41,414.31a2.58,2.58,0,0,1-2.83-2.56v-6.23c0-2.63-1.18-3.81-3.19-3.81-1.66,0-2.83,1.28-2.83,3.53v9.07h-1.15a2.54,2.54,0,0,1-2.73-2.56V405c0-3.29,2.18-6.72,7.06-6.72a6.51,6.51,0,0,1,6.75,6.92v9.14Z"/><path class="cls-3" d="M135.41,397.49a2.27,2.27,0,0,1-2.25-2.28,2.24,2.24,0,0,1,2.25-2.25,2.3,2.3,0,0,1,2.32,2.25A2.33,2.33,0,0,1,135.41,397.49Zm2.77,17c-3,0-4.67-1.7-4.67-4.88V398.94h1.1c1.73,0,2.77.94,2.77,2.91v7.34c0,1.59.69,2.07,2.39,2.07h.73v.83C140.5,413.79,139.84,414.45,138.18,414.45Z"/><path class="cls-3" d="M147.69,414.65c-2.9,0-5.05-1.48-5.05-3.08v-1.76h.14a8.1,8.1,0,0,0,4.71,1.49c1.93,0,2.87-.56,2.87-1.73,0-.9-.55-1.32-3.25-1.7-3.33-.45-4.92-1.8-4.92-4.19,0-2.9,2.63-5.43,6.65-5.43,3.56,0,5,1.84,5,3.36v1.49h-.17a6.66,6.66,0,0,0-4.46-1.46c-2.39,0-3.15.73-3.15,1.73,0,.83.48,1.15,3.15,1.56,3.25.55,5,2,5,4.43C154.23,412.68,151.88,414.65,147.69,414.65Z"/><path class="cls-3" d="M161,395.07h.93v3.53h5.44v1.62c0,.8-.73,1.84-2.36,1.84h-3.08v6.16c0,2,.9,2.8,2.46,2.8a5.4,5.4,0,0,0,2.8-.55h.18v1.38c0,1.63-1.18,2.63-3.46,2.63-4,0-5.85-2.14-5.85-5.81v-9.41C158,397.18,159.46,395.07,161,395.07Z"/><path class="cls-3" d="M175.79,408.15h-2.56c.32,2,2.12,3.22,4.4,3.22a7.1,7.1,0,0,0,4.81-1.49h.14v1.24c0,2-1.35,3.53-5.68,3.53a7.73,7.73,0,0,1-7.68-7.89c0-5.22,3.18-8.51,7.65-8.51a6.1,6.1,0,0,1,6.29,6.09C183.16,407.21,181,408.15,175.79,408.15Zm.73-6.65a3.4,3.4,0,0,0-3.29,3.36v.52H175c3.71,0,4.54-.41,4.54-1.52C179.5,402.3,178.32,401.5,176.52,401.5Z"/><path class="cls-3" d="M195.62,402.4a6.28,6.28,0,0,0-2.28-.44c-1.73,0-2.7,1-2.7,3.35v9h-1.07c-1.73,0-2.84-.87-2.84-2.49v-7.24c0-3.11,1.63-6.12,5.78-6.12,2.39,0,3.25,1.38,3.25,2.56v1.38Z"/><path class="cls-3" d="M203.62,408.15h-2.56c.31,2,2.11,3.22,4.39,3.22a7.09,7.09,0,0,0,4.81-1.49h.14v1.24c0,2-1.35,3.53-5.67,3.53a7.73,7.73,0,0,1-7.68-7.89c0-5.22,3.18-8.51,7.64-8.51a6.1,6.1,0,0,1,6.3,6.09C211,407.21,208.81,408.15,203.62,408.15Zm.73-6.65a3.39,3.39,0,0,0-3.29,3.36v.52h1.73c3.7,0,4.53-.41,4.53-1.52C207.32,402.3,206.15,401.5,204.35,401.5Z"/><path class="cls-3" d="M229.4,414.65c-4.12,0-7.27-3.6-7.27-7.89,0-5.15,2.5-8.51,7.06-8.51a4.52,4.52,0,0,1,3.88,2.49v-8.4h1.21a2.4,2.4,0,0,1,2.66,2.66v12.08C236.94,411.64,234.8,414.65,229.4,414.65Zm-.17-13.11c-2,0-3.29,1.94-3.29,4.46,0,3.26,1.7,5.37,3.95,5.37s3.14-1.63,3.14-4.47C233,403,231.3,401.54,229.23,401.54Z"/><path class="cls-3" d="M247.15,408.15h-2.56c.32,2,2.12,3.22,4.4,3.22a7.12,7.12,0,0,0,4.81-1.49h.14v1.24c0,2-1.35,3.53-5.68,3.53a7.73,7.73,0,0,1-7.68-7.89c0-5.22,3.18-8.51,7.65-8.51a6.1,6.1,0,0,1,6.29,6.09C254.52,407.21,252.34,408.15,247.15,408.15Zm.73-6.65a3.4,3.4,0,0,0-3.29,3.36v.52h1.73c3.71,0,4.54-.41,4.54-1.52C250.86,402.3,249.68,401.5,247.88,401.5Z"/><path class="cls-3" d="M271.66,414.45c-3.22,0-5-1.7-5-4.88v-16.2h1.11a2.46,2.46,0,0,1,2.76,2.63v13.19c0,1.59.83,2.07,2.67,2.07h1v.83C274.29,413.79,273.39,414.45,271.66,414.45Z"/><path class="cls-3" d="M276.57,401.06h-.83v-.18a5,5,0,0,0,1.42-3.15c0-1.48-1.32-1.55-1.32-3.11a2.28,2.28,0,0,1,2.39-2.25c1.56,0,2.6,1.21,2.6,3.46C280.83,398.49,278.92,401.06,276.57,401.06Z"/><path class="cls-3" d="M299,411.89c0,1.66-.94,2.56-4.57,2.56h-2.21c-5.09,0-7.75-2.81-7.75-8.13v-3.85a42.62,42.62,0,0,1,.38-5.88c.34-2.49,1.48-3.15,3.21-3.15H299v1.42c0,1.45-.9,2.18-2.8,2.18H289a40.6,40.6,0,0,0-.31,4.88h8v1.49c0,1.38-.83,1.9-2.52,1.9h-5.5v1.25c0,3.6,1.17,4.32,4.43,4.32h1.31a20.69,20.69,0,0,0,4.57-.48Z"/><path class="cls-3" d="M313.36,403.68c-.52-.89-2-1.62-4.22-1.62a4.24,4.24,0,0,0-4.3,4.15c0,2.84,1.7,4.78,4.33,4.78,2.25,0,3.6-.73,4.15-1.46h.14v1.8c0,1.9-1.83,3.26-4.67,3.26a7.88,7.88,0,0,1-8-7.83,8,8,0,0,1,8.44-8.3c2.49,0,4.29,1.52,4.29,3.39v1.83Z"/><path class="cls-3" d="M323.22,398.25c4.71,0,7.41,3.81,7.41,8,0,4.71-2.7,8.44-7.76,8.44-4.7,0-7.4-3.73-7.4-7.89C315.47,402.06,318.17,398.25,323.22,398.25Zm-.35,3.5c-2.24,0-3.39,1.87-3.39,4.46,0,3.12,1.15,5,3.74,5,2.25,0,3.36-1.83,3.36-4.4C326.58,403.62,325.44,401.75,322.87,401.75Z"/><path class="cls-3" d="M347,414.31a2.58,2.58,0,0,1-2.83-2.56v-6.23c0-2.63-1.18-3.81-3.19-3.81-1.66,0-2.83,1.28-2.83,3.53v9.07H337a2.54,2.54,0,0,1-2.73-2.56V405c0-3.29,2.18-6.72,7.06-6.72a6.51,6.51,0,0,1,6.75,6.92v9.14Z"/><path class="cls-3" d="M359.45,398.25c4.71,0,7.41,3.81,7.41,8,0,4.71-2.7,8.44-7.75,8.44-4.71,0-7.41-3.73-7.41-7.89C351.7,402.06,354.4,398.25,359.45,398.25Zm-.34,3.5c-2.25,0-3.39,1.87-3.39,4.46,0,3.12,1.14,5,3.73,5,2.25,0,3.36-1.83,3.36-4.4C362.81,403.62,361.67,401.75,359.11,401.75Z"/><path class="cls-3" d="M392.33,414.31c-2.11,0-2.94-1-2.94-2.84v-6.05c0-2.6-1.18-3.71-2.88-3.71s-2.66,1.11-2.66,3.26v9.34h-1a2.61,2.61,0,0,1-2.84-2.84v-6.05c0-2.6-1.21-3.71-2.9-3.71-1.52,0-2.67,1.21-2.67,3.36v9.24h-1a2.69,2.69,0,0,1-2.84-2.84v-6.09c0-4.26,2.25-7.13,7-7.13a5.77,5.77,0,0,1,4.77,2.46,5.33,5.33,0,0,1,4.5-2.46c3.6,0,6.51,2.18,6.51,6.65v9.41Z"/><path class="cls-3" d="M400.22,397.49a2.27,2.27,0,0,1-2.25-2.28,2.24,2.24,0,0,1,2.25-2.25,2.3,2.3,0,0,1,2.32,2.25A2.33,2.33,0,0,1,400.22,397.49Zm2.77,17c-3,0-4.67-1.7-4.67-4.88V398.94h1.11c1.72,0,2.76.94,2.76,2.91v7.34c0,1.59.7,2.07,2.39,2.07h.73v.83C405.31,413.79,404.65,414.45,403,414.45Z"/><path class="cls-3" d="M413.61,408.15h-2.56c.31,2,2.11,3.22,4.4,3.22a7.12,7.12,0,0,0,4.81-1.49h.14v1.24c0,2-1.35,3.53-5.68,3.53a7.73,7.73,0,0,1-7.68-7.89c0-5.22,3.18-8.51,7.65-8.51a6.1,6.1,0,0,1,6.29,6.09C421,407.21,418.8,408.15,413.61,408.15Zm.73-6.65a3.4,3.4,0,0,0-3.29,3.36v.52h1.73c3.7,0,4.54-.41,4.54-1.52C417.32,402.3,416.14,401.5,414.34,401.5Z"/><path class="cls-3" d="M438.7,408.15h-2.56c.31,2,2.11,3.22,4.4,3.22a7.12,7.12,0,0,0,4.81-1.49h.13v1.24c0,2-1.34,3.53-5.67,3.53a7.73,7.73,0,0,1-7.68-7.89c0-5.22,3.18-8.51,7.65-8.51a6.1,6.1,0,0,1,6.29,6.09C446.07,407.21,443.89,408.15,438.7,408.15Zm.73-6.65a3.4,3.4,0,0,0-3.29,3.36v.52h1.73c3.7,0,4.54-.41,4.54-1.52C442.41,402.3,441.23,401.5,439.43,401.5Z"/><path class="cls-3" d="M452.75,395.07h.94v3.53h5.43v1.62c0,.8-.73,1.84-2.35,1.84h-3.08v6.16c0,2,.9,2.8,2.45,2.8a5.44,5.44,0,0,0,2.81-.55h.17v1.38c0,1.63-1.18,2.63-3.46,2.63-3.94,0-5.85-2.14-5.85-5.81v-9.41C449.81,397.18,451.27,395.07,452.75,395.07Z"/><path class="cls-3" d="M476.73,414.65c-4.11,0-7.26-3.6-7.26-7.89,0-5.15,2.49-8.51,7.06-8.51a4.52,4.52,0,0,1,3.87,2.49v-8.4h1.21a2.41,2.41,0,0,1,2.67,2.66v12.08C484.28,411.64,482.13,414.65,476.73,414.65Zm-.17-13.11c-2,0-3.29,1.94-3.29,4.46,0,3.26,1.7,5.37,4,5.37s3.15-1.63,3.15-4.47C480.37,403,478.64,401.54,476.56,401.54Z"/><path class="cls-3" d="M494.49,408.15h-2.56c.31,2,2.11,3.22,4.39,3.22a7.09,7.09,0,0,0,4.81-1.49h.14v1.24c0,2-1.35,3.53-5.67,3.53a7.73,7.73,0,0,1-7.69-7.89c0-5.22,3.19-8.51,7.65-8.51a6.1,6.1,0,0,1,6.3,6.09C501.86,407.21,499.68,408.15,494.49,408.15Zm.73-6.65a3.39,3.39,0,0,0-3.29,3.36v.52h1.73c3.7,0,4.53-.41,4.53-1.52C498.19,402.3,497,401.5,495.22,401.5Z"/><path class="cls-3" d="M510,414.65c-2.91,0-5-1.48-5-3.08v-1.76h.13a8.13,8.13,0,0,0,4.71,1.49c1.94,0,2.87-.56,2.87-1.73,0-.9-.55-1.32-3.25-1.7-3.32-.45-4.91-1.8-4.91-4.19,0-2.9,2.63-5.43,6.64-5.43,3.56,0,5,1.84,5,3.36v1.49H516a6.65,6.65,0,0,0-4.46-1.46c-2.39,0-3.15.73-3.15,1.73,0,.83.49,1.15,3.15,1.56,3.25.55,5,2,5,4.43C516.57,412.68,514.21,414.65,510,414.65Z"/><path class="cls-3" d="M539.06,396.94h-6.43v5.15h7.54v1.25a2,2,0,0,1-2,2.08H532.8v8.89h-1.73a2.2,2.2,0,0,1-2.46-2.42V396.66c0-2.56,1-3.22,3.5-3.22h9.34v1.32A2.22,2.22,0,0,1,539.06,396.94Z"/><path class="cls-3" d="M546.3,397.49a2.27,2.27,0,0,1-2.25-2.28A2.24,2.24,0,0,1,546.3,393a2.3,2.3,0,0,1,2.31,2.25A2.33,2.33,0,0,1,546.3,397.49Zm2.76,17c-3,0-4.67-1.7-4.67-4.88V398.94h1.11c1.73,0,2.77.94,2.77,2.91v7.34c0,1.59.69,2.07,2.39,2.07h.72v.83C551.38,413.79,550.72,414.45,549.06,414.45Z"/><path class="cls-3" d="M566.71,414.31a2.58,2.58,0,0,1-2.83-2.56v-6.23c0-2.63-1.18-3.81-3.19-3.81-1.66,0-2.84,1.28-2.84,3.53v9.07h-1.14a2.54,2.54,0,0,1-2.73-2.56V405c0-3.29,2.18-6.72,7.06-6.72a6.51,6.51,0,0,1,6.74,6.92v9.14Z"/><path class="cls-3" d="M578.55,414.59h-.8c-3.73,0-6.3-2.12-6.3-5s2-4.91,7.82-4.91h1.35v-.21c0-2.21-1-2.87-3.35-2.87-2.84,0-4.4,1.07-5,1.8h-.14v-1.25c0-1.76,1.55-3.84,5.67-3.84,3.5,0,6.64,1.63,6.64,7v3.59A5.54,5.54,0,0,1,578.55,414.59Zm2.11-7.1h-1.39c-3,0-3.8.69-3.8,2s1,1.94,2.7,1.94a2.18,2.18,0,0,0,2.49-2.42Z"/><path class="cls-3" d="M600.87,414.31a2.59,2.59,0,0,1-2.84-2.56v-6.23c0-2.63-1.17-3.81-3.18-3.81-1.66,0-2.84,1.28-2.84,3.53v9.07h-1.14a2.54,2.54,0,0,1-2.73-2.56V405c0-3.29,2.18-6.72,7.05-6.72a6.51,6.51,0,0,1,6.75,6.92v9.14Z"/><path class="cls-3" d="M618.14,403.68c-.52-.89-2-1.62-4.22-1.62a4.23,4.23,0,0,0-4.29,4.15c0,2.84,1.69,4.78,4.32,4.78,2.25,0,3.6-.73,4.15-1.46h.14v1.8c0,1.9-1.83,3.26-4.67,3.26a7.88,7.88,0,0,1-8-7.83,8,8,0,0,1,8.44-8.3c2.49,0,4.29,1.52,4.29,3.39v1.83Z"/><path class="cls-3" d="M627.1,408.15h-2.56c.31,2,2.11,3.22,4.4,3.22a7.08,7.08,0,0,0,4.8-1.49h.14v1.24c0,2-1.35,3.53-5.67,3.53a7.73,7.73,0,0,1-7.68-7.89c0-5.22,3.18-8.51,7.64-8.51a6.1,6.1,0,0,1,6.3,6.09C634.47,407.21,632.29,408.15,627.1,408.15Zm.73-6.65a3.4,3.4,0,0,0-3.29,3.36v.52h1.73c3.7,0,4.53-.41,4.53-1.52C630.8,402.3,629.63,401.5,627.83,401.5Z"/><path class="cls-3" d="M642.64,414.65c-2.91,0-5-1.48-5-3.08v-1.76h.14a8.07,8.07,0,0,0,4.7,1.49c1.94,0,2.87-.56,2.87-1.73,0-.9-.55-1.32-3.25-1.7-3.32-.45-4.91-1.8-4.91-4.19,0-2.9,2.63-5.43,6.64-5.43,3.57,0,5,1.84,5,3.36v1.49h-.17a6.69,6.69,0,0,0-4.47-1.46c-2.38,0-3.15.73-3.15,1.73,0,.83.49,1.15,3.15,1.56,3.26.55,5,2,5,4.43C649.18,412.68,646.83,414.65,642.64,414.65Z"/><path class="cls-3" d="M173.41,392a20.35,20.35,0,0,1,3.09,2.33c1.06,1,1.33,1.41.95,2.33l-3.29-2a2.29,2.29,0,0,1-.59-.43A2.12,2.12,0,0,1,173.41,392Z"/><path class="cls-3" d="M229.82,109.65a2.08,2.08,0,1,0,0-4.15,2.08,2.08,0,0,0,0,4.15Z"/><path class="cls-3" d="M234.73,109.65a2.08,2.08,0,1,0,0-4.15,2.08,2.08,0,0,0,0,4.15Z"/><path class="cls-3" d="M247.92,127.82h9.15a6.6,6.6,0,0,0,4.54-1.71,7.59,7.59,0,0,0,4.91,1.7h15.33c4.15-.15,6.15-2.8,6.15-6.18V118.3c0-1.89-.95-2.87-2.8-2.87h-1.35v6c0,1.68-.65,2.58-2.32,2.77H267.07c-2.73,0-3.67-1.13-3.82-3.67V118.3a2.51,2.51,0,0,0-2.84-2.84h-1.3v6c0,1.67-.66,2.58-2.37,2.73H239.6l0-3.13c0-4.22-2-8.69-7.16-8.69-4.76,0-7.3,3.6-7.3,8,0,6.51,5.89,7.38,10.32,7.49,2.22-.11,8.61,0,8.4,0h4ZM236,124.19c-2.4-.08-7.23.5-7.23-4.29,0-2.62,1.12-4.47,3.38-4.47,3.49,0,3.89,3.09,3.89,6.14C236,122.48,236,123.39,236,124.19Z"/><path class="cls-3" d="M264.67,132.07a2.16,2.16,0,0,0-2.15-2.07,2.09,2.09,0,0,0,0,4.18A2.14,2.14,0,0,0,264.67,132.07Z"/><path class="cls-3" d="M255.73,132.07a2.09,2.09,0,1,0,2.1-2.07A2.08,2.08,0,0,0,255.73,132.07Z"/><path class="cls-3" d="M282.18,131.89a2.05,2.05,0,0,0,2,2.11,2.09,2.09,0,1,0,0-4.18A2,2,0,0,0,282.18,131.89Z"/><path class="cls-3" d="M317.21,109.65a2.08,2.08,0,0,0,2.07-2.11,2,2,0,0,0-2.07-2,2,2,0,0,0-2.07,2A2.06,2.06,0,0,0,317.21,109.65Z"/><path class="cls-3" d="M348.2,127.82h1.31c4.18-.15,6.22-2.76,6.22-6.18V108.7a2.53,2.53,0,0,0-2.87-2.83h-1.35v15.59c0,1.64-.62,2.58-2.33,2.73h-.25c-3.05,0-4.21-1.06-4.21-3.82,0-4.4-2.58-8-7.31-8-4.36,0-7,3.53-7,7.38-.07,3.23-.95,4.4-4.29,4.4h-.65c-.58,0-.58,0-3,0a4.6,4.6,0,0,1-2.47-.62,22.28,22.28,0,0,0,5.52-7.45c-1.67-.9-4.18-3.63-8.39-3.63a9.36,9.36,0,0,0-4.22,1.2c-1.6.87-3.45,2-4.4,2.4,0,1-.18,2.51-.18,3.09a11.55,11.55,0,0,1,5.74,4.39,3.94,3.94,0,0,1-2.58.59H296a4.42,4.42,0,0,1-.84-.08V118.3c0-2.07-.65-2.91-2.69-2.91H290.9v8.8c0,3.92.4,6.39-2.54,6.39a11.14,11.14,0,0,1-1.49-.14V132c0,1.42,1.2,2.22,3,2.22a5,5,0,0,0,5.09-4.94v-1.42h15.55a11.27,11.27,0,0,0,6.32-2c2.91,2.14,6.87,2,8.5,2H327a7.39,7.39,0,0,0,5.45-2.1,7.19,7.19,0,0,0,5.27,2.11,6.71,6.71,0,0,0,4.94-2,7.34,7.34,0,0,0,5.52,2Zm-30.84-6.21c-1.79-1-3.28-3-5.2-4a10.17,10.17,0,0,1,5.38-1.92,9,9,0,0,1,4.14,1.09A23.68,23.68,0,0,1,317.36,121.61Zm20.05,3.16c-2.29,0-3.41-1.82-3.41-4.4,0-3.09,1.16-4.91,3.74-4.91,2.22,0,3.34,1.82,3.34,4.44C341.08,123,340,124.77,337.41,124.77Z"/><path class="cls-3" d="M361.58,105.9h-1.86V125a2.51,2.51,0,0,0,2.51,2.8h1.67V108A2.33,2.33,0,0,0,361.58,105.9Z"/><path class="cls-3" d="M381.05,109.65a2.08,2.08,0,1,0,0-4.15,2.08,2.08,0,0,0,0,4.15Z"/><path class="cls-3" d="M386,109.65a2.08,2.08,0,1,0,0-4.15,2.08,2.08,0,0,0,0,4.15Z"/><path class="cls-3" d="M498,121.64V108.7a2.53,2.53,0,0,0-2.87-2.83h-1.35v15.59c0,1.64-.62,2.58-2.32,2.73h-.25c-3.06,0-4.22-1.06-4.22-3.82,0-4.4-2.58-8-7.3-8-4.37,0-7,3.53-7,7.38-.07,3-.83,4.22-3.61,4.38-2.73-.1-3.8-1.17-3.8-3.8,0-4.4-2.58-8-7.3-8-4.37,0-7,3.53-7,7.38-.07,3-.85,4.26-3.75,4.38-2.58-.12-2.95-1.17-3.12-3.65V108.67a2.52,2.52,0,0,0-2.83-2.84h-1.31v15.59c0,1.68-.65,2.58-2.36,2.77h-7.41c0-8.84-6.54-10.58-6.83-10.58a6.18,6.18,0,0,0-1.31-.22c3.3-2.51,6.61-4.94,9.92-7.45a1.69,1.69,0,0,0,.62-1.38,2.17,2.17,0,0,0-.37-1.24l-1-1.27c-4.58,3.42-9.19,6.87-13.74,10.29a2.37,2.37,0,0,0-1,1.85c0,1,.76,1.64,1.31,2.36a10.43,10.43,0,0,1,1.78-.14,6.48,6.48,0,0,1,3.59,1.09,7.91,7.91,0,0,1,3.24,6.69h-35.5l0-3.13c0-4.22-2-8.69-7.16-8.69-4.77,0-7.31,3.6-7.31,8,0,6.51,5.89,7.38,10.32,7.49,2.22-.11,8.62,0,8.4,0h42.8v0a6.8,6.8,0,0,0,4.47-1.66,6,6,0,0,0,3.85,1.67v0h1.82v0a7.16,7.16,0,0,0,4.9-2.08,7.19,7.19,0,0,0,5.27,2.11,6.73,6.73,0,0,0,4.95-2,6.9,6.9,0,0,0,4.79,2v0h1.82v0a7.16,7.16,0,0,0,4.9-2.08,7.19,7.19,0,0,0,5.27,2.11,6.69,6.69,0,0,0,4.94-2,7.36,7.36,0,0,0,5.52,2h1.31C495.91,127.67,498,125.06,498,121.64Zm-110.72,2.55c-2.4-.08-7.23.5-7.23-4.29,0-2.62,1.13-4.47,3.38-4.47,3.49,0,3.89,3.09,3.89,6.14C387.27,122.48,387.23,123.39,387.23,124.19Zm70.68.58c-2.29,0-3.42-1.82-3.42-4.4,0-3.09,1.16-4.91,3.74-4.91,2.22,0,3.35,1.82,3.35,4.44C461.58,123,460.49,124.77,457.91,124.77Zm21.73,0c-2.29,0-3.42-1.82-3.42-4.4,0-3.09,1.16-4.91,3.74-4.91,2.22,0,3.35,1.82,3.35,4.44C483.31,123,482.22,124.77,479.64,124.77Z"/><path class="cls-3" d="M504.45,127.82h1.67V108a2.33,2.33,0,0,0-2.32-2.08h-1.86V125A2.51,2.51,0,0,0,504.45,127.82Z"/><path class="cls-3" d="M240.3,162.44a6,6,0,0,0-2.72-3.09,5.65,5.65,0,0,0,4.5-5.81c0-3.67-2.83-6.29-7.19-6.29h-2.44a23.69,23.69,0,0,0-5.63.8v18.36a2.72,2.72,0,0,0,3,2.94h1.42v-8.8c.43,0,1.2.15,2.18.29s2.07.37,3,2.77l1.64,4a3.17,3.17,0,0,0,3.19,1.92c1.2,0,1.6-.14,2.11-.69a10.94,10.94,0,0,1-1.34-2.25Zm-6-5.23a16.7,16.7,0,0,1-3.12-.18v-5.78a8.84,8.84,0,0,1,1.92-.22h1.24c1.92,0,3.27.58,3.27,3.24C237.65,156.19,236.12,157.21,234.34,157.21Z"/><path class="cls-3" d="M252.84,152.49c-5.31,0-8.14,4-8.14,8.94,0,4.36,2.83,8.28,7.77,8.28,5.31,0,8.15-3.92,8.15-8.87C260.62,156.48,257.78,152.49,252.84,152.49Zm0,13.55c-2.73,0-3.93-1.92-3.93-5.2,0-2.72,1.2-4.68,3.56-4.68,2.69,0,3.89,2,3.89,5.27C256.36,164.12,255.2,166,252.84,166Z"/><path class="cls-3" d="M275.08,152.85H273.3a46.73,46.73,0,0,1-3.2,11.45,35.67,35.67,0,0,1-3.27-9.52,2.42,2.42,0,0,0-2.4-1.93h-2.18a52.68,52.68,0,0,0,5.85,15.34c-.91,2.39-1.42,2.94-2.91,3l-2.32.15v.8a2.68,2.68,0,0,0,2.87,2.54c3,0,4.58-1.67,7.63-8.87.76-1.78,3.63-9.3,3.63-11C277,153.43,276.39,152.85,275.08,152.85Z"/><path class="cls-3" d="M285,152.56c-4.33,0-6,2.18-6,4v1.31h.14c.62-.76,2.26-1.89,5.24-1.89,2.43,0,3.52.69,3.52,3v.22h-1.42c-6.07,0-8.21,2.21-8.21,5.16s2.69,5.23,6.61,5.23h.84c3.63,0,6.21-2.44,6.21-5.92v-3.78C292,154.27,288.67,152.56,285,152.56Zm3,11.19a2.3,2.3,0,0,1-2.62,2.55c-1.82,0-2.83-.77-2.83-2s.87-2.07,4-2.07H288Z"/><path class="cls-3" d="M306.91,152.85h-.76v9.27c0,2.8-1.17,4-2.88,4s-3.3-1.2-3.3-4.25v-6c0-1.92-1.06-2.94-3.38-2.94h-.77v9.38c0,4.79,3.2,7.48,7.27,7.48,4.76,0,7.2-2.61,7.2-7.74v-6.18C310.29,153.87,309.27,152.85,306.91,152.85Z"/><path class="cls-3" d="M332.13,152.49a5.58,5.58,0,0,0-4.73,2.58,6.06,6.06,0,0,0-5-2.58c-5,0-7.34,3-7.34,7.48v6.4a2.82,2.82,0,0,0,3,3h1.09v-9.7c0-2.26,1.2-3.53,2.8-3.53,1.78,0,3.05,1.16,3.05,3.89v6.36a2.73,2.73,0,0,0,3,3H329v-9.81c0-2.26,1.13-3.42,2.8-3.42s3,1.16,3,3.89v6.36c0,1.93.88,3,3.09,3h1v-9.89C339,154.78,335.91,152.49,332.13,152.49Z"/><path class="cls-3" d="M357.42,158.88a6.4,6.4,0,0,0-6.62-6.39c-4.68,0-8,3.45-8,8.94a8.12,8.12,0,0,0,8.07,8.28c4.54,0,6-1.6,6-3.7V164.7h-.14a7.47,7.47,0,0,1-5.06,1.56c-2.4,0-4.29-1.31-4.61-3.38h2.69C355.13,162.88,357.42,161.9,357.42,158.88ZM347,160v-.54a3.57,3.57,0,0,1,3.45-3.53c1.89,0,3.13.84,3.13,2.47,0,1.17-.88,1.6-4.77,1.6Z"/><path class="cls-3" d="M381.87,146.27H380.6v8.83a4.73,4.73,0,0,0-4.07-2.61c-4.8,0-7.41,3.52-7.41,8.94,0,4.5,3.3,8.28,7.63,8.28,5.67,0,7.92-3.16,7.92-8V149.07A2.53,2.53,0,0,0,381.87,146.27Zm-4.61,20c-2.37,0-4.15-2.22-4.15-5.63,0-2.66,1.35-4.69,3.46-4.69s4,1.49,4,5.63C380.56,164.55,379.55,166.26,377.26,166.26Z"/><path class="cls-3" d="M400.48,152.85h-.77v9.27c0,2.8-1.16,4-2.87,4s-3.3-1.2-3.3-4.25v-6c0-1.92-1.06-2.94-3.39-2.94h-.76v9.38c0,4.79,3.2,7.48,7.27,7.48,4.76,0,7.2-2.61,7.2-7.74v-6.18C403.86,153.87,402.84,152.85,400.48,152.85Z"/><path class="cls-3" d="M437,147.43h-.51c-.94.73-2.29,3-3.41,6.44l-2.55,7.77a21,21,0,0,0-.62,2.26,28.52,28.52,0,0,0-1.23-4.18l-3.05-8.58c-.84-2.33-2.95-3.71-6-3.71h-.95a143.87,143.87,0,0,0-1.74,19,2.64,2.64,0,0,0,2.76,2.91h1.53a134.42,134.42,0,0,1,.94-15.92c.33.76.84,2.07,1.24,3.2l3.12,9.23c.8,2.36,2.08,3.49,3.53,3.49h1.16a15.6,15.6,0,0,0,1.82-3.89l3.05-9.41c.33-1,.73-1.89,1-2.58.36,2.14.84,10.17.84,13a2.62,2.62,0,0,0,2.83,2.91h1.64c0-4.4-.66-13.92-1.06-17.37C441,149,439.43,147.43,437,147.43Z"/><path class="cls-3" d="M452.51,152.56c-4.32,0-6,2.18-6,4v1.31h.15c.61-.76,2.25-1.89,5.23-1.89,2.43,0,3.53.69,3.53,3v.22H454c-6.07,0-8.22,2.21-8.22,5.16s2.69,5.23,6.62,5.23h.83c3.64,0,6.22-2.44,6.22-5.92v-3.78C459.49,154.27,456.18,152.56,452.51,152.56Zm3,11.19a2.29,2.29,0,0,1-2.61,2.55c-1.82,0-2.84-.77-2.84-2s.87-2.07,4-2.07h1.45Z"/><path class="cls-3" d="M469.41,152.7c-4.36,0-6.07,3.17-6.07,6.44v7.59c0,1.71,1.16,2.62,3,2.62h1.13V159.9c0-2.51,1-3.53,2.83-3.53a6.44,6.44,0,0,1,2.4.48h.14v-1.46C472.82,154.16,471.92,152.7,469.41,152.7Z"/><path class="cls-3" d="M482.34,152.49c-5.3,0-8.14,4-8.14,8.94,0,4.36,2.84,8.28,7.78,8.28,5.31,0,8.14-3.92,8.14-8.87C490.12,156.48,487.29,152.49,482.34,152.49Zm0,13.55c-2.72,0-3.92-1.92-3.92-5.2,0-2.72,1.2-4.68,3.56-4.68,2.69,0,3.89,2,3.89,5.27C485.87,164.12,484.71,166,482.34,166Z"/><path class="cls-3" d="M501.79,156.48c2.32,0,3.88.77,4.43,1.71h.18v-1.92c0-2-1.89-3.57-4.51-3.57a8.43,8.43,0,0,0-8.86,8.73,8.27,8.27,0,0,0,8.39,8.21c3,0,4.91-1.42,4.91-3.42v-1.89h-.15c-.58.77-2,1.53-4.36,1.53-2.76,0-4.54-2-4.54-5A4.45,4.45,0,0,1,501.79,156.48Z"/></svg>