<svg id="Calque_1" data-name="Calque 1" xmlns="http://www.w3.org/2000/svg" viewBox="0 0 725 595.28"><defs><style>.cls-1{fill:#ecbc06;}.cls-2{fill:#383e40;}.cls-3{fill:#ce6f56;}</style></defs><path class="cls-1" d="M244.39,149.87V277l49.95-58.47a11.85,11.85,0,0,1,17.85-.23l31.49,36.82L375,218.5a11.85,11.85,0,0,1,17.85-.23l31.49,36.81L451,223.83a11.84,11.84,0,0,1,9-4.17h20.58V149.87Z"/><path class="cls-2" d="M264.92,277a11.83,11.83,0,0,0,8.83-3.95l29.61-34.7L334.69,275a11.85,11.85,0,0,0,17.85.23L384,238.35,415.3,275a11.85,11.85,0,0,0,17.85.23l47.48-55.58H460.05a11.84,11.84,0,0,0-9,4.17L424.3,255.08l-31.49-36.81a11.85,11.85,0,0,0-17.85.23l-31.28,36.59-31.49-36.82a11.85,11.85,0,0,0-17.85.23L244.39,277Z"/><rect class="cls-2" x="296.88" y="258.8" width="12.96" height="12.35"/><path class="cls-3" d="M433.15,275.24A11.85,11.85,0,0,1,415.3,275L384,238.35l-31.47,36.89a11.85,11.85,0,0,1-17.85-.23l-31.33-36.64-29.61,34.7a11.83,11.83,0,0,1-8.83,3.95l-20.53,0V342.9H480.63V219.66Zm-123.31-4.09h-13V258.8h13Z"/><path class="cls-2" d="M241.32,146.81V346H483.69V146.81ZM480.63,342.9H244.39v-193H480.63Z"/><path class="cls-3" d="M500.78,425.23h.16c2.45,4.73,6.24,6.75,11.53,6.75,10.16,0,15.24-8.43,15.24-19.37,0-11.26-4.37-19.37-15.24-19.37a12.48,12.48,0,0,0-11.53,7.1h-.16V376.71h-4.56v54.4h4.56Zm11-28.08c8.71,0,11,8.27,11,15.46s-2.24,15.45-11,15.45c-8.13,0-11-8.7-11-15.45S503.39,397.15,511.74,397.15Z"/><path class="cls-3" d="M562.39,407c0-9.64-3.86-13.78-13-13.78a29,29,0,0,0-10.87,2.54v4.42a19.57,19.57,0,0,1,10.87-3.05c6.17,0,8.42,3.19,8.42,9.51v1.88h-.88c-9.56,0-22.76.58-22.76,13,0,3.33,1.66,10.44,12.18,10.44,4.56,0,9.72-2.39,11.75-6.83h.14v6h4.5a54.42,54.42,0,0,1-.35-7.76Zm-4.58,7.69c0,4-.22,13.35-11,13.35-4.2,0-7.68-1.81-7.68-6.68,0-8.13,9.43-8.92,17.33-8.92h1.31Z"/><path class="cls-3" d="M589.52,393.24c-7.7,0-10.45,4.14-12,7.48h-.16v-6.61H573c.29,3,.29,5.88.29,8.71v28.29h4.57V410.64c0-6.16,2.61-13.49,10.95-13.49,6.31,0,8.78,4.51,8.78,11.47v22.49h4.56V407.47C602.13,399.34,598.66,393.24,589.52,393.24Z"/><polygon class="cls-3" points="622.52 410.52 640.6 394.11 634.7 394.11 618.17 409.28 618.17 376.71 613.6 376.71 613.6 431.11 618.17 431.11 618.17 412.12 636.45 431.11 642.75 431.11 622.52 410.52"/><polygon class="cls-2" points="312.23 393.73 322.53 393.73 330.81 421.38 330.97 421.38 338.51 393.73 349.83 393.73 357.97 421.38 358.12 421.38 365.87 393.73 375.17 393.73 363.7 431.11 352.23 431.11 344.1 402.57 343.95 402.57 335.97 431.11 324.87 431.11 312.23 393.73"/><path class="cls-2" d="M112.35,380.46c-1-2.32-2.46-3.65-4-3.66v0h0v0c-1.53,0-3,1.34-4,3.66L82.25,431.12H93.83s10.75-24.87,14.52-33.49c3.74,8.62,14.51,33.49,14.51,33.49h11.6Z"/><rect class="cls-2" x="104.41" y="415.88" width="7.87" height="7.52"/><path class="cls-2" d="M210.71,426.21c0,7-.52,9.76-1.93,11.4-1.19,1.46-3.68,2.1-6.17,2.3v8.56c4.59,0,10.51-1.36,13.38-4.32s4.41-7.66,4.41-15.29V393.72h-9.69Z"/><path class="cls-2" d="M151.19,424.44c-3.69,0-4.56-3-4.56-6.17V400.86h8.63v-7.12h-8.63v-9h-9.72v35.17c0,7.4,4.2,12.11,11.82,12.11a25.48,25.48,0,0,0,7.18-.87l-.28-7.69A8.66,8.66,0,0,1,151.19,424.44Z"/><path class="cls-2" d="M176.71,424.44c-3.72,0-4.59-3-4.59-6.17V400.86h8.64v-7.12h-8.64v-9H162.4v35.17c0,7.4,4.21,12.11,11.84,12.11a25.43,25.43,0,0,0,7.16-.87l-.28-7.69A8.61,8.61,0,0,1,176.71,424.44Z"/><rect class="cls-2" x="190.5" y="380.89" width="9.71" height="9.28"/><rect class="cls-2" x="190.5" y="393.74" width="9.71" height="37.38"/><rect class="cls-2" x="298.89" y="380.89" width="9.72" height="9.28"/><rect class="cls-2" x="298.89" y="393.74" width="9.72" height="37.38"/><rect class="cls-2" x="210.73" y="380.89" width="9.72" height="9.28"/><path class="cls-2" d="M260.9,413.41v-4.79c0-11-4.72-15.74-16.11-15.74a33.22,33.22,0,0,0-13,2.82l.29,8.35A19.55,19.55,0,0,1,243.62,400c5.74,0,8.42,2,8.42,8.05h-5.37c-4,0-8.84.35-12.55,2.18s-6.38,5.07-6.38,10.66c0,7.12,6.46,11.1,13.07,11.1,4.42,0,9.27-2.31,11.52-6.46h.14a46,46,0,0,0,.45,5.59h8.56c-.21-2.9-.36-5.52-.45-8.34S260.9,417.17,260.9,413.41ZM250,421.54a8.29,8.29,0,0,1-6.81,3.33c-3.48,0-6.16-1.37-6.16-4.56,0-5.73,6.44-6.46,10.8-6.46H252C252,416.75,251.61,419.44,250,421.54Z"/><path class="cls-2" d="M279.47,402.24h-.15v-8.5H270.7v37.37h9.72V417.4c0-5.36,0-15.24,7.91-15.24a9.76,9.76,0,0,1,4.35.81v-9.81a11,11,0,0,0-3-.28C283.89,392.88,279.9,398.75,279.47,402.24Z"/><path class="cls-2" d="M408.48,413.41v-4.79c0-11-4.74-15.74-16.11-15.74a33.23,33.23,0,0,0-13,2.82l.28,8.35A19.63,19.63,0,0,1,391.2,400c5.74,0,8.41,2,8.41,8.05h-5.36c-4.07,0-8.86.35-12.54,2.18s-6.39,5.07-6.39,10.66c0,7.12,6.44,11.1,13.05,11.1,4.42,0,9.29-2.31,11.53-6.46h.15a47.74,47.74,0,0,0,.44,5.59H409c-.21-2.9-.34-5.52-.42-8.34S408.48,417.17,408.48,413.41Zm-10.9,8.13a8.29,8.29,0,0,1-6.82,3.33c-3.48,0-6.16-1.37-6.16-4.56,0-5.73,6.46-6.46,10.81-6.46h4.2C399.61,416.75,399.19,419.44,397.58,421.54Z"/><path class="cls-2" d="M417.81,388.53v42.58h9.71V400.86H436v-7.12h-8.5v-4.63c0-2.91,1-5.73,4.29-5.73a7.61,7.61,0,0,1,4.21,1.29l.79-8a33.82,33.82,0,0,0-7.11-.8C422,375.83,417.81,381.05,417.81,388.53Z"/><path class="cls-2" d="M473.92,413.41v-4.79c0-11-4.72-15.74-16.12-15.74a33.38,33.38,0,0,0-13,2.82l.3,8.35A19.55,19.55,0,0,1,456.64,400c5.73,0,8.42,2,8.42,8.05H459.7c-4.07,0-8.86.35-12.55,2.18s-6.39,5.07-6.39,10.66c0,7.12,6.45,11.1,13.06,11.1,4.41,0,9.27-2.31,11.53-6.46h.14a47.74,47.74,0,0,0,.44,5.59h8.56c-.21-2.9-.36-5.52-.43-8.34S473.92,417.17,473.92,413.41ZM463,421.54a8.37,8.37,0,0,1-6.83,3.33c-3.47,0-6.17-1.37-6.17-4.56,0-5.73,6.46-6.46,10.82-6.46h4.2C465.06,416.75,464.63,419.44,463,421.54Z"/></svg>