<svg id="Calque_1" data-name="Calque 1" xmlns="http://www.w3.org/2000/svg" viewBox="0 0 725 595.28"><defs><style>.cls-1{fill:#00777d;}.cls-2{fill:#3b3d38;}.cls-3{fill:#484944;}.cls-4{fill:#474743;}.cls-5{fill:#484844;}.cls-6{fill:#454642;}.cls-7{fill:#4a4b46;}.cls-8{fill:#42433e;}.cls-9{fill:#454641;}.cls-10{fill:#4f4f4b;}.cls-11{fill:#5a5955;}</style></defs><path class="cls-1" d="M298.85,325.37c3.68,8,7.22,15.64,10.74,23.25a1.58,1.58,0,0,1-1.44.43c-3,0-5.93-.1-8.89.05-1.46.07-2-.57-2.58-1.76-2.73-6-5.53-12-8.31-18-.84-1.82-.85-1.84-2.74-1.49-11.5,2.13-23.08,3.81-34.69,5.2-10.8,1.29-21.62,2.38-32.48,3.06-1.79.12-3.57.32-5.36.36a2,2,0,0,0-2,1.36c-1.48,3.26-3.07,6.46-4.53,9.73a2.14,2.14,0,0,1-2.32,1.51c-3.49-.08-7,0-10.62,0a4.13,4.13,0,0,1,.75-2.2q12.09-25.22,24.22-50.42,14.17-29.49,28.32-59a2.62,2.62,0,0,1,2.94-1.84,44.59,44.59,0,0,0,5.78,0,2.12,2.12,0,0,1,2.34,1.48c3.3,7.26,6.68,14.49,10,21.73L294,315a9.53,9.53,0,0,1,.51,1.13c.3.93.93,1,1.78.83,4.21-1,8.44-2,12.65-3,1.53-.37,1.54-.41,1.54-2.1q0-10.74,0-21.48,0-26.25,0-52.49c0-2.53-.15-2.26,2.17-2.26,18.32,0,36.64,0,55,.08a57.11,57.11,0,0,1,20.43,3.61c7.51,2.9,13.39,7.64,16.41,15.3a35.21,35.21,0,0,1,1.1,23.48c-2,6.64-6.41,11.46-12.23,15a146,146,0,0,1-19.77,9.8,362.17,362.17,0,0,1-49.67,16.57c-2.26.59-2.26.58-2.26,3v24.18c0,.48,0,1,0,1.44s-.23.92-.83.93h-9.51c-.63,0-.81-.39-.79-.94s0-1,0-1.45q0-10.63,0-21.28c0-.55,0-1.1,0-1.65s-.35-.83-.95-.7q-1.41.33-2.82.63Zm23-14.93c.39-.09.66-.14.92-.21q15-4.28,29.55-9.78a273.26,273.26,0,0,0,32.95-14.68,21.56,21.56,0,0,0,6.82-5.59c3.12-3.95,4-8.51,3.66-13.4-.53-8.68-4.68-14.77-12.8-18A40.27,40.27,0,0,0,368.06,246c-14.8-.1-29.6-.06-44.4-.06-2.1,0-2-.21-2,2v60.3A4.63,4.63,0,0,0,321.9,310.44ZM216.28,326.68c9.89.88,60.56-4.74,67.41-7.45L252.54,252C240.37,277,228.35,301.8,216.28,326.68Z"/><path class="cls-1" d="M142.89,234.41c8.16.11,16.3.72,24.2,3.26a44.93,44.93,0,0,1,5.75,2.28c10.41,5,16.36,13.33,18.33,24.62.39,2.25.58,4.51.75,6.77.07,1-.26,1.36-1.28,1.34-2.75-.05-5.51,0-8.26,0-1.41,0-1.42-.05-1.55-1.53a40.29,40.29,0,0,0-2.44-11,20.16,20.16,0,0,0-13-12.41,54.62,54.62,0,0,0-12.52-2.5,97.49,97.49,0,0,0-22.26.38c-5,.69-9.88,1.83-14.28,4.47a15,15,0,0,0-7.12,8.51c-2.26,7.35-.41,14.94,7.37,19.25a50.44,50.44,0,0,0,13,4.56c7,1.66,14.06,2.6,21.06,4.1,8.21,1.76,16.39,3.61,24.27,6.58a37.12,37.12,0,0,1,9.29,4.87A24.45,24.45,0,0,1,194,315.42a29.7,29.7,0,0,1-.56,10.87,24.58,24.58,0,0,1-10.06,14.17,50.7,50.7,0,0,1-19.1,8A92.9,92.9,0,0,1,137,349.81a67.55,67.55,0,0,1-20.65-4.65,41.76,41.76,0,0,1-12.57-7.79A31.31,31.31,0,0,1,94,318.68,75.29,75.29,0,0,1,93.56,308c0-1,.38-1.29,1.34-1.27,2.82,0,5.65.06,8.47,0,1.16,0,1.34.5,1.35,1.49a54.1,54.1,0,0,0,.34,8.24,23.43,23.43,0,0,0,12.76,18A44.3,44.3,0,0,0,132.53,339a94.58,94.58,0,0,0,24.3.39,46.9,46.9,0,0,0,14.33-3.7,22.66,22.66,0,0,0,8.69-6.48c4.5-5.64,3.83-14.56,1.18-19a14.65,14.65,0,0,0-5.72-5.24,46.46,46.46,0,0,0-11-4c-8.07-2.08-16.25-3.62-24.38-5.37A184.36,184.36,0,0,1,118,289.75a38.83,38.83,0,0,1-11.41-6.12,23.5,23.5,0,0,1-9.32-19.15,31,31,0,0,1,1-8.79,23.38,23.38,0,0,1,9.77-13.38c5-3.38,10.61-5.15,16.47-6.28A106.88,106.88,0,0,1,142.89,234.41Z"/><path class="cls-1" d="M460.56,234.42c7.89.09,16,.72,23.92,3.25a43.39,43.39,0,0,1,7.59,3.23c9.42,5.16,14.65,13.24,16.5,23.68a60.75,60.75,0,0,1,.7,6.57c.1,1.4,0,1.49-1.26,1.5-2.82,0-5.65,0-8.47,0-1,0-1.24-.46-1.31-1.36a41.21,41.21,0,0,0-2-9.89c-2.38-7.1-7-11.83-14.26-14a58,58,0,0,0-11.73-2.23,98.64,98.64,0,0,0-22.06.35,39,39,0,0,0-13.4,3.89c-4.4,2.34-7.63,5.68-8.63,10.72-1.56,7.87,1.15,13.73,7.48,17.44,4.09,2.41,8.61,3.64,13.16,4.73,7,1.68,14.2,2.63,21.27,4.14,8.28,1.77,16.52,3.65,24.46,6.66a38.38,38.38,0,0,1,7.58,3.73c6.79,4.44,10.44,10.8,11.29,18.79a31.65,31.65,0,0,1-.21,8.85,23.78,23.78,0,0,1-8.49,14.46c-5.17,4.34-11.23,6.9-17.65,8.67-9.82,2.71-19.84,3-29.92,2.29a68,68,0,0,1-21.47-4.74,48,48,0,0,1-8.2-4.35c-8.94-5.95-13.51-14.44-14.38-25-.21-2.53-.08-5.09-.15-7.64,0-1,.14-1.52,1.33-1.48,2.82.08,5.65.07,8.47,0,1.15,0,1.37.48,1.37,1.48a49.59,49.59,0,0,0,.42,8.86,23.1,23.1,0,0,0,10.7,16.19c5.15,3.29,10.9,4.87,16.87,5.76a94.83,94.83,0,0,0,24.1.38,50.85,50.85,0,0,0,12.62-3,30,30,0,0,0,6-3.15c7.65-5.18,9-13.27,6.59-20.78-1.16-3.62-3.82-6-7.11-7.7a49.12,49.12,0,0,0-10.66-3.82c-8.06-2.07-16.24-3.62-24.38-5.37a178.69,178.69,0,0,1-21.92-5.82,35.6,35.6,0,0,1-14-8.47,22.83,22.83,0,0,1-6.68-15.77,31.53,31.53,0,0,1,1.13-10.22c2.23-7.35,7.21-12.2,14-15.44a50.74,50.74,0,0,1,14-4.15A110.31,110.31,0,0,1,460.56,234.42Z"/><path class="cls-1" d="M567,297.57q0,24.6,0,49.18c0,2.52.3,2.29-2.34,2.3h-6.82c-2,0-2,0-2-2.07,0-.42,0-.83,0-1.24q0-48.36,0-96.71c0-3.1,0-3.09-3.19-3.09H514.38c-2.16,0-2,.11-2-2s0-4.41,0-6.61c0-1.64,0-1.64,1.75-1.67h93.6c2.85,0,2.52-.34,2.54,2.52,0,2.07,0,4.13,0,6.2,0,1.53,0,1.53-1.63,1.56H568.73c-1.76,0-1.78,0-1.78,1.83Z"/><path class="cls-2" d="M587.58,171.23c-5.46,7.94-12.15,14-20.75,17.81-1,.45-2.07.74-3.08,1.18-2.93,1.27-5.65.58-8.29-.87-1.47-.8-1.57-2.14-.06-2.77,6.23-2.61,10.69-7.43,15.34-12a16.11,16.11,0,0,0,3.62-5,5.39,5.39,0,0,0-.5-5.67,3,3,0,0,0-2.7-1.53,4.31,4.31,0,0,1-3.74-1.85,2.65,2.65,0,0,0-1.63-1.12,32,32,0,0,0-15.74-.26,11.72,11.72,0,0,0-7.6,5.25,11.68,11.68,0,0,1-3.17,3.51,5.49,5.49,0,0,1-5.83.76c-2.62-1.21-5.35-2.2-7.85-3.65-1.55-.9-2.73-2.1-2.72-4.08a3.89,3.89,0,0,1,1.46-3,25.18,25.18,0,0,1,10.82-5.33A74,74,0,0,1,547,150.92a89.5,89.5,0,0,1,15.27-.13c.58.05,1.23.26,1.54-.59a1.53,1.53,0,0,0-.53-1.83c-.51-.46-1-.93-1.56-1.35a128.68,128.68,0,0,1-10.62-9.18c-1.5-1.42-3.09-2.74-4.62-4.13a7,7,0,0,1-2.53-3.78,3,3,0,0,1,2.18.07,15.24,15.24,0,0,1,5.29,2.73,40.78,40.78,0,0,1,5.59,5.48c2.14,2.44,4.17,5,6.52,7.2a8.34,8.34,0,0,0,2.27,1.83,21.31,21.31,0,0,0,2.54-4.26,97,97,0,0,1,7.2-11.56c1.73-2.53,3.57-3,6.54-1.2a9.5,9.5,0,0,1,1.16.84c3.3,2.74,3.38,3.29.57,6.52-1.86,2.12-3.85,4.13-5.78,6.18a43.3,43.3,0,0,0-4.75,5.72,6.23,6.23,0,0,0-1.07,2.07c2.81.45,5.61.58,8.15,1.54,3.93,1.48,7.87,1.44,12,1.2,5-.3,10-.17,15.07-.48a17.46,17.46,0,0,0,4.47-.72,31.41,31.41,0,0,1,6.11-.91,16.58,16.58,0,0,0,9.57-3.94,1.06,1.06,0,0,1,1.72,0c1.23,1.16,2.59,2.41,2.06,4.21-.46,1.59-2.1,2.16-3.64,2.28-6,.47-11.81,1.94-17.74,2.73-4.36.57-8.73,1.16-13.09,1.8a53.28,53.28,0,0,1-5.36.26l-1.46.09c-.12,1.87.22,3.67-.33,5.4-.25.79.35,1.12.85,1.46q3,2.06,6,4.07a65.8,65.8,0,0,1,9.22,7,29.83,29.83,0,0,1,5.29,6.52,1.06,1.06,0,0,1-1.09.53c-1.72-.06-3.44-.16-5.15-.26a3.07,3.07,0,0,1-2.29-1.25c-2.74-3.49-6.42-5.78-10.2-7.94a12,12,0,0,1-2.62-2C589.06,172.52,588.38,172,587.58,171.23Z"/><path class="cls-1" d="M482.76,229.55c3.05-2.45,5.85-4.67,8.62-6.92a446.06,446.06,0,0,0,41-37.77,80.82,80.82,0,0,1,10.73-9.34,23.86,23.86,0,0,1,2.82-1.72,1.92,1.92,0,0,1,1.77-.3,9.48,9.48,0,0,0,4.25.53c1.14,0,1.36.42.71,1.37a16,16,0,0,1-1.59,1.9c-7,7.57-14.41,14.78-21.86,21.93-11.62,11.17-23.7,21.82-36.1,32.11-1.41,1.17-2.53,1.67-4.31.66A47.12,47.12,0,0,0,482.76,229.55Z"/><path class="cls-3" d="M313.88,416.07a3.34,3.34,0,0,0-.31,2.14c0,3.51,0,7,0,10.54,0,1.33-.33,1.56-1.56,1.42-.61-.08-.86-.36-.85-.94,0-.21,0-.41,0-.62,0-5,0-9.92,0-14.87,0-1.57,0-1.51,1.6-1.62a2.49,2.49,0,0,1,2.84,1.66c2.13,4.6,4.48,9.1,6.76,13.66.82-.45.95-1.26,1.27-1.91,2-4,3.95-8,5.94-12,.26-.52.34-1.29,1.11-1.33a9.52,9.52,0,0,1,2.67.07c.65.15.38.94.38,1.45,0,4.48,0,9,0,13.43,0,.62,0,1.25,0,1.86.08.93-.36,1.19-1.21,1.19s-1.23-.31-1.22-1.22c0-3.58,0-7.16,0-10.74V416c-.77,0-.78.59-1,1-2,4-4,8-6.05,12a2.1,2.1,0,0,1-2.65,1.24c-.76-.17-.88-.82-1.15-1.34-1.83-3.63-3.62-7.27-5.45-10.89A4.76,4.76,0,0,0,313.88,416.07Z"/><path class="cls-4" d="M349.28,391.93a4.07,4.07,0,0,0,1.06-1.75c2-4,4-8,5.94-12,.27-.53.37-1.31,1.08-1.39a17,17,0,0,1,2.67,0c.3,0,.45.28.48.58s0,.55,0,.82c0,5,0,10.05,0,15.07,0,1.41-.11,1.45-1.31,1.47-.78,0-1.12-.24-1.1-1.06,0-1.93,0-3.85,0-5.78v-7.45c-.8,0-.82.68-1,1.11-2,4-4,8-6,12a1.8,1.8,0,0,1-1.85,1.25,1.83,1.83,0,0,1-1.87-1.19c-1.87-3.83-3.8-7.63-5.71-11.43a4.7,4.7,0,0,0-1.31-1.72v1.5c0,3.85,0,7.7,0,11.55,0,1-.36,1.29-1.32,1.28s-1.18-.36-1.16-1.23c0-2.54,0-5.09,0-7.63s0-4.82,0-7.23c0-.66-.47-1.59.61-1.91a3,3,0,0,1,3.54,1.1c2.07,4.12,4.1,8.24,6.17,12.35A4.37,4.37,0,0,0,349.28,391.93Z"/><path class="cls-5" d="M503.47,392.3c1.24-2.49,2.32-4.63,3.38-6.77,1.22-2.47,2.41-4.94,3.64-7.4.26-.54.37-1.3,1.11-1.36a12.55,12.55,0,0,1,2.67.06c.51.07.44.62.44,1v15.49c0,.7.08,1.39-1,1.4-1.23,0-1.4-.05-1.4-1.37,0-3.65,0-7.3,0-10.95v-2.18a2.83,2.83,0,0,0-1.19,1.59c-2,3.86-3.92,7.72-5.81,11.61a2,2,0,0,1-2,1.33c-1.07,0-1.41-.55-1.8-1.32-1.86-3.76-3.75-7.51-5.64-11.26a4.51,4.51,0,0,0-1.3-1.94v2.15c0,3.65,0,7.3,0,10.95,0,1.36-.13,1.4-1.38,1.39-.84,0-1.07-.39-1.05-1.14,0-1.1,0-2.2,0-3.31,0-4,0-8,0-12,0-1.57,0-1.5,1.62-1.63a2.52,2.52,0,0,1,2.85,1.69C498.74,382.92,501,387.39,503.47,392.3Z"/><path class="cls-6" d="M242.78,462v-7.15c0-2.07,0-4.13,0-6.2,0-.88.43-1,1.15-1s1.36-.07,1.35,1q0,7.95,0,15.9c0,.84-.36,1-1.11,1.07a3.27,3.27,0,0,1-3-1.28c-3.45-4-7-8-10.51-11.92-.37-.41-.63-1.27-1.4-.92s-.39,1.09-.39,1.67c0,3.64,0,7.29,0,10.94,0,1.42-.37,1.71-1.66,1.48-.47-.08-.75-.28-.74-.79,0-.35,0-.69,0-1,0-4.75,0-9.49,0-14.24,0-.62-.41-1.61.5-1.77s2.06-.49,2.91.42c.28.3.54.62.82.92q5.22,5.86,10.45,11.71c.41.45.84.89,1.26,1.34Z"/><path class="cls-7" d="M393.54,380.1v10.07c0,1.1-.05,2.2,0,3.3s-.36,1.29-1.33,1.29-1.06-.56-1.06-1.31c0-5,0-9.91,0-14.87,0-.61-.43-1.56.49-1.77a2.89,2.89,0,0,1,2.75.34,12.34,12.34,0,0,1,1,1.08q5.37,6,10.74,12c.29.33.48.82,1.19.85a5.5,5.5,0,0,0,.13-2c0-3.71,0-7.43,0-11.14,0-1,.45-1.29,1.37-1.27s1.1.32,1.07,1.11c0,1.45,0,2.89,0,4.34,0,3.58,0,7.15,0,10.73,0,.62.43,1.61-.45,1.78s-2.06.48-2.89-.49c-.26-.31-.54-.61-.81-.92l-11.08-12.53-.68-.72Z"/><path class="cls-5" d="M561.52,391a5.79,5.79,0,0,0,.11-1.95c0-3.65,0-7.3,0-10.95,0-1.32.19-1.41,1.4-1.42.81,0,1.08.32,1.07,1.11q0,7.95,0,15.9c0,.81-.32,1-1.11,1.05a3.16,3.16,0,0,1-2.83-1.22c-3.51-4.07-7.1-8.06-10.66-12.08-.45-.5-.91-1-1.46-1.58a2.47,2.47,0,0,0-.26,1.64c0,3.93,0,7.85,0,11.78,0,1.38-.11,1.43-1.34,1.45-.78,0-1.12-.25-1.09-1.07,0-1.17,0-2.34,0-3.51,0-3.86,0-7.71,0-11.57,0-.62-.42-1.56.49-1.78a3,3,0,0,1,2.76.3,10.71,10.71,0,0,1,1.11,1.22q5.37,6,10.73,12C560.7,390.64,560.88,391.06,561.52,391Z"/><path class="cls-8" d="M446.88,426.77a3.48,3.48,0,0,0,.34-2.22c0-3.65,0-7.3,0-10.95,0-1.41.37-1.67,1.72-1.45.39.06.64.2.66.61s0,.82,0,1.24c0,4.75,0,9.5,0,14.25,0,.63.42,1.6-.48,1.79s-2.06.48-2.9-.45l-.82-.93-10.27-11.61c-.49-.55-1-1.07-1.54-1.65-.5.55-.29,1.12-.29,1.63,0,3.92,0,7.85,0,11.78,0,.94-.21,1.4-1.25,1.36-.85,0-1.26-.26-1.22-1.19.06-1.24,0-2.48,0-3.72,0-3.92,0-7.85,0-11.78,0-.91.16-1.38,1.23-1.36a3.21,3.21,0,0,1,2.68,1.13c3.43,3.95,7,7.83,10.44,11.73C445.72,425.54,446.24,426.08,446.88,426.77Z"/><path class="cls-9" d="M459.8,392.14c-4.1,3.42-8.55,3.67-13.18,2.17a9,9,0,0,1-.37-17,14,14,0,0,1,11.79.47,6.43,6.43,0,0,1,3.49,3.87c-1.87.54-1.86.53-2.83-.81a6.4,6.4,0,0,0-1.09-1.23c-3.23-2.67-9.7-2.36-12.59.66-2.27,2.38-2.6,5.25-1.69,8.27s3.07,4.33,5.89,4.82a11.56,11.56,0,0,0,5.92-.33,6.58,6.58,0,0,0,4.49-4.73c.23-.87,0-1.31-.94-1.29-1.86,0-3.72,0-5.58,0-.52,0-1.14.13-1.15-.75s.58-.78,1.13-.78c2.62,0,5.24,0,7.85,0,.81,0,1.09.29,1.08,1.08,0,2.41,0,4.82,0,7.23,0,.4.05.85-.54.94a.88.88,0,0,1-1.1-.66A5.41,5.41,0,0,0,459.8,392.14Z"/><path class="cls-6" d="M434.58,458h-7c-.47,0-.78-.16-.8-.7s.16-.92.79-.92h9.24v8.37c0,.45-.09.82-.64.86a.88.88,0,0,1-1-.57c-.23-.57-.06-1.25-.56-1.82-.05-.07-.17-.08-.31,0-3.71,3.23-8,3.34-12.44,2.13a8.78,8.78,0,0,1-6.68-8.45,8.88,8.88,0,0,1,6.36-8.89,14.13,14.13,0,0,1,10.85.46,6.36,6.36,0,0,1,3.92,4.22c-1.86.4-1.86.4-2.82-1a6,6,0,0,0-1.78-1.69c-3-1.85-8.16-1.71-11,.37s-3.41,4.73-2.9,7.87a6.83,6.83,0,0,0,5.6,5.88,11.05,11.05,0,0,0,6.89-.37A6.47,6.47,0,0,0,434.58,458Z"/><path class="cls-6" d="M272.31,421.23c2.4,1.22,2.95,3.1,2.93,5.28a12.33,12.33,0,0,0,.62,3.43,2.8,2.8,0,0,1-.66.2c-1.85.09-2,0-2.23-1.82-.14-.95-.24-1.91-.42-2.85a3.54,3.54,0,0,0-3.13-3.11c-2.73-.43-5.49-.12-8.23-.18-.71,0-.68.55-.68,1,0,1.86,0,3.72,0,5.57a1.36,1.36,0,0,1-2,1.33c-.5-.21-.43-.64-.43-1,0-1.65,0-3.3,0-4.95,0-3.51,0-7,0-10.52,0-1.41,0-1.43,1.49-1.44,2.89,0,5.78,0,8.67,0a11.27,11.27,0,0,1,4.63.85,4,4,0,0,1,2.71,3.56,3.87,3.87,0,0,1-2.16,4.09Zm-7.23-.55c1.1,0,2.2,0,3.3,0a5.84,5.84,0,0,0,3.5-1.05,3.12,3.12,0,0,0-.51-5.3,4.71,4.71,0,0,0-1.77-.5c-2.76-.06-5.51,0-8.26-.06-.63,0-.85.28-.84.87,0,1.65,0,3.31,0,5,0,.77.25,1.14,1.08,1.1C262.73,420.65,263.91,420.68,265.08,420.68Z"/><path class="cls-7" d="M470.75,393.13h11.39c.69,0,1.37,0,2.06,0s1.11.08,1.08.87-.45.76-1,.75c-.34,0-.69,0-1,0H469.85c-1.45,0-1.48,0-1.48-1.46q0-7.54,0-15.07c0-1.45,0-1.48,1.49-1.48,4.54,0,9.08,0,13.62,0h.62c.54,0,.92.14.94.8s-.37.8-.91.79h-2.69c-3,0-6.05,0-9.08,0-1.55,0-1.56,0-1.59,1.62,0,1,0,2.07,0,3.1,0,1.51,0,1.53,1.65,1.54h9.91a8.58,8.58,0,0,1,1.43.08c.41.08.42.48.42.83s-.09.7-.51.74a14,14,0,0,1-1.45,0c-3.3,0-6.6,0-9.9,0-1.5,0-1.53.05-1.55,1.47C470.73,389.45,470.75,391.17,470.75,393.13Z"/><path class="cls-10" d="M524,393.12h13.85c.57,0,.66.38.66.82s-.14.82-.7.79H523.12c-1.55,0-1.58,0-1.58-1.62q0-7.42,0-14.86c0-1.5,0-1.54,1.46-1.55,4.61,0,9.22,0,13.82,0,.28,0,.55,0,.83,0,.52,0,.68.35.68.83s-.24.74-.75.74h-4.33c-2.62,0-5.23,0-7.84,0-1,0-1.54.26-1.47,1.39a25.55,25.55,0,0,1,0,3.5c-.07,1.11.4,1.4,1.43,1.39,3.3,0,6.6,0,9.9,0,.48,0,1,0,1.45,0s.66.41.66.86-.21.79-.72.81-1,0-1.44,0c-3.24,0-6.47,0-9.7,0-1.51,0-1.53.05-1.55,1.46C523.94,389.46,524,391.17,524,393.12Z"/><path class="cls-10" d="M369.79,393.12h6.06c2.48,0,5,0,7.43,0,.66,0,1.06.14,1,.9s-.45.73-1,.73c-4.95,0-9.91,0-14.86,0-1.2,0-1.11-.72-1.11-1.5q0-6.28,0-12.58c0-1,0-1.93,0-2.89,0-.8.35-1.1,1.12-1.09h14.65c.62,0,1.07.14,1,.92s-.53.68-1,.68H372.2l-1.65,0a.72.72,0,0,0-.75.79c0,.2,0,.41,0,.61l.09,4.54c1.46.6,3,.22,4.47.27,2.27.07,4.54,0,6.81,0h1.23c.62,0,.84.38.81.95a.7.7,0,0,1-.78.76h-2.88c-2.82,0-5.65,0-8.47,0-1,0-1.34.33-1.3,1.32C369.83,389.38,369.79,391.16,369.79,393.12Z"/><path class="cls-7" d="M189.62,393.13H203.2c.52,0,1,.06,1,.72s-.43.89-1.06.89H187.57a2.17,2.17,0,0,1-.28-1.34c0-5,0-10.05,0-15.07,0-1.57,0-1.6,1.58-1.6,4.48,0,8.95,0,13.43,0a6.36,6.36,0,0,1,1.23.08c.41.08.45.44.44.8s-.13.67-.57.69l-1.44,0c-3.58,0-7.16,0-10.74,0-1.55,0-1.62,0-1.58,1.63s-.67,3.36.35,4.34,2.76.26,4.19.28c2.34,0,4.69,0,7,0l1.23,0c.53,0,.66.39.67.85s-.17.79-.69.81l-1.45,0c-3.3,0-6.61,0-9.91,0-1,0-1.51.29-1.46,1.4C189.68,389.37,189.62,391.09,189.62,393.13Z"/><path class="cls-5" d="M351.86,411.71a14.73,14.73,0,0,1,7,2,8.7,8.7,0,0,1-.43,15.15A13.75,13.75,0,0,1,345,429a8.64,8.64,0,0,1-.6-15.11A14.82,14.82,0,0,1,351.86,411.71Zm8.87,9.2a6.82,6.82,0,0,0-3.06-5.76,11.07,11.07,0,0,0-11.69-.08,7.3,7.3,0,0,0,.75,12.69,11,11,0,0,0,9.19.38A7.5,7.5,0,0,0,360.73,420.91Z"/><path class="cls-5" d="M132.21,395.16a14.26,14.26,0,0,1-6.76-1.68,8.65,8.65,0,0,1-.66-14.9,14,14,0,0,1,14.67-.32,8.77,8.77,0,0,1-.33,15.19A15,15,0,0,1,132.21,395.16Zm0-1.66a11.2,11.2,0,0,0,5.29-1.31c4.78-2.69,5.21-9.67.66-12.53a10.39,10.39,0,0,0-11.14-.32,7.35,7.35,0,0,0,.74,13.18A13,13,0,0,0,132.24,393.5Z"/><path class="cls-4" d="M208.72,466a13.86,13.86,0,0,1-6.75-1.49,8.64,8.64,0,0,1-.6-15.21,13.32,13.32,0,0,1,13.95-.38,8.24,8.24,0,0,1,4.63,7.74,8.6,8.6,0,0,1-5,7.94A14.21,14.21,0,0,1,208.72,466Zm0-17.15a10,10,0,0,0-6.35,2,7.24,7.24,0,0,0,.4,11.8,10.49,10.49,0,0,0,11.33.2,7,7,0,0,0,3.51-7,6.8,6.8,0,0,0-4.3-6A11,11,0,0,0,208.7,448.88Z"/><path class="cls-9" d="M477.81,421.16c0-2.55.05-5.1,0-7.65,0-1.08.33-1.44,1.42-1.38,3.43.16,6.88-.22,10.31.3,5.29.8,8.84,4.71,7.3,11.36-.86,3.71-3.64,5.52-7.26,6.12-2.87.48-5.77.2-8.66.24-3.1,0-3.1,0-3.1-3Zm2.32,0c0,2.14,0,4.27,0,6.4,0,.64.15,1.07.91,1,2.67-.09,5.37.29,8-.23,3.69-.74,5.59-3.27,5.61-7.29s-1.77-6.12-5.61-7c-2.53-.56-5.08-.25-7.61-.39-1.17-.06-1.36.48-1.33,1.47C480.16,417.2,480.12,419.2,480.13,421.19Z"/><path class="cls-4" d="M293.13,430.63a14.32,14.32,0,0,1-7.08-1.92,8.64,8.64,0,0,1-.58-14.46,13.87,13.87,0,0,1,15.35-.28,8.74,8.74,0,0,1-.21,14.63A14.61,14.61,0,0,1,293.13,430.63Zm.24-1.67a11.83,11.83,0,0,0,5-1.21,7.45,7.45,0,0,0,1.32-12.3,10.92,10.92,0,0,0-12.7.05,7.3,7.3,0,0,0,.9,12A12.23,12.23,0,0,0,293.37,429Z"/><path class="cls-4" d="M528.05,466a14.08,14.08,0,0,1-6.66-1.43,8.63,8.63,0,0,1-.64-15.3,13.26,13.26,0,0,1,13.94-.31,8.21,8.21,0,0,1,4.54,7.78,8.59,8.59,0,0,1-4.88,7.81A13.5,13.5,0,0,1,528.05,466Zm-.18-1.66a10.58,10.58,0,0,0,5.34-1.31c4.84-2.84,5.06-9.84.31-12.64a10.43,10.43,0,0,0-10.8-.2,7.35,7.35,0,0,0,.75,13.28A12.53,12.53,0,0,0,527.87,464.37Z"/><path class="cls-6" d="M276.22,385.62c0-2.55,0-5.1,0-7.64,0-.81.12-1.31,1.1-1.27,3.51.12,7-.24,10.52.26a8.58,8.58,0,0,1,6.38,3.73,8.94,8.94,0,0,1-5.61,13.62,16.81,16.81,0,0,1-3.68.42q-3.82,0-7.64,0c-.81,0-1.08-.29-1.07-1.07C276.24,391,276.22,388.3,276.22,385.62Zm2.25.08c0,2.06,0,4.13,0,6.19,0,.82.15,1.29,1.12,1.26,2.27-.06,4.55.05,6.81-.07,4-.23,6.35-2.8,6.63-7s-1.76-6.64-5.83-7.44a47.22,47.22,0,0,0-7.61-.37c-1,0-1.13.47-1.12,1.27C278.49,381.57,278.47,383.63,278.47,385.7Z"/><path class="cls-5" d="M412.89,430.64a14.84,14.84,0,0,1-6.92-1.81,8.63,8.63,0,0,1-.62-14.68,13.87,13.87,0,0,1,14.83-.43A8.75,8.75,0,0,1,420,428.8,15.15,15.15,0,0,1,412.89,430.64Zm0-17.27a11.13,11.13,0,0,0-6,2,7.33,7.33,0,0,0,.11,11.84,11.2,11.2,0,0,0,11.53.28,7.3,7.3,0,0,0,3.5-6.81,6.81,6.81,0,0,0-4.18-6.13A13.81,13.81,0,0,0,412.93,413.37Z"/><path class="cls-4" d="M287.45,465.62v-9.89c0-2.27,0-4.53,0-6.8,0-1,.34-1.29,1.31-1.28,3,.05,5.91,0,8.86.05a12.54,12.54,0,0,1,3,.5c4.12,1.16,6.37,4.39,6.21,8.82a8.25,8.25,0,0,1-7.18,8.29C295.67,466,291.61,465.54,287.45,465.62Zm2.4-9.07c0,2.13,0,4.26,0,6.39,0,.66,0,1.23.95,1.2,2.6-.09,5.22.2,7.81-.28,3.57-.66,5.58-3.1,5.72-7s-1.58-6.28-5.29-7.22c-2.64-.67-5.33-.3-8-.45-1.09-.06-1.23.46-1.2,1.35C289.88,452.56,289.85,454.56,289.85,456.55Z"/><path class="cls-5" d="M164.71,421.17c0-2.62,0-5.23,0-7.85,0-.69.06-1.21,1-1.18,3.63.13,7.29-.3,10.91.32,6.23,1.06,9.29,6.76,6.76,12.58-1.27,2.94-3.71,4.29-6.7,4.86a38.18,38.18,0,0,1-6.59.26h-3.51c-1.82,0-1.83,0-1.84-1.77C164.7,426,164.71,423.57,164.71,421.17Zm2.43,0v6.39c0,.57,0,1.13.81,1.1,2.67-.1,5.37.28,8-.23,3.67-.72,5.63-3.29,5.66-7.24s-1.78-6.16-5.57-7c-2.65-.6-5.33-.29-8-.39-.76,0-.92.34-.92,1C167.15,416.88,167.14,419,167.14,421.14Z"/><path class="cls-5" d="M315.71,449.45v5.89a5.61,5.61,0,0,0,2.13.18c3,0,6.06,0,9.08,0,.74,0,2.07-.68,2.13.75s-1.31.82-2,.85c-2.34.1-4.69,0-7,0-1.41,0-3.24-.62-4.14.34s-.22,2.64-.22,4c0,2.83-.28,2.56,2.51,2.57h11.36c.42,0,.61.23.63.64s-.11.81-.65.83H314.82c-1.57,0-1.59,0-1.6-1.6q0-7.44,0-14.87c0-1.44,0-1.47,1.51-1.48h13.84c.28,0,.55,0,.83,0s.57.3.58.69,0,.85-.6.87-1,0-1.45,0H317.82A6.36,6.36,0,0,0,315.71,449.45Z"/><path class="cls-10" d="M99.55,413.8v6c1.74.59,3.52.2,5.28.26,2,.07,4,0,6,0h1c.67,0,1,.22,1,.94s-.49.73-1,.72h-5.38c-1.92,0-3.85,0-5.78,0-.84,0-1.28.24-1.26,1.16,0,1.85,0,3.71,0,5.54a8.31,8.31,0,0,0,3,.21c3.38,0,6.75,0,10.13,0,.52,0,1.36-.34,1.39.69s-.86.79-1.48.85c-.27,0-.55,0-.83,0h-8.47c-1.58,0-3.17-.05-4.75,0-1.08,0-1.43-.37-1.42-1.44,0-5.09,0-10.19,0-15.29,0-.93.24-1.35,1.27-1.34,4.75,0,9.51,0,14.26,0H113c.63,0,.83.35.81.93s-.32.72-.79.72c-.89,0-1.79,0-2.69,0Z"/><path class="cls-3" d="M190.54,421.18c0-2.55,0-5.09,0-7.64,0-1,.27-1.44,1.39-1.42,4.68.06,9.36,0,14,0l.62,0c.53,0,.68.34.68.81s-.16.8-.68.81l-1.45,0H194.59c-1.64,0-1.64,0-1.66,1.72,0,.76,0,1.51,0,2.27,0,2.45-.33,2.24,2.15,2.25,3.17,0,6.34,0,9.5,0,.66,0,1.71-.43,1.74.8s-1,.8-1.68.81c-3.37.05-6.74,0-10.12,0-1.55,0-1.56,0-1.59,1.63,0,1.31,0,2.62,0,3.92-.07,1.1.35,1.41,1.42,1.4,3.65-.06,7.29,0,10.94,0h1.45c.53,0,.73.3.71.78a.69.69,0,0,1-.78.75c-.27,0-.55,0-.82,0H192.2c-1.64,0-1.65,0-1.66-1.75C190.53,426,190.54,423.59,190.54,421.18Z"/><path class="cls-4" d="M114.26,451.49c-1.21.45-2.18.81-2.85-.64a2.93,2.93,0,0,0-1.76-1.36,11.12,11.12,0,0,0-7.67-.11,3,3,0,0,0-2.16,2.95c.07,1.19.79,2,2.44,2.42,2,.48,4,.78,6.06,1.17a15.38,15.38,0,0,1,4.67,1.55c2.82,1.6,3,4.5.52,6.55a6.86,6.86,0,0,1-2.35,1.26,17.48,17.48,0,0,1-10.35,0,5.3,5.3,0,0,1-4.16-5c1.92-.38,1.95-.4,2.52,1.14a4.18,4.18,0,0,0,3.21,2.63,15,15,0,0,0,7.35,0,5.14,5.14,0,0,0,2-1,2.45,2.45,0,0,0-.21-4.16,10.41,10.41,0,0,0-3.88-1.29c-1.89-.37-3.79-.65-5.67-1.05a9.56,9.56,0,0,1-2.33-.79,3.83,3.83,0,0,1-.86-6.59,8,8,0,0,1,4.53-1.81,14.15,14.15,0,0,1,7.87.95A5.25,5.25,0,0,1,114.26,451.49Z"/><path class="cls-5" d="M114.22,380.43c-1.75.7-1.76.7-2.82-.58a4.37,4.37,0,0,0-1.82-1.3,10.73,10.73,0,0,0-7.47-.15,3.63,3.63,0,0,0-1.39.85,2.53,2.53,0,0,0,.64,4.27,13,13,0,0,0,3.79.9A30.58,30.58,0,0,1,112,386c1.63.69,3.18,1.54,3.27,3.58s-1.21,3.5-3,4.27a15.62,15.62,0,0,1-12.43.06,4.82,4.82,0,0,1-3-3.68c-.09-.45-.37-1.06.35-1.15s1.59-.48,1.79.42c.76,3.59,3.58,3.75,6.36,4a12.9,12.9,0,0,0,4.5-.43,5.25,5.25,0,0,0,2-1,2.42,2.42,0,0,0-.14-4,7,7,0,0,0-2.85-1.12c-2.16-.43-4.33-.82-6.49-1.22a10,10,0,0,1-2.73-.89,3.83,3.83,0,0,1-1-6.35,6,6,0,0,1,2.65-1.53,14.81,14.81,0,0,1,9.33.16A5.5,5.5,0,0,1,114.22,380.43Z"/><path class="cls-10" d="M233.68,385.78c0-2.55,0-5.1,0-7.64,0-1.05.26-1.47,1.38-1.46,4.68.05,9.36,0,14,0h.2c.65-.05,1.07.13,1.05.9s-.49.7-1,.7H237.16c-.61,0-1.09.11-1.08.86,0,1.52,0,3,0,4.55,0,1,.69.84,1.29.84h8.47c.68,0,1.38,0,2.06,0s1.49-.31,1.53.82-.84.87-1.45.87c-3.17,0-6.33,0-9.5,0-.48,0-1,0-1.44,0-.72,0-1,.31-1,1,0,1.59.06,3.17,0,4.75-.05,1,.43,1.12,1.24,1.11,3.58,0,7.16,0,10.74,0h1.44c.54,0,1.13-.09,1.17.76s-.47.87-1.06.86H235.33c-1.63,0-1.64,0-1.65-1.74C233.67,390.6,233.68,388.19,233.68,385.78Z"/><path class="cls-9" d="M446.17,455.45c4.4,0,8.59,0,12.78,0,.82,0,1.09-.37,1.09-1.12,0-1.58,0-3.17,0-4.75,0-2,0-2,2.38-1.71v1.61c0,5,0,9.91,0,14.87,0,.8-.1,1.29-1.09,1.29s-1.35-.27-1.32-1.29c.07-2,0-4,0-6,0-.92-.19-1.38-1.25-1.37-3.85.06-7.71,0-11.56,0-.77,0-1.11.24-1.09,1.07.05,2.13,0,4.26,0,6.4,0,.95-.4,1.15-1.23,1.14s-1.26-.15-1.25-1.13q.06-7.85,0-15.69c0-.94.38-1.17,1.23-1.16s1.27.17,1.25,1.13C446.13,450.91,446.17,453,446.17,455.45Z"/><path class="cls-4" d="M497.31,463.66a3.6,3.6,0,0,0,2,.19c3.65,0,7.3,0,11,0a9.86,9.86,0,0,1,1.44.05c.52.08.56.52.55.95s-.16.68-.57.72-.82,0-1.23,0c-5,0-10.05,0-15.08,0-.56,0-1.35.38-1.64-.41s.16-1.39.76-2c3.55-3.36,7.06-6.76,10.58-10.15,1.12-1.08,2.21-2.18,3.45-3.41a4.81,4.81,0,0,0-2.24-.28H497c-.42,0-.83,0-1.24,0-.66,0-1.06-.15-1-.91s.37-.83.93-.81h.83c4.61,0,9.22,0,13.84,0,.54,0,1.32-.39,1.61.41a1.78,1.78,0,0,1-.71,2c-2.51,2.35-5,4.75-7.47,7.12-1.79,1.72-3.6,3.41-5.37,5.14C498,462.71,497.44,463,497.31,463.66Z"/><path class="cls-7" d="M506.15,421.9c-.25,1.81,0,3.67-.13,5.52-.07,1.08.45,1.23,1.36,1.22,3.72,0,7.44,0,11.16,0,.48,0,1,0,1.44,0s.56.31.56.69-.11.7-.52.76a10.2,10.2,0,0,1-1.24.05H505.35c-1.72,0-1.75,0-1.75-1.65q0-7.44,0-14.88c0-1.45,0-1.48,1.48-1.48,4.62,0,9.23,0,13.85,0h.62c.54,0,.71.28.73.76s-.15.91-.8.9h-6.82c-1.79,0-3.58.05-5.37,0-1,0-1.32.35-1.27,1.31a33,33,0,0,1,0,3.72c-.07,1,.37,1.26,1.31,1.25,3.45-.05,6.89,0,10.34,0,.62,0,1.68-.54,1.72.78s-1,.81-1.65.82c-3.31.05-6.62,0-9.92,0A3.16,3.16,0,0,0,506.15,421.9Z"/><path class="cls-3" d="M545.75,447.93a1.89,1.89,0,0,1,1.07-.27c1.13-.16,1.41.38,1.39,1.42-.05,3.23,0,6.46,0,9.7,0,3.4,1.49,5,4.87,5.47a13.81,13.81,0,0,0,4.11,0c3.05-.48,4.62-2.24,4.65-5.31,0-3.37,0-6.74,0-10.11,0-.73.12-1.15,1-1.14,1.25,0,1.4.06,1.41,1.38,0,3.37,0,6.74,0,10.12a5.75,5.75,0,0,1-3.2,5.39,12.92,12.92,0,0,1-12.28.08,5,5,0,0,1-3-4.39C545.69,456.1,545.75,452,545.75,447.93Z"/><path class="cls-5" d="M170.13,381.78c-1.4.34-2.36.26-2.92-1.06a3.4,3.4,0,0,0-1.78-1.66,10.25,10.25,0,0,0-10.6.57c-2.62,1.75-3.23,4.52-2.8,7.5a6.64,6.64,0,0,0,4.9,5.79,11,11,0,0,0,6.51.14,6.36,6.36,0,0,0,4.18-3.41c.78-1.64.8-1.63,2.77-1.26a7.6,7.6,0,0,1-5,5.83,13.54,13.54,0,0,1-10.65-.24,9.06,9.06,0,0,1-.19-16.4,13.51,13.51,0,0,1,11.41-.16A6.71,6.71,0,0,1,170.13,381.78Z"/><path class="cls-5" d="M390.52,465.48c.56-1.09,1-2,1.47-2.89,2.35-4.58,4.72-9.15,7.05-13.74a1.86,1.86,0,0,1,1.87-1.22,1.83,1.83,0,0,1,1.86,1.23c2.71,5.46,5.47,10.91,8.21,16.37-2.05.73-2.33.63-3.2-1.06-.65-1.28-.91-3-2-3.74s-2.93-.23-4.42-.28-2.89,0-4.33,0a1.68,1.68,0,0,0-1.89,1.2c-.37.88-.87,1.71-1.3,2.57C392.9,465.65,392.91,465.66,390.52,465.48Zm6-7H405l-4.14-8.65Z"/><path class="cls-3" d="M488.88,465.35c-2.42.48-2.4.46-3.32-1.32-.66-1.27-.87-3-2.08-3.68s-2.83-.17-4.26-.21-3,0-4.54,0a1.49,1.49,0,0,0-1.6,1c-.47,1-1,2-1.49,2.94-.87,1.71-.87,1.71-3.16,1.34.29-.57.54-1.1.81-1.63q3.83-7.41,7.62-14.83c.4-.79.8-1.32,1.84-1.29a1.87,1.87,0,0,1,1.89,1.19c2.06,4.18,4.18,8.34,6.28,12.51C487.53,462.66,488.19,464,488.88,465.35Zm-10.22-15.56c-1.51,3-2.87,5.75-4.27,8.56a25.31,25.31,0,0,0,8.27-.18Z"/><path class="cls-5" d="M160.71,465.38c-2.5.4-2.49.39-3.4-1.42-.61-1.22-.86-2.84-1.95-3.55s-2.8-.22-4.22-.26-2.89.06-4.33,0a1.93,1.93,0,0,0-2.19,1.4c-.33.82-.77,1.6-1.17,2.4-.88,1.76-.89,1.76-3,1.61-.4-.54.11-.9.3-1.28q3.89-7.61,7.81-15.18c.37-.72.63-1.48,1.75-1.42a2,2,0,0,1,2.07,1.21c1.84,3.84,3.79,7.61,5.7,11.41C158.94,461.91,159.78,463.55,160.71,465.38Zm-6.13-6.93-4.11-8.61c-.87,1.68-1.61,3-2.24,4.37s-1.62,2.63-1.8,4.24Z"/><path class="cls-3" d="M332,394.56c-2.43.3-2.41.29-3.39-1.62-.63-1.2-.85-2.84-2-3.5s-2.7-.16-4.07-.19-3,.06-4.53,0a1.82,1.82,0,0,0-2,1.3c-.34.83-.79,1.61-1.19,2.4-.94,1.88-.94,1.88-3.12,1.69a2,2,0,0,1,.42-1.31c2.61-5.06,5.25-10.12,7.84-15.2.43-.84.84-1.42,2-1.43s1.52.65,1.94,1.48c2.55,5.1,5.12,10.18,7.69,15.28C331.72,393.78,331.85,394.17,332,394.56Zm-10.21-15.7c-1.57,3.13-2.92,5.84-4.38,8.74H326C324.6,384.74,323.31,382,321.8,378.86Z"/><path class="cls-7" d="M436.13,394.57c-2.32.29-2.28.27-3.28-1.64-.64-1.2-.82-2.83-2-3.49s-2.56-.17-3.86-.19c-1.58,0-3.16.06-4.74,0a1.85,1.85,0,0,0-2,1.31c-.37.88-.85,1.72-1.29,2.58-.88,1.71-.89,1.71-3,1.47a1.35,1.35,0,0,1,.22-1c2.71-5.24,5.44-10.47,8.08-15.74a2,2,0,0,1,2.32-1.17,1.22,1.22,0,0,1,1.13.72l8.43,16.94C436.16,394.42,436.13,394.5,436.13,394.57ZM426,378.87c-1.56,3.08-2.92,5.8-4.36,8.66h8.48Z"/><path class="cls-6" d="M568.48,429.94c-.15-.37.07-.65.22-.95q4-7.8,8-15.59c.35-.67.61-1.3,1.61-1.29a2,2,0,0,1,2.09,1.22c2.07,4.27,4.23,8.49,6.35,12.73l1.85,3.68c-2,.76-2.27.64-3.19-1.09-.66-1.27-.9-3-2.07-3.72s-3-.22-4.45-.28-2.89,0-4.33,0a1.61,1.61,0,0,0-1.75,1.1c-.44,1-1,2-1.48,2.95C570.53,430.28,570.53,430.28,568.48,429.94Zm14.18-6.8c-1.32-2.95-2.65-5.72-4.22-8.8-1.49,3.1-3,5.8-4.3,8.8Z"/><path class="cls-6" d="M234.93,421.12c0-2.54,0-5.09,0-7.63,0-.9.14-1.39,1.22-1.37,3,.07,6.05,0,9.08.06a7.91,7.91,0,0,1,3.77.93,4.56,4.56,0,0,1,0,8.36,8.78,8.78,0,0,1-4.18.95c-2,0-4,.05-6,0-1,0-1.49.19-1.42,1.34.09,1.72,0,3.44,0,5.16,0,1-.42,1.27-1.35,1.27s-1.2-.35-1.18-1.22C235,426.34,234.93,423.73,234.93,421.12Zm7.27-.29c1.52-.09,3.33.26,5-.47a3.35,3.35,0,0,0,1.36-5.14,3.85,3.85,0,0,0-2.91-1.36c-2.46-.11-4.93-.07-7.4-.1-.6,0-.87.23-.86.84,0,1.79,0,3.57,0,5.35,0,.78.41.89,1,.88C239.62,420.81,240.78,420.83,242.2,420.83Z"/><path class="cls-7" d="M580.43,394.62a4.89,4.89,0,0,1-.78.11c-1.57,0-1.59,0-1.6-1.56,0-4.41,0-8.81,0-13.21,0-1.85,0-1.65-1.68-1.66H571c-.55,0-1.16.06-1.16-.77s.57-.82,1.15-.82H587.7c.57,0,1.12,0,1.15.79s-.54.8-1.1.8c-1.93,0-3.86.05-5.78,0-1.1,0-1.41.41-1.4,1.45,0,4.19,0,8.39,0,12.59A7.22,7.22,0,0,1,580.43,394.62Z"/><path class="cls-7" d="M217.62,378.3h-6.33c-.42,0-.83,0-1.24,0s-.7-.3-.7-.78.24-.77.74-.78l1.23,0h15.27c.35,0,.69,0,1,0,.66,0,.8.38.78.94s-.37.65-.83.65h-4.34c-.68,0-1.37,0-2.06,0s-1.1.25-1.09,1.06c0,1.72,0,3.44,0,5.16,0,2.95,0,5.91,0,8.87,0,1.22-.85,1.74-2,1.31-.53-.19-.47-.62-.47-1,0-2,0-4,0-6C217.61,384.61,217.62,381.52,217.62,378.3Z"/><path class="cls-8" d="M172.72,449.56v5.06c0,3.16,0,6.32,0,9.48,0,1.49-.07,1.45-1.25,1.53-1.35.09-1.18-.78-1.18-1.6,0-4.27,0-8.53,0-12.79,0-2.16.2-1.94-2-1.95q-2.58,0-5.16,0c-.61,0-1.09-.06-1.07-.85s.6-.77,1.15-.77H179.9c.61,0,1.1.05,1.08.85s-.6.77-1.16.77c-1.65,0-3.3,0-4.95,0A3.94,3.94,0,0,0,172.72,449.56Z"/><path class="cls-5" d="M380,447.67h7.63l1.24,0c.53,0,.66.36.65.83s-.22.76-.73.76H383c-1.93,0-1.81-.19-1.81,1.75,0,4.4,0,8.8,0,13.2,0,.88-.11,1.42-1.2,1.41s-1.33-.23-1.32-1.27c.06-4.47,0-8.94,0-13.4,0-1.71.19-1.68-1.66-1.69H371.5c-.52,0-.95,0-1-.73s.39-.9,1-.89Z"/><path class="cls-7" d="M547.88,412.21h2a8.3,8.3,0,0,1,.18,2.92c0,3.85,0,7.71,0,11.56,0,1.66,0,1.68,1.72,1.68,3.1,0,6.2,0,9.29,0a11.65,11.65,0,0,1,1.45.05c.39.05.54.36.55.75s-.06.83-.58.94a3.13,3.13,0,0,1-.61,0c-4.34,0-8.68,0-13,0-.88,0-1.23-.29-1.22-1.19,0-5.44,0-10.88.06-16.31A1.7,1.7,0,0,1,547.88,412.21Z"/><path class="cls-9" d="M128.87,412.15h8.46c.56,0,.89.17.9.82s-.33.82-.89.82h-5.57c-1.87,0-1.81-.17-1.81,1.76,0,4.4,0,8.8,0,13.2,0,1.5-.4,1.39-1.6,1.4s-.91-.79-.91-1.45c0-4.12,0-8.25,0-12.37,0-2.89.38-2.5-2.49-2.54-1.58,0-3.16,0-4.74,0-.5,0-1,0-1-.71s.31-.94,1-.94C123.1,412.16,126,412.15,128.87,412.15Z"/><path class="cls-9" d="M376,412.15h7c.35,0,.69,0,1,0,.57,0,1.3-.23,1.35.78s-.66.85-1.26.86h-4.33a11.52,11.52,0,0,1-1.44,0c-1-.12-1.26.4-1.25,1.34,0,3.36,0,6.73,0,10.1,0,1.24,0,2.48,0,3.71,0,.86-.24,1.25-1.16,1.24s-1.39-.17-1.37-1.24c.05-3.71,0-7.43,0-11.14v-1.24c0-2.76,0-2.76-2.87-2.76-1.52,0-3,0-4.54,0-.61,0-.85-.28-.83-.88a.68.68,0,0,1,.74-.76H376Z"/><path class="cls-9" d="M129.55,447.67h7.62l1.24,0c.54,0,.67.35.66.82s-.21.77-.72.77h-6c-1.5,0-1.57-.14-1.56,1.59,0,4.4,0,8.79,0,13.19,0,1.53-.21,1.67-1.62,1.56-.74-.06-.89-.43-.88-1.07,0-1.51,0-3,0-4.53,0-3.17,0-6.33,0-9.49,0-1-.31-1.3-1.29-1.27-2.06.06-4.12,0-6.18,0-.64,0-.81-.35-.79-.92s.35-.69.81-.69h8.66Z"/><path class="cls-9" d="M579.41,447.67h7c.35,0,.69,0,1,0,.55.05,1.31-.26,1.36.75s-.67.84-1.27.86h-1c-1.38,0-2.76,0-4.13,0-1.81,0-1.82,0-1.83,1.75v12.39c0,.42,0,.83,0,1.24.07.92-.53,1-1.2.95s-1.35,0-1.33-1c.05-3.09,0-6.19,0-9.29,0-1.65,0-3.3,0-5,0-.81-.28-1.07-1.07-1.05-1.65,0-3.31,0-5,0-.41,0-.82,0-1.24,0s-.93-.12-.95-.78.33-.84.89-.83h8.67Z"/><path class="cls-7" d="M392.13,412.21c.35,0,.75,0,1.16-.07.81-.08,1.08.31,1.08,1.09,0,5.29,0,10.58,0,15.87,0,1-.58,1-1.34,1.08-.94.05-1.16-.39-1.15-1.23,0-5.16,0-10.31,0-15.47A2.06,2.06,0,0,1,392.13,412.21Z"/><path class="cls-10" d="M179.65,394.59a6.58,6.58,0,0,1-.91.14c-1.47,0-1.51,0-1.51-1.45,0-4.12,0-8.24,0-12.35,0-1.1,0-2.2,0-3.3,0-.89.59-.93,1.26-.93s1.18.08,1.18,1C179.63,383.3,179.65,388.92,179.65,394.59Z"/><path class="cls-9" d="M189.9,456.58c0,2.61,0,5.23,0,7.84,0,.89-.27,1.21-1.17,1.22s-1.32-.26-1.31-1.29c0-5.16,0-10.32,0-15.49,0-.87.26-1.2,1.17-1.21s1.34.27,1.31,1.28C189.85,451.48,189.89,454,189.9,456.58Z"/><path class="cls-11" d="M302.21,382.69c.42-1.07,1.45-1.31,1.49-2.25,0-.58.15-1-.55-1.32a1.59,1.59,0,0,1-.47-2.21,3.48,3.48,0,0,1,2.38-.05.87.87,0,0,1,.18.36C306,379.59,304.93,381.77,302.21,382.69Z"/><path class="cls-11" d="M378.62,371.74c-1.92,1.13-2.92,3-5.14,3.15C374.84,372.18,375.87,371.49,378.62,371.74Z"/><path class="cls-11" d="M198.53,371.71c-1.94,1.18-2.95,3-5.16,3.19C194.68,372.23,195.74,371.5,198.53,371.71Z"/><path class="cls-11" d="M244.65,371.74c-1.67,1.33-2.79,2.89-4.83,3C241,373.28,241.66,371,244.65,371.74Z"/></svg>