<svg id="Calque_1" data-name="Calque 1" xmlns="http://www.w3.org/2000/svg" viewBox="0 0 725 595.28"><defs><style>.cls-1{fill:#323e48;}.cls-2{fill:#638c2e;}.cls-3{fill:#49762e;}</style></defs><path class="cls-1" d="M272.82,311.1a5.91,5.91,0,0,0-2.1-3.6c-2.56-2-5.66-1.3-7.6,1.16-1.55,2-2,4.91,1,7.25a5,5,0,0,0,3.45,1.17l1.67-2.11-3.06-2.42,1.6-2,5.12,4-4,5.05a7.68,7.68,0,0,1-6.48-1.61c-4.49-3.55-4-7.95-1.51-11.1,2.66-3.37,7.22-4.82,11.44-1.49a8,8,0,0,1,3,5.34Z"/><path class="cls-1" d="M286.84,325c-2.13,3.32-6.27,5.38-10.8,2.53s-4.61-7.42-2.48-10.81,6.44-5.45,10.91-2.66S289,321.68,286.84,325Zm-10.9-6.75c-1.27,2.16-1.55,5.14,1.5,7s5.61.34,7-1.76,1.71-5.36-1.34-7.26S277.25,316.08,275.94,318.29Z"/><polygon class="cls-1" points="294.94 320.45 289.35 331.73 296.38 335.21 295.19 337.59 285.6 332.83 292.36 319.17 294.94 320.45"/><polygon class="cls-1" points="297.81 338.74 303.37 324.57 313.56 328.58 312.55 331.15 305.03 328.2 303.51 332.07 310.63 334.86 309.65 337.33 302.54 334.54 300.48 339.79 297.81 338.74"/><path class="cls-1" d="M322.94,335.2a4.38,4.38,0,0,0-3-2.64c-2.05-.6-3.28,0-3.59,1.07-.38,1.27,1,2.06,2.72,2.78,2.95,1.27,5.56,2.89,4.55,6.38-.95,3.26-4.25,3.83-7.51,2.88-3-.87-5-2.46-5.33-5.46l2.64-.52c.18,1.8,1.67,3,3.45,3.52s3.54.37,4-1.21c.4-1.39-.87-2.37-2.76-3.14-2.89-1.23-5.41-2.83-4.46-6.11.88-3,4.21-3.38,6.91-2.62,2.28.66,4.45,2,4.91,4.58Z"/><rect class="cls-1" x="324.96" y="339.99" width="15.24" height="2.85" transform="translate(-64.69 604.75) rotate(-79.29)"/><polygon class="cls-1" points="347.62 335.88 350.47 336.21 348.69 351.37 346.92 351.16 346.92 351.19 340.16 340.02 338.96 350.23 336.11 349.9 337.88 334.76 340.19 335.03 346.51 345.28 347.62 335.88"/><polygon class="cls-1" points="370.05 340.55 365.24 347.29 364.68 347.3 359.66 340.77 359.92 351.86 357.05 351.93 356.69 336.69 360 336.61 364.92 343.05 369.53 336.38 372.82 336.3 373.18 351.54 370.31 351.61 370.05 340.55"/><path class="cls-1" d="M390.79,341.6c.51,3.9-1.32,8.15-6.62,8.9s-8.3-2.7-8.87-6.66,1.4-8.32,6.62-9.06S390.27,337.65,390.79,341.6Zm-12.69,1.88c.43,2.47,2.14,4.93,5.7,4.42s4.51-3.37,4.2-5.86-2.16-5.19-5.71-4.67S377.68,341,378.1,343.48Z"/><path class="cls-1" d="M408,345.06l-3.31.84-5.56-3.85-2.68.68,1.25,4.94-2.78.71-3.75-14.8c2.34-.59,4.69-1.16,7-1.76,3.49-.86,5.91,1,6.56,3.55a4.52,4.52,0,0,1-2.56,5.59l5.76,3.91Zm-13.38-9.57,1.19,4.73,4.24-1.08a2.44,2.44,0,1,0-1.19-4.72Z"/><path class="cls-1" d="M421.54,332.16c1.33,3.71.43,8.24-4.59,10.1s-8.69-.89-10.08-4.65-.38-8.42,4.56-10.25S420.2,328.41,421.54,332.16Zm-12,4.51c.93,2.33,3.13,4.37,6.49,3.12s3.7-4.25,2.87-6.61-3.2-4.62-6.57-3.37S408.58,334.28,409.54,336.67Z"/><path class="cls-1" d="M438.21,330.24a8,8,0,0,1-4.19,4.59c-5.07,2.51-8.95.08-10.72-3.46A7.66,7.66,0,0,1,427,320.59a7.79,7.79,0,0,1,6-.39l-.9,2.51a5.19,5.19,0,0,0-3.93.34,5,5,0,0,0-2.36,7.07,4.89,4.89,0,0,0,7,2.29,5.57,5.57,0,0,0,2.75-3.08Z"/><path class="cls-1" d="M451.09,322.28a8,8,0,0,1-3.73,5c-4.82,3-8.91.93-11-2.43A7.69,7.69,0,0,1,439,313.74a7.91,7.91,0,0,1,6-1l-.66,2.59a5.16,5.16,0,0,0-3.88.72,5,5,0,0,0-1.68,7.26,4.88,4.88,0,0,0,7.18,1.62,5.63,5.63,0,0,0,2.45-3.33Z"/><path class="cls-1" d="M461.43,307.24c2.4,3.12,2.92,7.72-1.3,11s-8.55,1.79-11-1.37-2.92-7.91,1.23-11.15S459,304.07,461.43,307.24Zm-10.06,7.94c1.59,1.94,4.31,3.22,7.14,1s2.23-5.17.72-7.17-4.45-3.43-7.28-1.22S449.74,313.2,451.37,315.18Z"/><path class="cls-2" d="M482.5,239.93c-1.74,3.38-3.17,7-5.28,10.12-18.92,28.11-42.76,50.6-75.67,60.88-44.36,13.85-85.39,6.14-122-22.67-18.45-14.51-31.29-33.36-39.91-55.07a57.26,57.26,0,0,1-2.94-11.73c-2.7-16.21,9.88-24.49,21.25-24.91,10.49-.38,19.74,3.49,28.61,8.46,14.1,7.92,26,18.64,37.19,30.15a100.17,100.17,0,0,0,53.48,29c18.7,3.7,37.42,2.95,56.17.65A80,80,0,0,0,470,250.82c2.91-2,5.35-4.76,7.92-7.26,1.33-1.28,2.47-2.76,3.7-4.15Z"/><path class="cls-1" d="M362.92,54.48q68.52,1.79,108.29,57.69a120.87,120.87,0,0,1,22.23,62.55,35.45,35.45,0,0,1-.15,4.11,29.94,29.94,0,0,1-3.64-1.37,39.79,39.79,0,0,0-17.13-4.33c-5.5-.22-5.57-.34-6.65-5.62-6.16-29.83-21.67-53.46-47.25-70.11-41-26.69-96.72-20.78-131.22,13.83-12.16,12.21-21.79,26.17-26.5,43-2,7-2.95,14.26-4.32,21.42-.93,4.84-1,5-5.78,6.08-6.7,1.47-12.86,4-18,8.68l-2.56,1.15-.81-2.65c0-23.46,4.77-45.75,16.53-66.27,20.69-36.12,51.63-58,92.28-66.34a105.33,105.33,0,0,1,13.37-1.71C355.35,54.26,359.15,54.48,362.92,54.48Z"/><path class="cls-1" d="M360.77,95.88c22.05-.21,39.68,6.19,55.59,18,15.1,11.21,25.33,25.87,31.44,43.49,1.6,4.65,2.39,9.59,3.62,14.38.43,1.66,0,2.86-1.55,3.54q-10.41,4.47-20.85,8.87c-2.55,1.08-2.69-.85-2.84-2.49A68.78,68.78,0,0,0,421.25,161c-10.53-24.94-37.92-40.87-64.89-39.07-30.14,2-57.06,28.51-59.2,59.2-.36,5.17.72,6-6,4.33-5.5-1.36-11-2.63-16.53-4-3.21-.77-3.75-1.52-3.21-4.72.75-4.34,1.47-8.7,2.37-13,3.44-16.45,11.86-30.07,23.57-41.95a84.11,84.11,0,0,1,43.28-23.4C347.92,96.88,355.45,96.53,360.77,95.88Z"/><path class="cls-2" d="M360.57,242.47c4.32,0,8.37.33,12.35-.06,14.51-1.45,28.32-5.1,38.83-16,5.15-5.34,9.44-11.52,13.95-17.46,13-17.1,30.18-24.72,51.45-22.57a25.12,25.12,0,0,1,11.34,4.46c5.27,3.66,5.55,9.46,3.83,15.13-4,13.24-12.15,23.49-23.51,31.27-10.95,7.48-23.27,11.22-36.25,12.93a154.09,154.09,0,0,1-71.28-7.13Z"/><path class="cls-1" d="M387.13,190.3c.07,3.64-2.64,7.29-5.13,8-1.73.5-2.52-.49-3-1.91-1-3.28,2.22-8.17,5.64-8.07C385.69,188.37,386.67,189.91,387.13,190.3Z"/><path class="cls-1" d="M373.91,204c2.73-.05,4.42,1.76,3.09,4-1.13,1.88-3.4,3.15-5.36,4.37l-2.48-2.11C368.24,207.68,371.16,204.06,373.91,204Z"/><path class="cls-1" d="M385.37,177.63c.06-2.72,1.34-4.3,3.42-4.17s2.76,1.48,2.61,3.49c-.18,2.38-1.65,4.27-3.55,4.31C386.13,181.29,385.3,180.09,385.37,177.63Z"/><path class="cls-1" d="M403.86,210.86c0,1.92-2.84,5.55-4.61,5.31-.85-.13-1.93-1.65-2.12-2.69-.33-1.71,2.21-4.55,4-4.91S403.86,209,403.86,210.86Z"/><path class="cls-1" d="M408.87,183.21a39,39,0,0,1-2.41,5l-2.36.73-1.32-2.67a10,10,0,0,1,1.75-4.15l2.47-1.27Z"/><path class="cls-1" d="M386.25,226.75c0-2.31,4.75-5.66,6.43-4.64l.93,2.37a19.07,19.07,0,0,1-4.89,4.23C387.23,229.49,386.34,228.09,386.25,226.75Z"/><path class="cls-1" d="M359.38,220.79,357.6,219c-.31-1.58,2.74-4.14,4.62-4.18,1.52,0,2.66.53,2.67,2.28S362.58,220.75,359.38,220.79Z"/><path class="cls-1" d="M400.72,197.33c1.64,2.88-.62,7.62-3.37,7.7l-1.36-.84c0-1.25-.06-2.79.62-3.67C397.6,199.25,399.2,198.46,400.72,197.33Z"/><path class="cls-1" d="M401.43,166.64c.87.89,2.21,1.65,2.5,2.71a18.92,18.92,0,0,1,.19,5.38l-1.52.34c-.87-.78-2-1.69-2.2-2.71a21.64,21.64,0,0,1,.14-5Z"/><path class="cls-1" d="M405.17,197.62c1.44-1.89,2.64-3.48,3.84-5.07l1.59,2.26c0,3.64-1.22,5.65-3.11,5.28C406.78,200,406.26,198.83,405.17,197.62Z"/><path class="cls-1" d="M384.36,210.17l-1.17-2.59c-.16-1.72,2.3-4.41,3.85-4.14l1.82,1.91a50.56,50.56,0,0,1-3.37,5Z"/><path class="cls-1" d="M358.68,231.59l-1.17-1.94c-.17-1.61,2.82-3.58,5.07-3.28l1.56,1.61C364.31,229.44,361.3,231.61,358.68,231.59Z"/><path class="cls-1" d="M387.34,219.09,386,217.33c-.28-1.39,3.08-3.72,5.11-3.48l1.79,1.54C393.15,216.64,389.85,219.07,387.34,219.09Z"/><path class="cls-1" d="M378,218.3c0,2.34-3.3,5.2-4.92,4.49l-1.17-2.61a25.51,25.51,0,0,1,4.79-3Z"/><path class="cls-1" d="M376.52,231.78c-1.2-1.28-2.23-1.89-2.39-2.68-.28-1.36,2.59-3.35,4.39-3l1.79,1.51C379.17,228.85,378,230.12,376.52,231.78Z"/><path class="cls-1" d="M397.18,189c-.61,2.22.07,4.76-2.84,4.85l-1.09-2.11a28.75,28.75,0,0,1,2.52-4.21Z"/><path class="cls-1" d="M412.71,174l-1.35-2.43a17.33,17.33,0,0,1,2.95-3.25l1.61,1.9a21.64,21.64,0,0,1-2.22,3.86Z"/><path class="cls-1" d="M410.85,160.45c-1.63.79-2.7,1.66-3.1,1.42A15.55,15.55,0,0,1,405,159.2l2.14-1.66C408.26,158,409.17,159.07,410.85,160.45Z"/><path class="cls-1" d="M392.56,143.94l-1.6.62a34,34,0,0,1-3.35-2.55l1.13-1.16c1.35.67,2.63,1.49,3.92,2.27Z"/><path class="cls-1" d="M418.17,190.58c-1.16,1.1-2,1.89-2.8,2.68l-1.1-1.9a12.59,12.59,0,0,1,1.92-2.72Z"/><path class="cls-1" d="M411,203.47c1.43,2.66.78,3.89-2.69,4.81C408.23,206,408.74,204.33,411,203.47Z"/><path class="cls-1" d="M413.69,181.3c.7-1,1.29-1.87,1.87-2.73l1.14,2.12a9.52,9.52,0,0,1-1.4,2.82Z"/><path class="cls-1" d="M400,153.44c-.71-1.32-1.41-2.64-2.44-4.55C401.05,149.78,401.59,150.73,400,153.44Z"/><path class="cls-2" d="M280.7,491.1a25.23,25.23,0,0,0-17.44-7c-15.9,0-24,11.63-24,24.19,0,12.79,8.14,23.8,24,23.8a24.42,24.42,0,0,0,16.51-6.28V510.64H260.86V507h22.87v20.32c-5.66,5.66-12.41,8.76-20.47,8.76-18.45,0-28-12.87-28-27.69-.08-17,11.47-28.06,28-28.06a28.26,28.26,0,0,1,19.85,8.14Z"/><path class="cls-2" d="M347.45,508.31c-.08,14.26-9.14,28-27.37,28s-27.36-13.8-27.36-28.15c0-14.57,9.07-27.91,27.36-27.91S347.53,493.66,347.45,508.31Zm-50.62-.08c.07,12.25,7.82,24.19,23.25,24.19s23.34-11.94,23.34-24.19c0-12.56-7.75-24.11-23.34-24.11S296.75,495.44,296.83,508.23Z"/><polygon class="cls-2" points="361.56 481.1 361.56 531.41 392.1 531.41 392.1 535.37 357.37 535.37 357.37 481.1 361.56 481.1"/><polygon class="cls-2" points="404.2 506.91 435.44 506.91 435.44 510.87 404.2 510.87 404.2 535.45 400.01 535.45 400.01 481.1 436.53 481.1 436.53 485.28 404.2 485.28 404.2 506.91"/><path class="cls-2" d="M481,491.56c-3.95-6.35-10.31-7.29-16.43-7.36-6.36,0-16.44,2.32-16.44,11,0,6.9,7.44,8.53,16.59,10.23,10.47,2,21.32,3.88,21.32,15.58-.08,12.26-12.41,15.2-21.47,15.2-8.46,0-18.07-3.49-22.26-11.78l3.73-1.87c3.33,6.6,11.85,9.85,18.53,9.85S481.8,530.56,481.8,521c.08-8.14-8.91-9.93-17.83-11.63-9.92-1.94-20.08-4-20.08-14-.23-11.47,11.71-15,20.63-15,7.75,0,14.49,1.24,19.84,9.23Z"/><path class="cls-1" d="M214.26,394.26,186,437.5h-1.9l-28.47-43.24v65.6h-5.7V386h6.75l28.27,43,27.94-43h7v73.82h-5.6Z"/><path class="cls-1" d="M374.58,422.1c.42,18.77-11.61,37.76-37.44,37.76h-25V386h25C362.13,386,374.15,404,374.58,422.1Zm-56.75-30.68v63h19.31c21.93,0,32.06-16.46,31.74-32.28-.32-15.39-10.44-30.68-31.74-30.68Z"/><polygon class="cls-1" points="466.23 420.1 509.47 420.1 509.47 425.27 466.23 425.27 466.23 454.38 512.84 454.38 512.84 459.86 460.64 459.86 460.64 386.04 511.57 386.04 511.57 391.42 466.23 391.42 466.23 420.1"/><polygon class="cls-1" points="531.09 421.15 573.59 421.15 573.59 426.53 531.09 426.53 531.09 459.96 525.4 459.96 525.4 386.04 575.07 386.04 575.07 391.73 531.09 391.73 531.09 421.15"/><polygon class="cls-3" points="511.57 378.22 511.57 372.84 460.64 372.84 460.64 378.22 466.23 378.22 511.57 378.22"/><path class="cls-1" d="M446.19,459.86l-8.13-18.14H394l-8,18.14h-6.12L413,386h6.22l33.12,73.82Zm-10.34-23.41L416,391.52,396.2,436.45Z"/><path class="cls-1" d="M294.84,459.86l-8.12-18.14H242.64l-8,18.14h-6.11L261.62,386h6.23L301,459.86Zm-10.33-23.41-19.83-44.93-19.83,44.93Z"/></svg>