<svg id="Calque_1" data-name="Calque 1" xmlns="http://www.w3.org/2000/svg" viewBox="0 0 725 595.28"><defs><style>.cls-1{fill:#fac087;}.cls-2{fill:#50ae34;}.cls-3{fill:#5f94b9;}.cls-4{fill:#bacbdf;}.cls-5{fill:#fff;}</style></defs><path class="cls-1" d="M179.14,192.29l.09-.11c3.85,1.25,7.69,2.53,11.55,3.74a305,305,0,0,0,43.87,10.15,306.22,306.22,0,0,0,31,3.23c8.7.46,17.4.32,26.11.18,17.33-.28,33.67-5.18,49.82-10.94,1.71-.61,3.44-1.17,5.17-1.76,2.7,1.3,3,3.67,2.82,6.27-.14,2.31-1.55,3.59-3.55,4.35-1.36.52-2.8.87-4.15,1.41a5.12,5.12,0,0,0-3.54,5.31c.06,2.66,1,4,3.67,5l1.33.46c2.5.92,3.41,2.09,3.37,4.34,0,2-1,3-3.52,3.78a32.61,32.61,0,0,0-4.13,1.46c-2.3,1.1-3.29,3.45-2.91,6.44.29,2.32,1.67,3.75,4.21,4.35,1.14.27,2.31.47,3.42.81a3,3,0,0,1,2.2,2.51,6.51,6.51,0,0,1-3.87,7c-1.46.6-3,1-4.49,1.52-3.44,1.16-5,3.49-4.66,7.12.23,2.7,2,4.16,5.69,4.72a22.2,22.2,0,0,1,5,1,3.36,3.36,0,0,1,2.42,2.76c.23,1.92-.31,2.84-2.31,3.6-2.3.88-4.66,1.59-6.95,2.49a5.28,5.28,0,0,0-3.67,5.1,8.09,8.09,0,0,0,4,7.58c1.61,1,3.27,1.84,4.91,2.76A3.63,3.63,0,0,1,343.8,291a6.38,6.38,0,0,1-5.08,8.34,30.14,30.14,0,0,0-5.32,1.12c-2.37.88-3.06,2.24-2.32,4.69A16.7,16.7,0,0,0,337,313.7a117.54,117.54,0,0,0,10.16,6.66,340.38,340.38,0,0,1-35,6.07A183.66,183.66,0,0,1,290.54,328c-7.87-20.64-17.35-40.38-31.07-57.92a378.07,378.07,0,0,0-29.24-33.71C217,223,181.81,194.32,179.14,192.29Z"/><path class="cls-1" d="M450.18,298.55a7.06,7.06,0,0,1,2.29,2.07,414,414,0,0,0,77.74,73.14c-45.6-13.35-94.1-23.51-140.34-12.57-22.35,5.28-43.31,15.33-65.51,21.2-3.78,1-7.7,1.88-11.59,1.43-7.76-.89-10.34-6.32-11.93-13q-1.11-4.69-2.09-9.43-1.87-9.18-3.21-18.47c51.89-7.53,100.2-30.3,150.75-44.24a6.17,6.17,0,0,1,3.57-.25Z"/><path class="cls-1" d="M370.86,188.13h0a70.61,70.61,0,0,1,25.07-5c2.4,0,5,.09,7,1.4,2.65,1.73,3.72,5,4.46,8.08,1.47,6,2.39,12.19,3.58,18.28a205.23,205.23,0,0,0,32.66,77.36c-21.95,5-42.05,15.88-63.17,23.71a18.18,18.18,0,0,0,3.31-8,4.48,4.48,0,0,0-.15-2.44c-1.06-2.46-4.67-1.79-7.23-2.58a5.88,5.88,0,0,1-3.13-8.32c2.13-3.46,7.3-3.76,9.89-6.9a6.73,6.73,0,0,0-2.06-9.84c-2-1-4.3-.91-6.48-1.34s-4.51-1.74-4.8-3.94,1.8-4.22,3.92-5.2,4.53-1.56,6.09-3.28a5.85,5.85,0,0,0-.21-7.8c-2.15-2.12-5.52-2.18-8.42-3s-5.9-3.76-4.6-6.49,5.09-2.37,7.59-3.87c3.37-2,3.24-7.83-.21-9.7-1.65-.89-3.63-.9-5.46-1.31s-3.79-1.53-4.08-3.39c-.32-2.09,1.6-3.82,3.46-4.82s4-1.92,4.88-3.85c1.09-2.5-.65-5.38-2.82-7s-4.82-2.66-6.72-4.61c-2.28-2.33-2.81-6.59.34-8.27,1.7-.91,3.33-1.54,4.7-3a10.47,10.47,0,0,0,1.66-2.25C370.09,190.42,370.66,188.37,370.86,188.13Z"/><path class="cls-2" d="M370.76,188a7.09,7.09,0,0,1-4.18,6.26c-.32.16-.65.28-.95.45-1.68.94-4,1.2-4.1,3.8-.1,3.19.81,6,3.73,7.65,1.52.88,3.15,1.58,4.69,2.44a5.59,5.59,0,0,1,2.89,4.38,5.12,5.12,0,0,1-3,5.76c-1,.47-1.89.94-2.82,1.45-2.12,1.19-2.74,2.48-2.25,4.82.41,1.91,1.9,2.56,3.59,2.89,1.44.27,2.91.42,4.33.76a5,5,0,0,1,4.08,4.87c.15,3.34-.64,4.71-3.47,5.75-1.37.5-2.82.78-4.18,1.3a4,4,0,0,0-1.42,6.79,8.93,8.93,0,0,0,4.21,2.07c1.75.49,3.51.91,5.25,1.44,2.21.68,4,1.9,4.13,4.45a6,6,0,0,1-3.3,6.14c-1.41.72-2.91,1.24-4.35,1.89a5.75,5.75,0,0,0-3.68,5.32,2.61,2.61,0,0,0,2.1,3c2.09.56,4.22,1,6.33,1.45.52.12,1,.21,1.54.36,4.95,1.45,6.35,6.63,2.84,10.47a13.17,13.17,0,0,1-3.73,2.62,27.43,27.43,0,0,0-4.3,2.4,5.76,5.76,0,0,0-2.05,6.14c.48,2.44,2.19,3.46,4.47,3.82,1.39.22,2.78.42,4.15.73a3,3,0,0,1,2.57,3.27c0,3.45-1.64,6.17-3.5,8.85a19.92,19.92,0,0,1-4.65,1.45c-9.45,2.58-18.9,5.14-28.51,7.09A117.54,117.54,0,0,1,337,313.7a16.7,16.7,0,0,1-5.93-8.55c-.74-2.45-.05-3.81,2.32-4.69a30.14,30.14,0,0,1,5.32-1.12A6.38,6.38,0,0,0,343.8,291,3.63,3.63,0,0,0,342,289c-1.64-.92-3.3-1.8-4.91-2.76a8.09,8.09,0,0,1-4-7.58,5.28,5.28,0,0,1,3.67-5.1c2.29-.9,4.65-1.61,6.95-2.49,2-.76,2.54-1.68,2.31-3.6a3.36,3.36,0,0,0-2.42-2.76,22.2,22.2,0,0,0-5-1c-3.67-.56-5.46-2-5.69-4.72-.31-3.63,1.22-6,4.66-7.12,1.5-.51,3-.92,4.49-1.52a6.51,6.51,0,0,0,3.87-7,3,3,0,0,0-2.2-2.51c-1.11-.34-2.28-.54-3.42-.81-2.54-.6-3.92-2-4.21-4.35-.38-3,.61-5.34,2.91-6.44a32.61,32.61,0,0,1,4.13-1.46c2.55-.82,3.49-1.81,3.52-3.78,0-2.25-.87-3.42-3.37-4.34l-1.33-.46c-2.63-1-3.61-2.31-3.67-5a5.12,5.12,0,0,1,3.54-5.31c1.35-.54,2.79-.89,4.15-1.41,2-.76,3.41-2,3.55-4.35.16-2.6-.12-5-2.82-6.27a10.48,10.48,0,0,0-3.22-1.74,5.19,5.19,0,0,1-3.22-5.34c.2-4.63,1.25-6.33,5.5-8a4.22,4.22,0,0,0,2.88-3.45c.67-3.65-.54-6.6-3.85-8.25-2.74-1.38-3.35-3.51-3.14-6.26a5,5,0,0,1,3.94-4.82c4.81-1.4,6.22-3.45,4.06-9.3-.2-.55-.42-1.09-.61-1.65a5.8,5.8,0,0,1,2.41-7.36c1.38-.9,2.88-1.6,4.29-2.44,2.55-1.53,2.79-4.29.57-6.28a5.86,5.86,0,0,0-1-.77c-3.48-1.94-4.78-5-4.6-8.85.05-1.11.16-2.22.3-3.33a19.33,19.33,0,0,0,1.28,5.81c1.12,3,2.93,5.17,6.3,5.73a5.77,5.77,0,0,1,3.12,1.56,4.75,4.75,0,0,1,.12,6.54c-1.14,1.26-2.5,2.32-3.76,3.48a6,6,0,0,0-2,5.88c1,4.76,2.87,8.7,8.15,10,2.35.56,4.09,1.9,4.18,4.56s-.56,5.16-3.14,6.64a20,20,0,0,1-2.36,1.19c-4.5,1.82-4,7.91-.75,10a30.75,30.75,0,0,0,4.91,2.36C369.54,183.67,371.07,185.22,370.76,188Z"/><path class="cls-3" d="M347.17,320.36c9.61-1.95,19.06-4.51,28.51-7.09a19.92,19.92,0,0,0,4.65-1.45c4-.71,7.53-2.58,11.19-4.16,12.39-5.35,24.68-11,37.52-15.19,4.79-1.58,9.66-2.87,14.53-4.19A219.09,219.09,0,0,1,466.74,284c3.09-.37,6.18-.64,9.28-.95a.59.59,0,0,1,0,.35,208.82,208.82,0,0,0-30.87,6.77,194.24,194.24,0,0,0-18.54,6.12c-5.42,2-10.76,4.26-16,6.77a1.44,1.44,0,0,0,.69,0c5.93-1.67,11.84-3.39,17.79-5s12.13-3.14,18.2-4.71c4.71-1,9.41-2,14.14-2.86,10.17-1.88,20.39-3.33,30.7-4.29a361.3,361.3,0,0,1,36.63-1.58c5.63.05,11.26.43,17.09.67a2.53,2.53,0,0,1-1.71.34,358.21,358.21,0,0,0-49.73,3.5A412,412,0,0,0,452,297.23c-.51.12-1,.31-1.51.47-9.83,2.36-19.5,5.31-29.08,8.52-21,7-42,14.22-63,21.19a382.94,382.94,0,0,1-48.8,13.08c-4.73.9-9.5,1.57-14.25,2.34-6.15.61-12.3,1-18.49,1.08A163.71,163.71,0,0,1,227.71,337a134.54,134.54,0,0,1-20.55-7.91,3.6,3.6,0,0,1-2.29-3c-.78-4.74-1.79-9.44-2.78-14.49,1.61.68,3,1.26,4.34,1.82a199.5,199.5,0,0,0,45.64,12.46,208.18,208.18,0,0,0,36.57,2.37,4,4,0,0,0,1.9-.24,183.66,183.66,0,0,0,21.61-1.58A340.38,340.38,0,0,0,347.17,320.36Z"/><path class="cls-1" d="M447.28,293.31c-6.07,1.57-12.15,3.08-18.2,4.71s-11.86,3.33-17.79,5a1.44,1.44,0,0,1-.69,0c5.24-2.51,10.58-4.74,16-6.77a194.24,194.24,0,0,1,18.54-6.12Z"/><path class="cls-4" d="M476,283.4a.59.59,0,0,0,0-.35c1.69-.73,3.44-.2,5.18-.15C479.44,282.8,477.77,283.55,476,283.4Z"/><path class="cls-1" d="M179.14,192.29c-.16-.06-.51,0-.38-.27s.36,0,.47.16Z"/><path class="cls-1" d="M186.23,198.62l-.48-.09c.26-.38.38-.15.51.06Z"/><polygon class="cls-1" points="530.25 374.33 530.3 374.43 530.18 374.42 530.25 374.33"/><path class="cls-5" d="M522.54,368.38c-.16-.11-.54-.11-.37-.38s.4,0,.55.15Z"/><path class="cls-2" d="M238.18,36.5a2.41,2.41,0,1,0,0-4.81,2.41,2.41,0,0,0,0,4.81Z"/><path class="cls-2" d="M243.87,36.5a2.41,2.41,0,1,0-2.4-2.44A2.42,2.42,0,0,0,243.87,36.5Z"/><path class="cls-2" d="M256.14,60.12a2.43,2.43,0,1,0,2.41,2.4A2.44,2.44,0,0,0,256.14,60.12Z"/><path class="cls-2" d="M261.58,60.12a2.43,2.43,0,0,0,0,4.85,2.48,2.48,0,0,0,2.49-2.45A2.51,2.51,0,0,0,261.58,60.12Z"/><path class="cls-2" d="M276.6,46.54c0-2.19-1.1-3.33-3.25-3.33h-1.56v7c0,1.94-.76,3-2.7,3.2h-2.23c-3.17,0-4.26-1.31-4.43-4.26V46.54q0-3.28-3.29-3.29h-1.52v7c0,1.94-.76,3-2.74,3.16h-5.36l0-3.62c0-4.9-2.37-10.09-8.31-10.09-5.53,0-8.48,4.18-8.48,9.28,0,7.55,6.83,8.57,12,8.69,2.57-.12,10,0,9.74,0h.76a7.67,7.67,0,0,0,5.27-2,8.37,8.37,0,0,0,5.06,1.93v.05h3.88c4.81-.17,7.13-3.25,7.13-7.17Zm-31.25,6.83c-2.78-.08-8.39.59-8.39-5,0-3,1.3-5.19,3.92-5.19,4.05,0,4.51,3.58,4.51,7.13C245.39,51.39,245.35,52.44,245.35,53.37Z"/><path class="cls-2" d="M272.21,59.91a2.43,2.43,0,0,0,0,4.85,2.43,2.43,0,1,0,0-4.85Z"/><path class="cls-2" d="M300.8,36.5a2.41,2.41,0,0,0,2.41-2.44,2.35,2.35,0,0,0-2.41-2.37,2.32,2.32,0,0,0-2.4,2.37A2.38,2.38,0,0,0,300.8,36.5Z"/><path class="cls-2" d="M342.17,32.12h-1.56V50.21c0,1.9-.71,3-2.7,3.16h-.29c-3.54,0-4.89-1.22-4.89-4.43,0-5.1-3-9.23-8.48-9.23-5.06,0-8.14,4.09-8.14,8.56-.08,3.75-1.1,5.1-5,5.1h-.75c-.68,0-.68,0-3.46,0a5.35,5.35,0,0,1-2.87-.71,26,26,0,0,0,6.41-8.65c-1.94-1-4.85-4.22-9.74-4.22-1.86,0-4.77,1.1-4.89,1.4-1.86,1-4,2.32-5.11,2.78,0,1.14-.21,2.91-.21,3.58a13.58,13.58,0,0,1,6.67,5.11,4.65,4.65,0,0,1-3,.67h-8.3a5.68,5.68,0,0,1-1-.08V46.54c0-2.4-.76-3.37-3.12-3.37H280v10.2c0,4.56.47,7.43-3,7.43a15.24,15.24,0,0,1-1.73-.17V62.4c0,1.64,1.39,2.57,3.46,2.57a5.75,5.75,0,0,0,5.9-5.74V57.59H293a13.1,13.1,0,0,0,7.34-2.28c3.37,2.49,8,2.28,9.87,2.28h2a8.64,8.64,0,0,0,6.33-2.44,8.32,8.32,0,0,0,6.11,2.45,7.81,7.81,0,0,0,5.74-2.36c1.48,1.57,3.62,2.32,6.41,2.35h1.51c4.85-.17,7.22-3.21,7.22-7.17v-15C345.51,33.21,344.37,32.12,342.17,32.12ZM301,50.38c-2.06-1.18-3.79-3.5-6-4.6.8-.38,2.95-2.23,6.24-2.23A10.41,10.41,0,0,1,306,44.81,26.89,26.89,0,0,1,301,50.38Zm23.28,3.67c-2.66,0-4-2.11-4-5.11,0-3.58,1.35-5.69,4.34-5.69,2.57,0,3.88,2.11,3.88,5.15C328.51,51.94,327.25,54.05,324.25,54.05Z"/><path class="cls-2" d="M352.29,32.16h-2.15V54.34a2.91,2.91,0,0,0,2.91,3.25H355v-23A2.69,2.69,0,0,0,352.29,32.16Z"/><path class="cls-2" d="M374.9,36.5a2.41,2.41,0,1,0,0-4.81,2.41,2.41,0,0,0,0,4.81Z"/><path class="cls-2" d="M380.59,36.5a2.41,2.41,0,1,0,0-4.81,2.41,2.41,0,0,0,0,4.81Z"/><path class="cls-2" d="M478.13,32.12h-1.56V50.21c0,1.9-.71,3-2.7,3.16h-.29c-3.54,0-4.89-1.22-4.89-4.43,0-5.1-3-9.23-8.48-9.23-5.06,0-8.14,4.09-8.14,8.56-.08,3.54-1,4.94-4.35,5.09-3.06-.15-4.25-1.41-4.25-4.42,0-5.1-3-9.23-8.48-9.23-5.06,0-8.14,4.09-8.14,8.56-.08,3.54-1,4.94-4.35,5.09-3-.14-3.42-1.36-3.62-4.25V35.36c0-2.15-1.09-3.29-3.29-3.29h-1.51v18.1c0,1.94-.76,3-2.75,3.2h-3.75c0-10.25-7.59-12.27-7.93-12.27a6.78,6.78,0,0,0-1.51-.25c3.83-2.91,7.67-5.74,11.51-8.65a2,2,0,0,0,.72-1.6,2.48,2.48,0,0,0-.43-1.44l-1.13-1.47c-5.32,4-10.67,8-15.95,11.93a2.78,2.78,0,0,0-1.18,2.15c0,1.1.89,1.9,1.52,2.75a12,12,0,0,1,2.07-.17,7.56,7.56,0,0,1,4.17,1.26,9.2,9.2,0,0,1,3.76,7.76h-17l.05-3.62c0-4.9-2.37-10.09-8.31-10.09-5.53,0-8.48,4.18-8.48,9.28,0,7.55,6.83,8.57,12,8.69,2.57-.12,10,0,9.74,0h20.37v0a8,8,0,0,0,5.4-1.94,7,7,0,0,0,4.46,1.94v0h2.11v0a8.33,8.33,0,0,0,5.7-2.41,8.32,8.32,0,0,0,6.11,2.45,7.81,7.81,0,0,0,5.74-2.36,8.1,8.1,0,0,0,5.56,2.33v0h2.11v0a8.33,8.33,0,0,0,5.7-2.41,8.32,8.32,0,0,0,6.11,2.45,7.81,7.81,0,0,0,5.74-2.36c1.48,1.57,3.62,2.32,6.4,2.35h1.52c4.85-.17,7.22-3.21,7.22-7.17v-15C481.47,33.21,480.33,32.12,478.13,32.12ZM382.07,53.37c-2.79-.08-8.39.59-8.39-5,0-3,1.3-5.19,3.92-5.19,4,0,4.51,3.58,4.51,7.13C382.11,51.39,382.07,52.44,382.07,53.37Zm52.92.68c-2.65,0-4-2.11-4-5.11,0-3.58,1.35-5.69,4.34-5.69,2.57,0,3.88,2.11,3.88,5.15C439.25,51.94,438,54.05,435,54.05Zm25.22,0c-2.65,0-4-2.11-4-5.11,0-3.58,1.35-5.69,4.34-5.69,2.57,0,3.88,2.11,3.88,5.15C464.47,51.94,463.21,54.05,460.21,54.05Z"/><path class="cls-2" d="M488.26,32.16H486.1V54.34A2.91,2.91,0,0,0,489,57.59H491v-23A2.69,2.69,0,0,0,488.26,32.16Z"/><path class="cls-2" d="M117.84,408.31a2.43,2.43,0,1,0,0-4.85,2.43,2.43,0,0,0,0,4.85Z"/><path class="cls-2" d="M112.4,408.31a2.43,2.43,0,1,0-2.44-2.4A2.41,2.41,0,0,0,112.4,408.31Z"/><path class="cls-2" d="M125.48,411.27h-1.56v7c0,1.94-.72,3-2.7,3.21H107.64c-4,0-4.14-4.13-4.14-5.78,0-1.9.64-4.76,2.41-6.28h-1.52c-3.33,0-4.51,3-4.51,7,0,2.57.42,9.32,8.26,9.32H121.6c4.85-.13,7.21-3.21,7.21-7.17V414.6A3,3,0,0,0,125.48,411.27Z"/><path class="cls-2" d="M145.8,428a2.36,2.36,0,0,0-2.36,2.4,2.39,2.39,0,0,0,2.36,2.45,2.43,2.43,0,1,0,0-4.85Z"/><path class="cls-2" d="M146.94,411.27h-1.56v7c0,1.94-.76,3-2.7,3.21h-3c-1.69-.17-2.49-1-2.66-2.4V402.62a2.64,2.64,0,0,0-2.7-2.45h-2.19v18.31c0,3.9,2.3,6.9,7,7.15v0h3.88c4.81-.17,7.13-3.25,7.13-7.17V414.6C150.19,412.41,149.09,411.27,146.94,411.27Z"/><path class="cls-2" d="M173.51,404.56a2.41,2.41,0,0,0,2.4-2.45,2.34,2.34,0,0,0-2.4-2.36,2.31,2.31,0,0,0-2.4,2.36A2.39,2.39,0,0,0,173.51,404.56Z"/><path class="cls-2" d="M189.66,400.17H188.1v18.1c0,1.89-.72,3-2.7,3.16h-2.32c-.67,0-.67,0-3.46,0a5.34,5.34,0,0,1-2.86-.71,26.18,26.18,0,0,0,6.41-8.65c-1.94-1.05-4.85-4.22-9.74-4.22a11,11,0,0,0-4.9,1.39c-1.85,1-4,2.32-5.1,2.79,0,1.14-.21,2.91-.21,3.58a13.46,13.46,0,0,1,6.66,5.11,4.7,4.7,0,0,1-3,.67h-5.78c-1.69-.17-2.49-1-2.66-2.4V402.62a2.64,2.64,0,0,0-2.7-2.45h-2.19v18.31c0,4,2.36,7,7.21,7.17h4.94a13.1,13.1,0,0,0,7.34-2.28c3.37,2.49,8,2.28,9.86,2.28h2.87c4.85-.17,7.21-3.21,7.21-7.17v-15C193,401.27,191.85,400.17,189.66,400.17Zm-16,18.27c-2.07-1.18-3.8-3.5-6-4.6.8-.38,2.95-2.24,6.24-2.24a10.5,10.5,0,0,1,4.81,1.27A27.17,27.17,0,0,1,173.68,418.44Z"/><path class="cls-2" d="M199.78,400.22h-2.15V422.4a2.91,2.91,0,0,0,2.91,3.25h1.94v-23A2.7,2.7,0,0,0,199.78,400.22Z"/><path class="cls-2" d="M228.54,408.23v0a8,8,0,0,0-3.08-.59c-5.52,0-8.47,4.18-8.47,9.28,0,7.55,6.83,8.6,12,8.69-1.05,1.94-3.62,3.67-9.32,3.79V431c0,1.14,1.14,2,3,2,8.64,0,11.05-5.61,11.09-8.65l.08-6.62a17.15,17.15,0,0,0-.38-3.33A8.07,8.07,0,0,0,228.54,408.23ZM227,421.47c-2.74,0-5.82-.5-5.82-5.06,0-3,1.31-5.19,3.92-5.19,4.94,0,4.31,6.08,4.47,10.21C228.84,421.43,227.91,421.47,227,421.47Z"/><path class="cls-2" d="M256.8,425.69c5.52,0,8.52-4.09,8.52-9.24,0-4.55-3-8.73-8.14-8.73-5.53,0-8.48,4.18-8.48,9.28C248.7,421.6,251.65,425.69,256.8,425.69Zm0-14.42c2.95,0,4.3,2.15,4.3,5.73,0,3-1.27,5.15-3.92,5.15-3,0-4.31-2.15-4.31-5.7C252.87,413.42,254.18,411.27,256.8,411.27Z"/><path class="cls-2" d="M278.77,433a2.43,2.43,0,0,0,0-4.85,2.43,2.43,0,1,0,0,4.85Z"/><path class="cls-2" d="M286.7,430.58a2.51,2.51,0,0,0-2.49-2.4,2.43,2.43,0,0,0,0,4.85A2.49,2.49,0,0,0,286.7,430.58Z"/><path class="cls-2" d="M330.6,400.17H329v18.1c0,1.89-.72,3-2.7,3.16H326c-3.58,0-4.05-1.18-4.26-4.26V403.42c0-2.15-1.09-3.29-3.29-3.29H317v18.09c0,1.93-.76,3-2.72,3.21-3.37-.06-4.66-1.29-4.66-4.43,0-5.1-3-9.23-8.48-9.23-5.06,0-8.14,4.09-8.14,8.56-.08,3.44-.94,4.86-4.07,5.07-2.71-.16-3.7-1.47-3.86-4.23V414.6c0-2.19-1.09-3.29-3.29-3.29h-1.52v7c0,1.94-.76,3-2.74,3.16h-1.26c-1.69-.17-2.49-1-2.66-2.4V402.62a2.64,2.64,0,0,0-2.7-2.45h-2.19v18.31c0,3.9,2.3,6.9,7,7.15v0h2.19a7.72,7.72,0,0,0,5.27-2,8.18,8.18,0,0,0,4.43,1.87v.11h1.9v0a8.4,8.4,0,0,0,5.9-2.42,8.36,8.36,0,0,0,6.12,2.45,7.84,7.84,0,0,0,5.74-2.36,8.29,8.29,0,0,0,6,2.34v0h1.69v-.07a7.84,7.84,0,0,0,5-1.91,7.23,7.23,0,0,0,5.31,2h1.52c4.85-.17,7.21-3.21,7.21-7.17v-15C333.93,401.27,332.79,400.17,330.6,400.17Zm-29.48,21.94c-2.66,0-4-2.11-4-5.11,0-3.58,1.35-5.69,4.34-5.69,2.57,0,3.88,2.11,3.88,5.14C305.38,420,304.11,422.11,301.12,422.11Z"/><path class="cls-2" d="M369.73,425.65h.76a7.72,7.72,0,0,0,5.27-2,8.18,8.18,0,0,0,4.43,1.87v.11h1.9v0a8.3,8.3,0,0,0,5.9-2.46,8.43,8.43,0,0,0,6.12,2.45c5.1,0,8.1-4.1,8.1-8.65,0-5.1-3-9.24-8.48-9.24-5,0-8.14,4.09-8.14,8.57-.08,3.44-.94,4.89-4.08,5.11-2.7-.17-3.69-1.47-3.85-4.23V414.6q0-3.28-3.29-3.29h-1.52v7c0,1.94-.76,3-2.74,3.16h-5.35l0-3.63c0-4.89-2.36-10.08-8.31-10.08-5.53,0-8.48,4.18-8.48,9.28,0,7.55,6.84,8.56,12,8.69C362.56,425.56,370,425.69,369.73,425.65Zm24.38-14.38c2.57,0,3.88,2.15,3.88,5.14,0,3.54-1.27,5.65-4.26,5.65-2.62,0-3.92-2.11-3.92-5.1C389.81,413.42,391.11,411.27,394.11,411.27Zm-41.92,5.18c0-3,1.31-5.18,3.92-5.18,4.05,0,4.51,3.58,4.51,7.12,0,1.06,0,2.11,0,3C357.8,421.35,352.19,422,352.19,416.45Z"/><path class="cls-2" d="M353.41,404.56a2.41,2.41,0,1,0,0-4.81,2.41,2.41,0,0,0,0,4.81Z"/><path class="cls-2" d="M359.1,404.56a2.41,2.41,0,1,0-2.4-2.45A2.42,2.42,0,0,0,359.1,404.56Z"/><path class="cls-2" d="M374.41,430.58a2.42,2.42,0,0,0,2.41,2.45,2.43,2.43,0,1,0,0-4.85A2.44,2.44,0,0,0,374.41,430.58Z"/><path class="cls-2" d="M373.78,430.58a2.43,2.43,0,1,0-2.4,2.45A2.43,2.43,0,0,0,373.78,430.58Z"/><path class="cls-2" d="M453.91,400.17h-1.56v18.1c0,1.89-.72,3-2.7,3.16h-2.24a2.51,2.51,0,0,1-2.69-2.7c0-2.7-.05-3-.05-6.41,0-2.19-1.14-3.29-3.33-3.29h-1.56v9.24c0,1.89-.72,3-3.25,3.16-1.85,0-2.82-.34-3.37-1.14a29.23,29.23,0,0,0,.29-4.47v-3.5c0-2.15-1.09-3.29-3.29-3.29h-1.51v9.24c0,1.94-.76,3-2.75,3.16h-3.67v-10a2.69,2.69,0,0,0-2.69-2.4h-2.16v12.4h-4.25c-1.69-.17-2.49-1-2.66-2.4V402.62a2.64,2.64,0,0,0-2.7-2.45h-2.19v18.31c0,4,2.36,7,7.21,7.17h12.1c2.62,0,4.89-.3,6.12-1.52,2.11,1.56,5.73,1.52,6.11,1.52h.34c1.81,0,4.22-.55,5.44-1.86a6.29,6.29,0,0,0,4.85,1.86H450c4.85-.17,7.21-3.21,7.21-7.17v-15C457.24,401.27,456.1,400.17,453.91,400.17Z"/><path class="cls-2" d="M466.73,425.65v-23a2.7,2.7,0,0,0-2.7-2.4h-2.15V422.4a2.91,2.91,0,0,0,2.91,3.25Z"/><path class="cls-2" d="M492.32,404.56a2.41,2.41,0,1,0-2.4-2.45A2.42,2.42,0,0,0,492.32,404.56Z"/><path class="cls-2" d="M486.63,404.56a2.41,2.41,0,1,0,0-4.81,2.41,2.41,0,0,0,0,4.81Z"/><path class="cls-2" d="M504.6,428.18a2.43,2.43,0,1,0,0,4.85,2.43,2.43,0,0,0,0-4.85Z"/><path class="cls-2" d="M510,428.18a2.43,2.43,0,0,0,0,4.85,2.43,2.43,0,1,0,0-4.85Z"/><path class="cls-2" d="M521.8,411.27h-1.56v7c0,1.94-.76,3-2.7,3.21h-2.23c-3.16,0-4.26-1.31-4.43-4.26V414.6q0-3.28-3.29-3.29h-1.52v7c0,1.94-.76,3-2.74,3.16H498l0-3.63c0-4.89-2.36-10.08-8.31-10.08-5.53,0-8.48,4.18-8.48,9.28,0,7.55,6.83,8.56,12,8.69,2.57-.13,10,0,9.74,0h.76a7.72,7.72,0,0,0,5.27-2A8.43,8.43,0,0,0,514,425.6v0h3.88c4.81-.17,7.13-3.25,7.13-7.17V414.6C525.05,412.41,524,411.27,521.8,411.27Zm-28,10.16c-2.78-.08-8.39.59-8.39-5,0-3,1.31-5.18,3.92-5.18,4.05,0,4.51,3.58,4.51,7.12C493.84,419.45,493.8,420.5,493.8,421.43Z"/><path class="cls-2" d="M520.66,428a2.36,2.36,0,0,0-2.36,2.4,2.39,2.39,0,0,0,2.36,2.45,2.43,2.43,0,1,0,0-4.85Z"/><path class="cls-2" d="M540,408.23v0a8,8,0,0,0-3.08-.59c-5.53,0-8.48,4.18-8.48,9.28,0,7.55,6.84,8.6,12,8.69-1,1.94-3.63,3.67-9.32,3.79V431c0,1.14,1.14,2,2.95,2,8.65,0,11.05-5.61,11.09-8.65l.09-6.62a17.15,17.15,0,0,0-.38-3.33A8.09,8.09,0,0,0,540,408.23Zm-1.56,13.24c-2.74,0-5.82-.5-5.82-5.06,0-3,1.31-5.19,3.92-5.19,4.94,0,4.3,6.08,4.47,10.21C540.27,421.43,539.35,421.47,538.42,421.47Z"/><path class="cls-2" d="M575.91,408.61a2.56,2.56,0,0,0,2.4-2.45,2.39,2.39,0,0,0-2.4-2.4,2.35,2.35,0,0,0-2.41,2.4A2.45,2.45,0,0,0,575.91,408.61Z"/><path class="cls-2" d="M612.3,400.17h-1.56v18.1c0,1.89-.72,3-2.7,3.16h-.29c-3.54,0-4.89-1.22-4.89-4.43,0-5.1-3-9.23-8.48-9.23-5.06,0-8.14,4.09-8.14,8.56-.08,3.41-.93,4.83-4,5.06-2.77-.2-3.78-1.43-3.94-4.22V414.6c0-2.19-1.09-3.29-3.29-3.29H573.5v7c0,1.94-.75,3-2.74,3.16h-1.22c-3.75,0-4-.76-5-3.88a15.1,15.1,0,0,0-2.95-5.65,9.08,9.08,0,0,0-4.47-2.74,7.51,7.51,0,0,0-1.81-.26,4.23,4.23,0,0,0-3.84,2.32l-.85,1.35a13.09,13.09,0,0,1,2.07-.16,7.52,7.52,0,0,1,4.22,1.26,9.27,9.27,0,0,1,3.75,7.76H549v1.69a2.34,2.34,0,0,0,2.32,2.53h10A4.66,4.66,0,0,0,564.4,424a5.94,5.94,0,0,0,4.55,1.68h2.19a7.72,7.72,0,0,0,5.27-2,8.18,8.18,0,0,0,4.43,1.87v.11h1.9v0a8.4,8.4,0,0,0,5.9-2.42,8.36,8.36,0,0,0,6.12,2.45,7.84,7.84,0,0,0,5.74-2.36c1.48,1.57,3.62,2.32,6.4,2.35h1.52c4.85-.17,7.21-3.21,7.21-7.17v-15C615.63,401.27,614.5,400.17,612.3,400.17Zm-17.92,21.94c-2.66,0-4-2.11-4-5.11,0-3.58,1.35-5.69,4.34-5.69,2.57,0,3.88,2.11,3.88,5.14C598.64,420,597.38,422.11,594.38,422.11Z"/><path class="cls-2" d="M622.42,400.22h-2.15V422.4a2.91,2.91,0,0,0,2.91,3.25h1.94v-23A2.69,2.69,0,0,0,622.42,400.22Z"/><path class="cls-2" d="M322.86,456.52a2.43,2.43,0,1,0-2.45,2.4A2.42,2.42,0,0,0,322.86,456.52Z"/><path class="cls-2" d="M314.93,458.92a2.43,2.43,0,0,0,0-4.85,2.43,2.43,0,1,0,0,4.85Z"/><path class="cls-2" d="M328.93,450.78h-1.56v18.09c0,1.9-.72,3-2.7,3.17h-.08c-3.16-.09-4.26-1.31-4.43-4.26V465.2q0-3.29-3.29-3.28h-1.52v6.95c0,1.94-.76,3-2.74,3.17h-4.38v-1.23c0-5.27-2.53-12.44-9.45-12.44-4.47,0-8.18,3.5-10.75,7.8v-.71c0-3.12-.93-3.12-3.25-3.12h-1V472h-7.25c-.76-6.2-3.88-13.67-11.18-13.67-6.12,0-6.83,2.15-6.83,5V465a7.77,7.77,0,0,1,5.9-2.36c5.1,0,7.09,6.75,7.76,9.45H254a5.72,5.72,0,0,1-1-.09V465.2c0-2.4-.76-3.37-3.12-3.37h-1.81V472c0,4.55.46,7.42-3,7.42a13.13,13.13,0,0,1-1.73-.17v1.77c0,1.65,1.39,2.58,3.46,2.58a5.76,5.76,0,0,0,5.9-5.74v-1.65H313a7.67,7.67,0,0,0,5.27-2,8.53,8.53,0,0,0,5.27,2v0h1.52c4.85-.16,7.21-3.2,7.21-7.16v-15C332.26,451.88,331.13,450.78,328.93,450.78ZM304,472H288.66c.76-3.12,4.17-8.78,9.11-8.94,5.52.25,6.28,4,6.28,7.46C304.05,471.07,304.05,471.57,304,472Z"/><path class="cls-2" d="M339.05,450.82H336.9V473a2.91,2.91,0,0,0,2.91,3.24h1.94v-23A2.7,2.7,0,0,0,339.05,450.82Z"/><path class="cls-2" d="M359.29,452.72a2.39,2.39,0,0,0,2.37,2.45,2.41,2.41,0,1,0,0-4.81A2.36,2.36,0,0,0,359.29,452.72Z"/><path class="cls-2" d="M367.35,450.36a2.39,2.39,0,0,0-2.4,2.36,2.43,2.43,0,1,0,2.4-2.36Z"/><path class="cls-2" d="M383.16,478.57a2.43,2.43,0,0,0,0,4.85,2.43,2.43,0,1,0,0-4.85Z"/><path class="cls-2" d="M387.55,465.2c0-2.19-1.1-3.33-3.25-3.33h-1.56v7c0,1.94-.76,3-2.7,3.21h-7l0-3.63c0-4.89-2.36-10.08-8.3-10.08-5.53,0-8.48,4.18-8.48,9.28,0,7.55,6.83,8.56,12,8.69,2.57-.13,10,0,9.74-.05h2.44c4.81-.16,7.13-3.24,7.13-7.16ZM368.83,472c-2.79-.09-8.4.59-8.4-5,0-3,1.31-5.19,3.93-5.19,4,0,4.51,3.59,4.51,7.13C368.87,470.05,368.83,471.11,368.83,472Z"/><path class="cls-2" d="M392.53,461.83h-1.82V472c0,4.55.34,7.42-3,7.42a13.36,13.36,0,0,1-1.69-.17v1.77c0,1.65,1.39,2.58,3.46,2.58a5.94,5.94,0,0,0,6.11-5.74V465.2C395.6,462.8,394.89,461.83,392.53,461.83Z"/><path class="cls-2" d="M442.46,458.33c-5,0-8.14,4.09-8.14,8.56-.09,3.76-1.1,5.15-5,5.15H427c-.76-6.2-3.88-13.67-11.18-13.67-6.11,0-6.83,2.15-6.83,5V465a7.79,7.79,0,0,1,5.91-2.36c5.1,0,7.08,6.75,7.76,9.45H407a2.55,2.55,0,0,1-2.66-2.41v-16.4a2.64,2.64,0,0,0-2.7-2.45H399.4v18.31c0,4,2.36,7,7.21,7.16h24.21v0a8.34,8.34,0,0,0,5.9-2.46,8.42,8.42,0,0,0,6.12,2.44c5.1,0,8.09-4.09,8.09-8.64C450.93,462.46,447.94,458.33,442.46,458.33Zm0,14.34c-2.62,0-3.92-2.11-3.92-5.1,0-3.55,1.3-5.7,4.3-5.7,2.57,0,3.88,2.15,3.88,5.15C446.72,470.56,445.45,472.67,442.46,472.67Z"/><path class="cls-2" d="M476.15,458.84v0a8,8,0,0,0-3.08-.59c-5.52,0-8.47,4.17-8.47,9.28,0,7.55,6.83,8.6,12,8.68-1.05,1.94-3.62,3.67-9.32,3.8v1.56c0,1.14,1.14,2,3,2,8.64,0,11.05-5.61,11.09-8.65l.08-6.62A17.15,17.15,0,0,0,481,465,8.07,8.07,0,0,0,476.15,458.84Zm-1.56,13.24c-2.74,0-5.82-.51-5.82-5.06,0-3,1.31-5.19,3.92-5.19,4.94,0,4.31,6.07,4.47,10.21C476.45,472,475.52,472.08,474.59,472.08Z"/><path class="cls-2" d="M237.53,93.47c0,.68,0,1.23,0,1.63s0,.74.05,1,0,.46.07.59a4.88,4.88,0,0,1-3.1-.84A3.38,3.38,0,0,1,233.5,93v-14a5.67,5.67,0,0,1,.56-2.64,4.56,4.56,0,0,1,1.54-1.69,6.64,6.64,0,0,1,2.32-.93,22.6,22.6,0,0,1,2.94-.38,12.45,12.45,0,0,1,4.46.61,11.71,11.71,0,0,1,2.16,1,7.08,7.08,0,0,1,1.8,1.46,6.8,6.8,0,0,1,1.22,2,6,6,0,0,1,.38,2.5,5.85,5.85,0,0,1-1.24,3.47,6.41,6.41,0,0,1-3.38,2.17,3.15,3.15,0,0,1,1.29.84,6.63,6.63,0,0,1,.94,1.39c.27.54.55,1.13.82,1.76s.58,1.29.91,2a9.86,9.86,0,0,0,.79,1.37c.29.4.55.76.79,1.07a6.82,6.82,0,0,0,.83.92,2.87,2.87,0,0,1-.66.5,3.64,3.64,0,0,1-.86.26,3.37,3.37,0,0,1-1.19,0,4,4,0,0,1-1.45-.46,5,5,0,0,1-1.32-1.12,14.87,14.87,0,0,1-1.4-2c-.49-.84-1.06-1.88-1.69-3.14a4.4,4.4,0,0,0-1.36-1.59,6.33,6.33,0,0,0-1.94-.88,3.06,3.06,0,0,0-.38-.1,1.4,1.4,0,0,1-.35-.1l-.64-.11q-.42-.09-.84-.15l-1-.2Zm3.33-16.81a6.44,6.44,0,0,0-1.64.34,3.38,3.38,0,0,0-1,.59,2.11,2.11,0,0,0-.54.78,2.39,2.39,0,0,0-.17.86v1.13c0,.48,0,1,0,1.44s0,.93,0,1.33v.81c.5.11,1,.21,1.55.3s.92.13,1.45.18a13.53,13.53,0,0,0,1.55.08,5.64,5.64,0,0,0,3.26-.82A3.66,3.66,0,0,0,246.76,81a3.39,3.39,0,0,0-.36-2.09A3.68,3.68,0,0,0,245,77.5a6,6,0,0,0-2-.73A7.87,7.87,0,0,0,240.86,76.66Z"/><path class="cls-2" d="M266.94,83.55a7.66,7.66,0,0,1,1.6,2.49,8.23,8.23,0,0,1,.58,3.08,8.86,8.86,0,0,1-.53,3.08,7.55,7.55,0,0,1-1.48,2.49,6.9,6.9,0,0,1-2.33,1.72,7.36,7.36,0,0,1-3,.62,6.73,6.73,0,0,1-2.85-.62,7.67,7.67,0,0,1-2.36-1.72A7.93,7.93,0,0,1,255,92.2a8.23,8.23,0,0,1-.57-3.08,9.09,9.09,0,0,1,.51-3.08,7.35,7.35,0,0,1,1.46-2.49,6.9,6.9,0,0,1,2.33-1.72,7.36,7.36,0,0,1,3.05-.62,6.85,6.85,0,0,1,2.89.62A7.28,7.28,0,0,1,266.94,83.55ZM261.73,94.2a3.26,3.26,0,0,0,1-.2,2.71,2.71,0,0,0,1.1-.76,4.46,4.46,0,0,0,.89-1.55,7.63,7.63,0,0,0,.36-2.57,7.8,7.8,0,0,0-.36-2.59,4.28,4.28,0,0,0-.89-1.55,2.85,2.85,0,0,0-1.1-.74,2.65,2.65,0,0,0-2,0,2.85,2.85,0,0,0-1.1.74,4.28,4.28,0,0,0-.89,1.55,7.8,7.8,0,0,0-.36,2.59,7.63,7.63,0,0,0,.36,2.57,4.46,4.46,0,0,0,.89,1.55,2.71,2.71,0,0,0,1.1.76A3.26,3.26,0,0,0,261.73,94.2Z"/><path class="cls-2" d="M280.46,83.28a2.56,2.56,0,0,1,1.22-1.43,4.69,4.69,0,0,1,1.55-.45,6.52,6.52,0,0,1,1.88.17l-3.79,9.1c-.49,1.14-1,2.28-1.44,3.4l-1.27,3c-.37.9-.68,1.65-.94,2.24s-.4.94-.44,1a2.88,2.88,0,0,1-1.22,1.46,4.22,4.22,0,0,1-1.52.46,4.78,4.78,0,0,1-1.88-.2c.27-.62.55-1.29.86-2s.57-1.37.91-2.2.71-1.69,1.1-2.62c-.06-.15-.2-.47-.41-1s-.45-1.07-.73-1.75-.58-1.42-.92-2.23-.68-1.61-1-2.42q-1.19-2.87-2.67-6.33a6.52,6.52,0,0,1,1.88-.17,4.57,4.57,0,0,1,1.54.45,2.73,2.73,0,0,1,1.23,1.43c.05.11.16.39.35.84s.42,1,.69,1.7.59,1.44.94,2.26.7,1.66,1.06,2.49c.39-.92.77-1.8,1.12-2.64l.94-2.24c.27-.66.49-1.2.66-1.63S280.42,83.37,280.46,83.28Z"/><path class="cls-2" d="M287.85,88.26a7,7,0,0,1,2-.84,9.93,9.93,0,0,1,2.34-.28,10.64,10.64,0,0,1,3.26.5,6.15,6.15,0,0,0-.43-1.82,2.85,2.85,0,0,0-1.28-1.48,3.32,3.32,0,0,0-.71-.25,4.45,4.45,0,0,0-.87-.08h-.37a5,5,0,0,0-.92.15,7.49,7.49,0,0,0-.92.28c-.31.11-.62.2-.93.28a3.44,3.44,0,0,1-.89.11,2.13,2.13,0,0,1-.89-.19,2.06,2.06,0,0,1-.69-.76l-.07-.14.07-.09a7.77,7.77,0,0,1,5.24-2.44,1.1,1.1,0,0,1,.28,0h.28a6.75,6.75,0,0,1,2.77.55,6.63,6.63,0,0,1,2.18,1.5,7.9,7.9,0,0,1,1.95,5.37v.27a8.57,8.57,0,0,1-1.75,5.57,7,7,0,0,1-2.06,1.71,7.24,7.24,0,0,1-2.69.83,2.6,2.6,0,0,1-.4,0h-.42a10.7,10.7,0,0,1-1.46-.11,7.33,7.33,0,0,1-2.86-1.22,4.15,4.15,0,0,1-1.06-1.24,4.35,4.35,0,0,1-.66-2.34v-.2a4,4,0,0,1,.53-2.14A4.18,4.18,0,0,1,287.85,88.26Zm6.82,1.59-1-.14a10,10,0,0,0-1.11-.06,6.55,6.55,0,0,0-.89,0,3.26,3.26,0,0,0-.79.18,2.46,2.46,0,0,0-1.25.82,1.43,1.43,0,0,0-.26.45,2.13,2.13,0,0,0-.14.54,1.15,1.15,0,0,0,0,.3,2.69,2.69,0,0,0,.1.71,1.75,1.75,0,0,0,.4.71,2,2,0,0,0,.77.56,3.45,3.45,0,0,0,1.37.23,1.79,1.79,0,0,0,.39,0,3,3,0,0,0,1.62-.53,2,2,0,0,0,.56-.48,3.56,3.56,0,0,0,.4-.61,4.33,4.33,0,0,0,.49-1.29,6,6,0,0,0,.13-1.22h0a.06.06,0,0,0-.05,0l-.29-.07Z"/><path class="cls-2" d="M316.14,89.88a8.37,8.37,0,0,1-.66,3.59,5.82,5.82,0,0,1-1.7,2.18,6,6,0,0,1-2.32,1.09,11.27,11.27,0,0,1-5.08,0,6.08,6.08,0,0,1-2.33-1.09,5.68,5.68,0,0,1-1.68-2.18,8.55,8.55,0,0,1-.64-3.59l0-4.65a3.39,3.39,0,0,1,1.07-2.82,5,5,0,0,1,3.12-.84c0,.13-.05.33-.07.59s0,.57-.05,1,0,1,0,1.62l0,5.11a7.84,7.84,0,0,0,.26,2.22,3.37,3.37,0,0,0,.71,1.31,2.39,2.39,0,0,0,1,.62A3.68,3.68,0,0,0,310,94a2.39,2.39,0,0,0,1-.62,3.25,3.25,0,0,0,.71-1.31,7.49,7.49,0,0,0,.26-2.22l0-4.65a3.36,3.36,0,0,1,1.08-2.82,5.06,5.06,0,0,1,3.14-.84c0,.13-.05.33-.07.59s0,.57-.05,1,0,1,0,1.62Z"/><path class="cls-2" d="M339.48,88.36a7.1,7.1,0,0,0-.28-2.22,3.33,3.33,0,0,0-.74-1.32,2.37,2.37,0,0,0-1-.65,3.94,3.94,0,0,0-1.12-.16,3.82,3.82,0,0,0-1.11.16,2.28,2.28,0,0,0-1,.65,3.73,3.73,0,0,0-.72,1.32,7.1,7.1,0,0,0-.28,2.22v5.11q0,1,0,1.62c0,.42.05.75.07,1s0,.46.06.59a4.92,4.92,0,0,1-3.13-.86,3.36,3.36,0,0,1-1.09-2.8l0-4.65a7.41,7.41,0,0,0-.28-2.22,3.47,3.47,0,0,0-.75-1.32,2.26,2.26,0,0,0-1-.65A3.94,3.94,0,0,0,326,84a3.75,3.75,0,0,0-1.1.16,2.17,2.17,0,0,0-1,.65,3.31,3.31,0,0,0-.71,1.32,7.45,7.45,0,0,0-.27,2.22v5.11c0,.66,0,1.2,0,1.62s0,.75,0,1a4.54,4.54,0,0,0,.07.59,4.93,4.93,0,0,1-3.14-.86,3.36,3.36,0,0,1-1.08-2.8l0-4.65a8.71,8.71,0,0,1,.64-3.61,5.7,5.7,0,0,1,1.67-2.19,5.55,5.55,0,0,1,2.29-1.07,11.51,11.51,0,0,1,5.26.05,5.54,5.54,0,0,1,2.4,1.25,5.63,5.63,0,0,1,2.41-1.25,11.54,11.54,0,0,1,2.74-.33,11.76,11.76,0,0,1,2.54.28,5.67,5.67,0,0,1,2.32,1.07,5.53,5.53,0,0,1,1.68,2.19,8.7,8.7,0,0,1,.65,3.61v5.11c0,.66,0,1.2,0,1.62s0,.75.05,1,.05.46.07.59a4.87,4.87,0,0,1-3.12-.86,3.38,3.38,0,0,1-1.07-2.8Z"/><path class="cls-2" d="M358.54,93.47a2.41,2.41,0,0,1,.76.79l.1.1-.1.1a7.79,7.79,0,0,1-2.59,1.86,7.65,7.65,0,0,1-3.24.68,6.74,6.74,0,0,1-2.86-.61,7.41,7.41,0,0,1-2.35-1.7,7.76,7.76,0,0,1-1.57-2.49,8,8,0,0,1-.58-3.08,9.09,9.09,0,0,1,.51-3.08,7.68,7.68,0,0,1,1.47-2.53,7.11,7.11,0,0,1,2.33-1.68,7.32,7.32,0,0,1,3.05-.62,8.08,8.08,0,0,1,2,.28,6.64,6.64,0,0,1,2.06.89,5.06,5.06,0,0,1,1.59,1.6,4.4,4.4,0,0,1,.62,2.37,3.34,3.34,0,0,1-.69,2.19,5,5,0,0,1-1.65,1.32,7.11,7.11,0,0,1-2,.66,11.35,11.35,0,0,1-1.86.18,13.32,13.32,0,0,1-2.13-.15c-.6-.09-1-.17-1.23-.21a5.34,5.34,0,0,0,.53,1.93,4.09,4.09,0,0,0,.89,1.17,2.7,2.7,0,0,0,1,.58,3.07,3.07,0,0,0,.89.15,6.12,6.12,0,0,0,1.31-.14,8.81,8.81,0,0,0,1.13-.29l.94-.33a2.45,2.45,0,0,1,.87-.17A1.51,1.51,0,0,1,358.54,93.47ZM353.47,84a4.14,4.14,0,0,0-.86.18,2.77,2.77,0,0,0-1,.54,3.93,3.93,0,0,0-.88,1.13,5.63,5.63,0,0,0-.56,1.84,10.63,10.63,0,0,0,1.5.32,8,8,0,0,0,1.95,0,3.81,3.81,0,0,0,1.71-.56,1.79,1.79,0,0,0,.81-1.55,1.62,1.62,0,0,0-.64-1.41A2.91,2.91,0,0,0,353.47,84Z"/><path class="cls-2" d="M384.43,89.12a8.81,8.81,0,0,1-.53,3,7.91,7.91,0,0,1-1.48,2.52,6.83,6.83,0,0,1-2.33,1.68,7.2,7.2,0,0,1-3,.63,6.59,6.59,0,0,1-2.85-.63,7.48,7.48,0,0,1-3.92-4.17,8,8,0,0,1-.58-3.08A9.09,9.09,0,0,1,370.2,86a7.68,7.68,0,0,1,1.47-2.53A7.17,7.17,0,0,1,374,81.83a7.36,7.36,0,0,1,3.05-.62,6.75,6.75,0,0,1,3.37.85l0-4.65a3.36,3.36,0,0,1,1.09-2.82,5.06,5.06,0,0,1,3.14-.84,4.75,4.75,0,0,0-.07.6c0,.24,0,.57,0,1s0,1,0,1.61Zm-7.39,5a3.26,3.26,0,0,0,1-.2,2.85,2.85,0,0,0,1.1-.74,4.36,4.36,0,0,0,.89-1.55,9.25,9.25,0,0,0,0-5.18,4.28,4.28,0,0,0-.89-1.55,2.85,2.85,0,0,0-1.1-.74,3,3,0,0,0-1-.2,2.94,2.94,0,0,0-1,.2,2.81,2.81,0,0,0-1.11.74A4.28,4.28,0,0,0,374,86.5a9.5,9.5,0,0,0,0,5.18,4.36,4.36,0,0,0,.89,1.55A2.81,2.81,0,0,0,376,94,3.21,3.21,0,0,0,377,94.17Z"/><path class="cls-2" d="M401.64,89.88a8.37,8.37,0,0,1-.66,3.59,5.72,5.72,0,0,1-1.7,2.18A6,6,0,0,1,397,96.74a11.27,11.27,0,0,1-5.08,0,6,6,0,0,1-2.32-1.09,5.61,5.61,0,0,1-1.69-2.18,8.71,8.71,0,0,1-.64-3.59l0-4.65a3.36,3.36,0,0,1,1.07-2.82,5,5,0,0,1,3.11-.84c0,.13,0,.33-.06.59s0,.57-.05,1,0,1,0,1.62l0,5.11a7.45,7.45,0,0,0,.27,2.22,3.13,3.13,0,0,0,.71,1.31,2.27,2.27,0,0,0,1,.62,3.64,3.64,0,0,0,2.2,0,2.27,2.27,0,0,0,1-.62,3.13,3.13,0,0,0,.71-1.31,7.45,7.45,0,0,0,.27-2.22l0-4.65a3.33,3.33,0,0,1,1.09-2.82,5,5,0,0,1,3.13-.84c0,.13,0,.33-.06.59s0,.57-.05,1,0,1,0,1.62Z"/><path class="cls-2" d="M433.79,93.47c0,.66,0,1.2,0,1.62s0,.75.05,1,0,.46.06.59a5,5,0,0,1-3.1-.84A3.36,3.36,0,0,1,429.74,93l.19-15.4c-.61,1.78-1.21,3.44-1.78,5l-.74,2c-.25.69-.49,1.35-.72,2l-.65,1.7a13.74,13.74,0,0,1-.53,1.27,3,3,0,0,1-1.25,1.5,4,4,0,0,1-1.45.48,4.3,4.3,0,0,1-1.68-.23l-5.08-13.69.13,15.86c0,.66,0,1.2,0,1.62s0,.75.05,1,0,.46.06.59a5,5,0,0,1-3.11-.84A3.36,3.36,0,0,1,412.13,93V74l.13-.07a3.92,3.92,0,0,0,.46-.1l.51-.06a4.19,4.19,0,0,1,.65,0,7,7,0,0,1,2,.27,5,5,0,0,1,1.73.87,6.72,6.72,0,0,1,1.5,1.65,13,13,0,0,1,1.29,2.59,5.45,5.45,0,0,0,.18.53c.1.26.22.58.35,1s.27.78.43,1.22l.46,1.35c.37,1.06.78,2.24,1.22,3.53l2.6-7.58a13.56,13.56,0,0,1,1.29-2.59,6.72,6.72,0,0,1,1.5-1.65,5.13,5.13,0,0,1,1.73-.87,7.07,7.07,0,0,1,2-.27,4.06,4.06,0,0,1,.64,0l.51.06a3.65,3.65,0,0,0,.47.1l.13.07Z"/><path class="cls-2" d="M438.51,88.26a7,7,0,0,1,2-.84,10,10,0,0,1,2.34-.28,10.75,10.75,0,0,1,3.27.5,6.48,6.48,0,0,0-.43-1.82,2.91,2.91,0,0,0-1.29-1.48,3.32,3.32,0,0,0-.71-.25,4.45,4.45,0,0,0-.87-.08h-.36a5,5,0,0,0-.93.15,8.06,8.06,0,0,0-.92.28c-.31.11-.62.2-.93.28a3.44,3.44,0,0,1-.89.11,2.16,2.16,0,0,1-.89-.19,2.06,2.06,0,0,1-.69-.76l-.06-.14.06-.09a7.73,7.73,0,0,1,2.33-1.7,7.63,7.63,0,0,1,2.92-.74,1,1,0,0,1,.28,0H443a6.7,6.7,0,0,1,2.76.55,6.53,6.53,0,0,1,2.18,1.5,7.85,7.85,0,0,1,1.95,5.37v.27a8.57,8.57,0,0,1-1.75,5.57,7,7,0,0,1-2.06,1.71,7.18,7.18,0,0,1-2.69.83,2.56,2.56,0,0,1-.39,0h-.43a10.45,10.45,0,0,1-1.45-.11,5.8,5.8,0,0,1-1.49-.45,6,6,0,0,1-1.38-.77,4.15,4.15,0,0,1-1.06-1.24,4.35,4.35,0,0,1-.66-2.34v-.2a4,4,0,0,1,.53-2.14A4.18,4.18,0,0,1,438.51,88.26Zm6.82,1.59-1-.14a10,10,0,0,0-1.1-.06,6.37,6.37,0,0,0-.89,0,3.34,3.34,0,0,0-.8.18,2.46,2.46,0,0,0-1.25.82,1.43,1.43,0,0,0-.26.45,1.78,1.78,0,0,0-.13.54.8.8,0,0,0,0,.3,3.19,3.19,0,0,0,.1.71,1.75,1.75,0,0,0,.4.71,2,2,0,0,0,.77.56,3.45,3.45,0,0,0,1.37.23,2,2,0,0,0,.4,0,3,3,0,0,0,1.61-.53,2,2,0,0,0,.56-.48,3.06,3.06,0,0,0,.4-.61,4.33,4.33,0,0,0,.49-1.29,6.09,6.09,0,0,0,.14-1.22h-.05L446,90l-.3-.07Z"/><path class="cls-2" d="M452.39,88.72a8.71,8.71,0,0,1,.64-3.61,5.8,5.8,0,0,1,1.67-2.19A5.68,5.68,0,0,1,457,81.85a11.52,11.52,0,0,1,2.52-.28h1.62a3.13,3.13,0,0,1,.06,1.28,1.9,1.9,0,0,1-.44,1,1.77,1.77,0,0,1-1.24.56,6,6,0,0,0-1.1.25,2.36,2.36,0,0,0-1,.63,3.33,3.33,0,0,0-.7,1.26,7,7,0,0,0-.28,2.21v4.79c0,.66,0,1.19,0,1.59s0,.74.05,1,.05.46.07.59a5,5,0,0,1-3.1-.84A3.33,3.33,0,0,1,452.39,93Z"/><path class="cls-2" d="M474.38,83.55A7.5,7.5,0,0,1,476,86a8,8,0,0,1,.58,3.08A8.86,8.86,0,0,1,476,92.2a7.55,7.55,0,0,1-1.48,2.49,6.9,6.9,0,0,1-2.33,1.72,7.36,7.36,0,0,1-3.05.62,6.73,6.73,0,0,1-2.85-.62,7.73,7.73,0,0,1-3.92-4.21,8,8,0,0,1-.58-3.08,9.09,9.09,0,0,1,.51-3.08,7.21,7.21,0,0,1,1.47-2.49,6.86,6.86,0,0,1,2.32-1.72,7.36,7.36,0,0,1,3.05-.62,6.82,6.82,0,0,1,2.89.62A7.28,7.28,0,0,1,474.38,83.55ZM469.17,94.2a3.26,3.26,0,0,0,1-.2,2.71,2.71,0,0,0,1.1-.76,4.46,4.46,0,0,0,.89-1.55,7.36,7.36,0,0,0,.37-2.57,7.52,7.52,0,0,0-.37-2.59,4.28,4.28,0,0,0-.89-1.55,2.85,2.85,0,0,0-1.1-.74,3.26,3.26,0,0,0-1-.2,3.21,3.21,0,0,0-1,.2,2.81,2.81,0,0,0-1.11.74,4.28,4.28,0,0,0-.89,1.55,7.8,7.8,0,0,0-.36,2.59,7.63,7.63,0,0,0,.36,2.57,4.46,4.46,0,0,0,.89,1.55,2.67,2.67,0,0,0,1.11.76A3.21,3.21,0,0,0,469.17,94.2Z"/><path class="cls-2" d="M486.22,84a2.9,2.9,0,0,0-1,.2,2.81,2.81,0,0,0-1.11.74,4.28,4.28,0,0,0-.89,1.55,9.5,9.5,0,0,0,0,5.18,4.36,4.36,0,0,0,.89,1.55,2.81,2.81,0,0,0,1.11.74,3.16,3.16,0,0,0,1,.2,6.28,6.28,0,0,0,1.32-.14,8.63,8.63,0,0,0,1.12-.29c.33-.14.64-.25.94-.35a2.76,2.76,0,0,1,.88-.15,1.81,1.81,0,0,1,.85.23,3.19,3.19,0,0,1,.76.76l.07.13-.1.1a7.9,7.9,0,0,1-2.59,1.86,7.59,7.59,0,0,1-3.22.68,6.66,6.66,0,0,1-2.88-.63,7.48,7.48,0,0,1-3.92-4.17,8,8,0,0,1-.58-3.08A8.63,8.63,0,0,1,479.4,86a7.88,7.88,0,0,1,1.48-2.53,7,7,0,0,1,5.34-2.3,7.81,7.81,0,0,1,3.25.67,7.9,7.9,0,0,1,2.59,1.86l.1.1-.1.14a1.79,1.79,0,0,1-.76.75,1.35,1.35,0,0,1-.82.24,2.76,2.76,0,0,1-.88-.15l-.94-.32a8.32,8.32,0,0,0-1.12-.34A5.68,5.68,0,0,0,486.22,84Z"/><path class="cls-2" d="M111.65,506.42a3.62,3.62,0,0,1,1.07-2.93,4.93,4.93,0,0,1,3.19-.89c0,.16,0,.38-.07.65s0,.59,0,1,0,1,0,1.65l0,17.08c0,.71,0,1.27,0,1.69s0,.76,0,1a5,5,0,0,0,.07.61,5.08,5.08,0,0,1-3.21-.87,3.5,3.5,0,0,1-1.09-2.91v-7.3H102V523c0,.71,0,1.27,0,1.69s0,.76,0,1,0,.47.07.61a5.13,5.13,0,0,1-3.22-.87,3.48,3.48,0,0,1-1.11-2.91l.07-16.1a3.62,3.62,0,0,1,1.07-2.93,4.93,4.93,0,0,1,3.19-.89c0,.16,0,.38-.07.65s0,.59,0,1,0,1,0,1.65v5.93h9.61Z"/><path class="cls-2" d="M120.65,517.61a7,7,0,0,1,2.08-.87,9.61,9.61,0,0,1,2.42-.29,11.11,11.11,0,0,1,3.38.51,6.48,6.48,0,0,0-.45-1.88,2.92,2.92,0,0,0-1.33-1.53,2.87,2.87,0,0,0-.73-.26,4.78,4.78,0,0,0-.9-.08h-.38a5.21,5.21,0,0,0-.95.15c-.32.08-.64.18-1,.29s-.63.21-1,.29a3.81,3.81,0,0,1-.92.12,2.1,2.1,0,0,1-.92-.21,2,2,0,0,1-.72-.78l-.07-.14.07-.1a7.82,7.82,0,0,1,2.41-1.75,7.92,7.92,0,0,1,3-.77,2,2,0,0,1,.29,0h.29a7.07,7.07,0,0,1,2.87.57,6.91,6.91,0,0,1,2.25,1.55,8.19,8.19,0,0,1,2,5.56v.27a8.81,8.81,0,0,1-1.81,5.76,7,7,0,0,1-2.13,1.77,7.48,7.48,0,0,1-2.78.86,2.73,2.73,0,0,1-.41,0h-.44a9.87,9.87,0,0,1-1.5-.12,5.79,5.79,0,0,1-1.54-.46,5.72,5.72,0,0,1-1.43-.8,4.28,4.28,0,0,1-1.09-1.28,4.5,4.5,0,0,1-.68-2.42v-.2a4.11,4.11,0,0,1,.55-2.22A4.16,4.16,0,0,1,120.65,517.61Zm7.06,1.63-1-.13a8.51,8.51,0,0,0-1.14-.07,6.9,6.9,0,0,0-.92.05,3.4,3.4,0,0,0-.82.19,2.47,2.47,0,0,0-1.29.85,1.53,1.53,0,0,0-.28.46,2.42,2.42,0,0,0-.13.56.83.83,0,0,0,0,.31,2.81,2.81,0,0,0,.11.73,1.65,1.65,0,0,0,.4.73,2,2,0,0,0,.81.58,3.44,3.44,0,0,0,1.41.24,2.07,2.07,0,0,0,.41,0,3,3,0,0,0,1.67-.55,2.13,2.13,0,0,0,.58-.49,3,3,0,0,0,.41-.63,4.35,4.35,0,0,0,.51-1.33,6.64,6.64,0,0,0,.14-1.26.06.06,0,0,1-.05,0l0,0-.31-.07A3,3,0,0,1,127.71,519.24Z"/><path class="cls-2" d="M149.91,519.28a8.56,8.56,0,0,1-.69,3.71,5.92,5.92,0,0,1-1.75,2.25,6.29,6.29,0,0,1-2.41,1.13,11.86,11.86,0,0,1-2.62.31,12,12,0,0,1-2.63-.31,6.31,6.31,0,0,1-2.4-1.13,5.72,5.72,0,0,1-1.74-2.25,8.9,8.9,0,0,1-.66-3.71l0-4.81a3.49,3.49,0,0,1,1.11-2.92,5.13,5.13,0,0,1,3.22-.87c0,.14-.05.35-.07.62s0,.59-.05,1,0,1,0,1.67l0,5.29a8,8,0,0,0,.27,2.3,3.33,3.33,0,0,0,.73,1.34,2.34,2.34,0,0,0,1,.65,3.91,3.91,0,0,0,2.28,0,2.26,2.26,0,0,0,1-.65,3.22,3.22,0,0,0,.74-1.34,8,8,0,0,0,.27-2.3l0-4.81a3.47,3.47,0,0,1,1.13-2.92,5.21,5.21,0,0,1,3.24-.87c0,.14,0,.35-.07.62s0,.59-.05,1,0,1,0,1.67Z"/><path class="cls-2" d="M162.11,523.3a.75.75,0,0,0,0,.24,2.4,2.4,0,0,1,.07.51,2.29,2.29,0,0,1-.28,1.11,2.38,2.38,0,0,1-.75.83,3.84,3.84,0,0,1-2.32.69,5.18,5.18,0,0,1-2.21-.52,6,6,0,0,1-2-1.53,7.66,7.66,0,0,1-1.41-2.54,10.63,10.63,0,0,1-.53-3.56l0-9.86a3.56,3.56,0,0,1,1.09-2.93,5,5,0,0,1,3.17-.89c0,.16,0,.38-.07.65s0,.59-.05,1,0,1,0,1.65l0,2.15h4.57a3.49,3.49,0,0,1-.85,2.45,3.12,3.12,0,0,1-2.42.92h-1.3l0,4.85a9.66,9.66,0,0,0,.25,2.4,4.88,4.88,0,0,0,.7,1.59,2.93,2.93,0,0,0,2.39,1.16,4.36,4.36,0,0,0,1.23-.18Z"/><path class="cls-2" d="M183.12,526.64a12.55,12.55,0,0,1-4.37-.78,11,11,0,0,1-3.73-2.32,11.45,11.45,0,0,1-2.61-3.82,14.6,14.6,0,0,1,0-10.57,11.45,11.45,0,0,1,2.61-3.82,10.65,10.65,0,0,1,3.73-2.3,12.77,12.77,0,0,1,4.37-.77,8.75,8.75,0,0,1,2.52.33,9.29,9.29,0,0,1,1.89.76,6,6,0,0,1,1.28.91,4,4,0,0,1,.65.73,2,2,0,0,1-.24.37,1.59,1.59,0,0,1-.25.33,1.26,1.26,0,0,1-.33.22,1.53,1.53,0,0,1-.85.24,2.38,2.38,0,0,1-.89-.16l-.9-.32a11.35,11.35,0,0,0-1.18-.32,8,8,0,0,0-1.7-.16,6.65,6.65,0,0,0-2.61.55,6.56,6.56,0,0,0-2.3,1.67,8.34,8.34,0,0,0-1.64,2.88,14.42,14.42,0,0,0,0,8.3,8.68,8.68,0,0,0,1.64,2.89,6.57,6.57,0,0,0,4.91,2.23,8,8,0,0,0,1.7-.15,11.16,11.16,0,0,0,1.18-.33l.9-.32a2.6,2.6,0,0,1,.89-.16,1.53,1.53,0,0,1,.85.24,2.81,2.81,0,0,1,.58.55,2.35,2.35,0,0,1,.24.37,3.46,3.46,0,0,1-.65.77,5.69,5.69,0,0,1-1.28.89,10.62,10.62,0,0,1-1.89.75A9.13,9.13,0,0,1,183.12,526.64Z"/><path class="cls-2" d="M203.81,512.73a8,8,0,0,1,1.66,2.57,8.46,8.46,0,0,1,.6,3.19,9.25,9.25,0,0,1-.55,3.19,7.63,7.63,0,0,1-1.54,2.57,6.88,6.88,0,0,1-2.4,1.78,7.49,7.49,0,0,1-3.15.65,6.87,6.87,0,0,1-3-.65,7.75,7.75,0,0,1-2.44-1.78,8.15,8.15,0,0,1-1.62-2.57,8.42,8.42,0,0,1-.6-3.19,9.53,9.53,0,0,1,.53-3.19,7.61,7.61,0,0,1,1.52-2.57,7.07,7.07,0,0,1,2.4-1.77,7.41,7.41,0,0,1,3.16-.65,6.8,6.8,0,0,1,3,.65A7.49,7.49,0,0,1,203.81,512.73Zm-5.38,11a3.2,3.2,0,0,0,1-.2,2.91,2.91,0,0,0,1.14-.79,4.65,4.65,0,0,0,.92-1.6,7.85,7.85,0,0,0,.38-2.66,8,8,0,0,0-.38-2.67,4.52,4.52,0,0,0-.92-1.61,2.92,2.92,0,0,0-1.14-.76,3.24,3.24,0,0,0-1-.21,3.14,3.14,0,0,0-1,.21,2.85,2.85,0,0,0-1.14.76,4.38,4.38,0,0,0-.93,1.61,8,8,0,0,0-.37,2.67,7.88,7.88,0,0,0,.37,2.66,4.5,4.5,0,0,0,.93,1.6,2.84,2.84,0,0,0,1.14.79A3.11,3.11,0,0,0,198.43,523.74Z"/><path class="cls-2" d="M229.93,517.71a7.24,7.24,0,0,0-.29-2.3,3.64,3.64,0,0,0-.76-1.37,2.36,2.36,0,0,0-1.06-.66,3.88,3.88,0,0,0-1.16-.17,3.66,3.66,0,0,0-1.14.17,2.28,2.28,0,0,0-1,.66,3.93,3.93,0,0,0-.75,1.37,7.57,7.57,0,0,0-.28,2.3V523c0,.69,0,1.24,0,1.67s0,.78.07,1a5,5,0,0,0,.07.61,5.08,5.08,0,0,1-3.24-.89,3.45,3.45,0,0,1-1.13-2.89l0-4.81a7.57,7.57,0,0,0-.28-2.3,3.65,3.65,0,0,0-.77-1.37,2.36,2.36,0,0,0-1.06-.66,3.88,3.88,0,0,0-1.16-.17,3.66,3.66,0,0,0-1.14.17,2.2,2.2,0,0,0-1,.66,3.49,3.49,0,0,0-.74,1.37,8,8,0,0,0-.27,2.3V523c0,.69,0,1.24,0,1.67s0,.78,0,1a5,5,0,0,0,.07.61,5.08,5.08,0,0,1-3.24-.89,3.45,3.45,0,0,1-1.13-2.89l0-4.81a9.11,9.11,0,0,1,.66-3.74,5.71,5.71,0,0,1,4.09-3.37,12.35,12.35,0,0,1,2.61-.29,11.72,11.72,0,0,1,2.83.34,5.85,5.85,0,0,1,2.49,1.3,5.85,5.85,0,0,1,2.49-1.3,11.78,11.78,0,0,1,2.83-.34,12.61,12.61,0,0,1,2.63.29,6,6,0,0,1,2.4,1.11,5.75,5.75,0,0,1,1.74,2.26,9.11,9.11,0,0,1,.66,3.74V523c0,.69,0,1.24,0,1.67s0,.78,0,1,.05.47.07.61a5,5,0,0,1-3.22-.89,3.48,3.48,0,0,1-1.11-2.89Z"/><path class="cls-2" d="M258.27,517.71a7.54,7.54,0,0,0-.29-2.3,3.52,3.52,0,0,0-.77-1.37,2.36,2.36,0,0,0-1.06-.66,3.82,3.82,0,0,0-1.15-.17,3.77,3.77,0,0,0-1.15.17,2.3,2.3,0,0,0-1,.66,3.63,3.63,0,0,0-.75,1.37,7.54,7.54,0,0,0-.29,2.3V523c0,.69,0,1.24,0,1.67s.05.78.07,1,.05.47.07.61a5.08,5.08,0,0,1-3.24-.89,3.45,3.45,0,0,1-1.12-2.89l0-4.81a7.54,7.54,0,0,0-.29-2.3,3.52,3.52,0,0,0-.77-1.37,2.39,2.39,0,0,0-1-.66,3.93,3.93,0,0,0-1.16-.17,3.77,3.77,0,0,0-1.15.17,2.3,2.3,0,0,0-1,.66,3.48,3.48,0,0,0-.73,1.37,8,8,0,0,0-.27,2.3V523c0,.69,0,1.24,0,1.67s0,.78.05,1,.05.47.07.61a5.08,5.08,0,0,1-3.24-.89,3.45,3.45,0,0,1-1.12-2.89l0-4.81a8.94,8.94,0,0,1,.67-3.74,5.71,5.71,0,0,1,4.09-3.37,12.21,12.21,0,0,1,2.61-.29,11.84,11.84,0,0,1,2.83.34,5.85,5.85,0,0,1,2.49,1.3,5.76,5.76,0,0,1,2.48-1.3,11.86,11.86,0,0,1,2.84-.34,12.52,12.52,0,0,1,2.62.29,5.87,5.87,0,0,1,2.4,1.11,5.75,5.75,0,0,1,1.74,2.26,8.94,8.94,0,0,1,.67,3.74V523c0,.69,0,1.24,0,1.67s0,.78.05,1,0,.47.06.61a5,5,0,0,1-3.22-.89,3.48,3.48,0,0,1-1.11-2.89Z"/><path class="cls-2" d="M269.52,505.64a2.22,2.22,0,0,1-2,1.19,2.25,2.25,0,0,1-1-.24,2.07,2.07,0,0,1-.78-.8,2.11,2.11,0,0,1-.28-1.07,2.14,2.14,0,0,1,.31-1.16,2.25,2.25,0,0,1,2-1.23,2,2,0,0,1,1,.27,1.87,1.87,0,0,1,.81.79,2.19,2.19,0,0,1,.28,1.09A2.29,2.29,0,0,1,269.52,505.64Zm2.66,17.59a1.18,1.18,0,0,1-.58.39,1.55,1.55,0,0,1-.82.09,1.19,1.19,0,0,1-.71-.43,1.76,1.76,0,0,1-.31-1.17V514c0-.68,0-1.24,0-1.66s0-.75.05-1a6.46,6.46,0,0,1,.07-.65,5,5,0,0,0-3.21.89,3.55,3.55,0,0,0-1.09,2.93l0,8a5.25,5.25,0,0,0,.26,1.63,3.6,3.6,0,0,0,.79,1.37,3.64,3.64,0,0,0,1.31.9,3.73,3.73,0,0,0,1.84.22,2.21,2.21,0,0,0,1.6-.63,2.86,2.86,0,0,0,.68-1.18A4.33,4.33,0,0,0,272.18,523.23Z"/><path class="cls-2" d="M281.86,522.31a1.1,1.1,0,0,0-.32-1,4.25,4.25,0,0,0-1.13-.75c-.48-.24-1.06-.49-1.72-.77a13.53,13.53,0,0,1-2.08-1.09,4.85,4.85,0,0,1-1.34-1.14,4.24,4.24,0,0,1-.77-1.43,4.65,4.65,0,0,1-.21-1.57,4.56,4.56,0,0,1,.38-1.59,3.87,3.87,0,0,1,.89-1.26,4.57,4.57,0,0,1,1.21-.83,5.32,5.32,0,0,1,1.34-.46,5.92,5.92,0,0,1,1.26-.14h.41a8.09,8.09,0,0,1,3.31.88,8.23,8.23,0,0,1,2.56,2.09l.1.1-.1.13a2.54,2.54,0,0,1-.75.72,1.56,1.56,0,0,1-.85.24,2.23,2.23,0,0,1-.92-.19l-1-.39c-.43-.18-.83-.34-1.21-.46a3.5,3.5,0,0,0-1.14-.19,1.68,1.68,0,0,0-1.13.33,1.19,1.19,0,0,0,0,1.84,4.92,4.92,0,0,0,1.4.8c.7.29,1.45.62,2.25,1a8.6,8.6,0,0,1,2.11,1.3,4.94,4.94,0,0,1,1.4,1.84,4,4,0,0,1,.1,2.6,5,5,0,0,1-.58,1.28,4.19,4.19,0,0,1-1.14,1.21,6.4,6.4,0,0,1-1.77.91,7.51,7.51,0,0,1-2.44.36,2.45,2.45,0,0,1-.44,0,8.23,8.23,0,0,1-5.87-2.93l-.1-.1.1-.14a1.66,1.66,0,0,1,.38-.44c.13-.12.26-.22.37-.31a1.77,1.77,0,0,1,.82-.2,2.43,2.43,0,0,1,.92.18l.95.4a6.77,6.77,0,0,0,1.08.4,6.36,6.36,0,0,0,1.31.24,2.67,2.67,0,0,0,1.76-.47A1.63,1.63,0,0,0,281.86,522.31Z"/><path class="cls-2" d="M296.08,522.31a1.1,1.1,0,0,0-.32-1,4.25,4.25,0,0,0-1.13-.75c-.49-.24-1.06-.49-1.72-.77a13.53,13.53,0,0,1-2.08-1.09,5,5,0,0,1-1.35-1.14,4.39,4.39,0,0,1-.76-1.43,4.65,4.65,0,0,1-.21-1.57,4.56,4.56,0,0,1,.38-1.59,3.85,3.85,0,0,1,.88-1.26,4.92,4.92,0,0,1,1.21-.83,5.53,5.53,0,0,1,1.35-.46,5.92,5.92,0,0,1,1.26-.14H294a8.09,8.09,0,0,1,3.31.88,8.23,8.23,0,0,1,2.56,2.09l.1.1-.1.13a2.54,2.54,0,0,1-.75.72,1.57,1.57,0,0,1-.86.24,2.3,2.3,0,0,1-.92-.19l-.95-.39c-.43-.18-.84-.34-1.21-.46a3.5,3.5,0,0,0-1.14-.19,1.68,1.68,0,0,0-1.13.33,1.19,1.19,0,0,0,0,1.84,5,5,0,0,0,1.39.8c.71.29,1.46.62,2.26,1a8.6,8.6,0,0,1,2.11,1.3,5,5,0,0,1,1.4,1.84,4,4,0,0,1,.1,2.6,5,5,0,0,1-.58,1.28,4.19,4.19,0,0,1-1.14,1.21,6.4,6.4,0,0,1-1.77.91,7.51,7.51,0,0,1-2.44.36,2.58,2.58,0,0,1-.45,0,7.92,7.92,0,0,1-3.22-.85,7.78,7.78,0,0,1-2.64-2.08l-.1-.1.1-.14a1.83,1.83,0,0,1,.37-.44l.38-.31a1.74,1.74,0,0,1,.82-.2,2.43,2.43,0,0,1,.92.18l.95.4a6.77,6.77,0,0,0,1.08.4,6.24,6.24,0,0,0,1.31.24,2.67,2.67,0,0,0,1.76-.47A1.63,1.63,0,0,0,296.08,522.31Z"/><path class="cls-2" d="M304.54,517.61a6.82,6.82,0,0,1,2.08-.87,9.61,9.61,0,0,1,2.42-.29,11,11,0,0,1,3.37.51,6.18,6.18,0,0,0-.44-1.88,3,3,0,0,0-1.33-1.53,3,3,0,0,0-.73-.26,4.81,4.81,0,0,0-.91-.08h-.37a5.32,5.32,0,0,0-1,.15c-.31.08-.63.18-.95.29s-.64.21-1,.29a3.83,3.83,0,0,1-.93.12,2.17,2.17,0,0,1-.92-.21,2,2,0,0,1-.71-.78l-.07-.14.07-.1a8,8,0,0,1,5.42-2.52,1.81,1.81,0,0,1,.29,0h.29a7,7,0,0,1,2.86.57,6.71,6.71,0,0,1,2.25,1.55,8.15,8.15,0,0,1,2,5.56v.27a8.86,8.86,0,0,1-1.81,5.76,7,7,0,0,1-2.13,1.77,7.48,7.48,0,0,1-2.78.86,2.83,2.83,0,0,1-.41,0h-.44a9.87,9.87,0,0,1-1.5-.12,7.4,7.4,0,0,1-3-1.26,4.14,4.14,0,0,1-1.09-1.28,4.5,4.5,0,0,1-.68-2.42v-.2a4.2,4.2,0,0,1,.54-2.22A4.27,4.27,0,0,1,304.54,517.61Zm7.06,1.63-1-.13a8.62,8.62,0,0,0-1.14-.07,6.81,6.81,0,0,0-.92.05,3.4,3.4,0,0,0-.82.19,2.54,2.54,0,0,0-1.3.85,1.74,1.74,0,0,0-.27.46,2.42,2.42,0,0,0-.14.56,1.19,1.19,0,0,0,0,.31,2.78,2.78,0,0,0,.1.73,1.78,1.78,0,0,0,.41.73,2,2,0,0,0,.8.58,3.49,3.49,0,0,0,1.42.24,2.07,2.07,0,0,0,.41,0,3,3,0,0,0,1.67-.55,2.29,2.29,0,0,0,.58-.49,3.41,3.41,0,0,0,.41-.63,4.35,4.35,0,0,0,.51-1.33,6.57,6.57,0,0,0,.13-1.26l-.05,0-.05,0-.3-.07A3,3,0,0,1,311.6,519.24Z"/><path class="cls-2" d="M318.89,518.08a8.89,8.89,0,0,1,.67-3.73,5.84,5.84,0,0,1,1.72-2.27,6,6,0,0,1,2.37-1.11,12.21,12.21,0,0,1,2.61-.29h1.67A3.38,3.38,0,0,1,328,512a2,2,0,0,1-.46,1,1.86,1.86,0,0,1-1.28.58,5.54,5.54,0,0,0-1.14.26,2.4,2.4,0,0,0-1,.65,3.31,3.31,0,0,0-.73,1.31,7.1,7.1,0,0,0-.29,2.28V523c0,.68,0,1.23,0,1.65s0,.76.06,1,0,.47.06.61a5.14,5.14,0,0,1-3.2-.87,3.46,3.46,0,0,1-1.13-2.91Z"/><path class="cls-2" d="M334,505.64a2.25,2.25,0,0,1-3,.95,2.09,2.09,0,0,1-.79-.8,2.21,2.21,0,0,1-.27-1.07,2.14,2.14,0,0,1,.31-1.16,2.26,2.26,0,0,1,.85-.91,2.22,2.22,0,0,1,1.12-.32,2,2,0,0,1,1,.27,1.85,1.85,0,0,1,.82.79,2.29,2.29,0,0,1,.27,1.09A2.39,2.39,0,0,1,334,505.64Zm2.66,17.59a1.23,1.23,0,0,1-.58.39,1.56,1.56,0,0,1-.82.09,1.24,1.24,0,0,1-.72-.43,1.82,1.82,0,0,1-.3-1.17V514c0-.68,0-1.24,0-1.66s0-.75.05-1,.05-.49.07-.65a5,5,0,0,0-3.2.89,3.55,3.55,0,0,0-1.09,2.93l0,8a5.25,5.25,0,0,0,.26,1.63,3.54,3.54,0,0,0,2.09,2.27,3.79,3.79,0,0,0,1.85.22,2.23,2.23,0,0,0,1.6-.63,2.86,2.86,0,0,0,.68-1.18A4.56,4.56,0,0,0,336.66,523.23Z"/><path class="cls-2" d="M340.24,517.61a6.82,6.82,0,0,1,2.08-.87,9.61,9.61,0,0,1,2.42-.29,11,11,0,0,1,3.37.51,6.18,6.18,0,0,0-.44-1.88,3,3,0,0,0-1.33-1.53,3,3,0,0,0-.73-.26,4.81,4.81,0,0,0-.91-.08h-.37a5.32,5.32,0,0,0-1,.15c-.31.08-.63.18-.95.29s-.64.21-1,.29a3.69,3.69,0,0,1-.92.12,2.17,2.17,0,0,1-.92-.21,2,2,0,0,1-.71-.78l-.07-.14.07-.1a8,8,0,0,1,5.42-2.52,1.81,1.81,0,0,1,.29,0h.29a7,7,0,0,1,2.86.57,6.71,6.71,0,0,1,2.25,1.55,8.15,8.15,0,0,1,2,5.56v.27a8.86,8.86,0,0,1-1.81,5.76,7,7,0,0,1-2.13,1.77,7.48,7.48,0,0,1-2.78.86,2.83,2.83,0,0,1-.41,0h-.44a9.87,9.87,0,0,1-1.5-.12,7.4,7.4,0,0,1-3-1.26,4.14,4.14,0,0,1-1.09-1.28,4.5,4.5,0,0,1-.68-2.42v-.2a4.2,4.2,0,0,1,.54-2.22A4.27,4.27,0,0,1,340.24,517.61Zm7.06,1.63-1-.13a8.72,8.72,0,0,0-1.14-.07,6.81,6.81,0,0,0-.92.05,3.4,3.4,0,0,0-.82.19,2.54,2.54,0,0,0-1.3.85,1.74,1.74,0,0,0-.27.46,2.42,2.42,0,0,0-.14.56,1.19,1.19,0,0,0,0,.31,2.78,2.78,0,0,0,.1.73,1.78,1.78,0,0,0,.41.73,2,2,0,0,0,.8.58,3.49,3.49,0,0,0,1.42.24,2.07,2.07,0,0,0,.41,0,3,3,0,0,0,1.67-.55,2.29,2.29,0,0,0,.58-.49,3.41,3.41,0,0,0,.41-.63,4.35,4.35,0,0,0,.51-1.33,6.57,6.57,0,0,0,.13-1.26l-.05,0-.05,0-.31-.07A2.9,2.9,0,0,1,347.3,519.24Z"/><path class="cls-2" d="M363.36,523.3a1.12,1.12,0,0,0,0,.24,1.89,1.89,0,0,1,.07.51,2.18,2.18,0,0,1-.28,1.11,2.45,2.45,0,0,1-.74.83,3.86,3.86,0,0,1-2.32.69,5.22,5.22,0,0,1-2.22-.52,6,6,0,0,1-2-1.53,7.66,7.66,0,0,1-1.41-2.54,10.63,10.63,0,0,1-.53-3.56l0-9.86a3.59,3.59,0,0,1,1.09-2.93,5,5,0,0,1,3.17-.89c0,.16,0,.38-.06.65s0,.59,0,1,0,1,0,1.65l0,2.15h4.57a3.45,3.45,0,0,1-.85,2.45,3.12,3.12,0,0,1-2.42.92h-1.3l0,4.85a9.66,9.66,0,0,0,.25,2.4,4.88,4.88,0,0,0,.7,1.59,2.93,2.93,0,0,0,2.39,1.16,4.36,4.36,0,0,0,1.23-.18Z"/><path class="cls-2" d="M374.85,517.61a6.82,6.82,0,0,1,2.08-.87,9.61,9.61,0,0,1,2.42-.29,11,11,0,0,1,3.37.51,6.49,6.49,0,0,0-.44-1.88,2.78,2.78,0,0,0-2.06-1.79,4.89,4.89,0,0,0-.91-.08h-.37a5.32,5.32,0,0,0-1,.15c-.31.08-.63.18-1,.29s-.64.21-1,.29a3.69,3.69,0,0,1-.92.12,2.13,2.13,0,0,1-.92-.21,2,2,0,0,1-.71-.78l-.07-.14.07-.1a8,8,0,0,1,5.42-2.52,1.81,1.81,0,0,1,.29,0h.29a7,7,0,0,1,2.86.57,6.81,6.81,0,0,1,2.25,1.55,8.09,8.09,0,0,1,2,5.56v.27a8.86,8.86,0,0,1-1.8,5.76,7,7,0,0,1-2.13,1.77,7.48,7.48,0,0,1-2.78.86l-.41,0h-.45a10.07,10.07,0,0,1-1.5-.12,7.44,7.44,0,0,1-3-1.26,4.14,4.14,0,0,1-1.09-1.28,4.51,4.51,0,0,1-.69-2.42v-.2a4.2,4.2,0,0,1,.55-2.22A4.27,4.27,0,0,1,374.85,517.61Zm7,1.63-1-.13a8.72,8.72,0,0,0-1.14-.07,6.81,6.81,0,0,0-.92.05,3.4,3.4,0,0,0-.82.19,2.54,2.54,0,0,0-1.3.85,1.74,1.74,0,0,0-.27.46,2.42,2.42,0,0,0-.14.56,1.19,1.19,0,0,0,0,.31,2.78,2.78,0,0,0,.1.73,1.78,1.78,0,0,0,.41.73,2,2,0,0,0,.8.58,3.46,3.46,0,0,0,1.42.24,2,2,0,0,0,.4,0,3,3,0,0,0,1.68-.55,2.29,2.29,0,0,0,.58-.49,3.37,3.37,0,0,0,.4-.63,4.38,4.38,0,0,0,.52-1.33,6.57,6.57,0,0,0,.13-1.26l-.05,0-.05,0-.31-.07A3.4,3.4,0,0,1,381.9,519.24Z"/><path class="cls-2" d="M404.1,519.28a8.72,8.72,0,0,1-.68,3.71,5.94,5.94,0,0,1-1.76,2.25,6.18,6.18,0,0,1-2.4,1.13,11.27,11.27,0,0,1-5.25,0,6.29,6.29,0,0,1-2.41-1.13,5.79,5.79,0,0,1-1.73-2.25,8.73,8.73,0,0,1-.67-3.71l0-4.81a3.49,3.49,0,0,1,1.11-2.92,5.16,5.16,0,0,1,3.23-.87,5.17,5.17,0,0,0-.07.62c0,.25,0,.59-.05,1s0,1,0,1.67l0,5.29a7.62,7.62,0,0,0,.28,2.3,3.21,3.21,0,0,0,.73,1.34,2.37,2.37,0,0,0,1,.65,3.94,3.94,0,0,0,2.29,0,2.37,2.37,0,0,0,1-.65,3.21,3.21,0,0,0,.73-1.34,8,8,0,0,0,.28-2.3l0-4.81a3.46,3.46,0,0,1,1.12-2.92,5.23,5.23,0,0,1,3.24-.87c0,.14,0,.35-.06.62s0,.59-.06,1,0,1,0,1.67Z"/><path class="cls-2" d="M422,524.39a3.54,3.54,0,0,1-1.3,1.54,2.87,2.87,0,0,1-.76.3,2.13,2.13,0,0,1-.94,0,3.76,3.76,0,0,1-1.11-.44,7,7,0,0,1-1.31-1l-3.41-3.55-5,5a3.71,3.71,0,0,1-1.43-1.53,3.44,3.44,0,0,1-.24-.84,2.48,2.48,0,0,1,.09-1,4.21,4.21,0,0,1,.54-1.12,8.06,8.06,0,0,1,1.11-1.28c.39-.34.78-.69,1.18-1.06l1.11-1-2.08-2.14a5.53,5.53,0,0,1-1-1.32,4.27,4.27,0,0,1-.42-1.17,2.76,2.76,0,0,1,0-1,2.59,2.59,0,0,1,.29-.85,4.37,4.37,0,0,1,1.46-1.6l4.88,5.35,5.69-5.35a4.17,4.17,0,0,1,1.16,1.64,3.51,3.51,0,0,1,.12,1.79,3.94,3.94,0,0,1-1.34,2.13,6.61,6.61,0,0,0-.53.49c-.22.22-.46.45-.74.7l-.83.77-.8.73Z"/><path class="cls-2" d="M448.36,522.72V523a3.44,3.44,0,0,1-.41,1.81,2.24,2.24,0,0,1-1.06,1,3.37,3.37,0,0,1-1.48.43l-1.52.08a22.36,22.36,0,0,1-5.33-.32,7.86,7.86,0,0,1-3.69-1.76,7.65,7.65,0,0,1-2.14-3.53,19,19,0,0,1-.7-5.61v-6.44a7.86,7.86,0,0,1,.71-3.65,3.62,3.62,0,0,1,.89-1.09,4.74,4.74,0,0,1,1.19-.68,7.54,7.54,0,0,1,.92-.29,9.48,9.48,0,0,1,1-.19c.47-.05,1-.08,1.5-.1s1.07,0,1.63,0h3c1.46,0,2.51,0,3.14-.07s1-.07,1.23-.1h.27v.21a3.29,3.29,0,0,1-.41,1.8,2.88,2.88,0,0,1-1.05,1.06,4.09,4.09,0,0,1-1.45.41c-.51,0-1,.07-1.55.07h-5.8a2,2,0,0,0-.34.07.64.64,0,0,0-.24.1.75.75,0,0,0-.31.27.9.9,0,0,0-.17.46c0,.2,0,.42,0,.67l.1,4.16h8.39a3.49,3.49,0,0,1-.85,2.45,3.13,3.13,0,0,1-2.43.92h-5.14a14.18,14.18,0,0,0,.3,3.8,5.32,5.32,0,0,0,1.21,2.41,4.66,4.66,0,0,0,2.19,1.26,12.08,12.08,0,0,0,3.22.37c1.47,0,2.62,0,3.42-.06s1.3-.08,1.49-.11h.07Z"/><path class="cls-2" d="M451.74,517.61a6.86,6.86,0,0,1,2.07-.87,9.69,9.69,0,0,1,2.43-.29,11,11,0,0,1,3.37.51,6.49,6.49,0,0,0-.44-1.88,3,3,0,0,0-1.33-1.53,3,3,0,0,0-.74-.26,4.78,4.78,0,0,0-.9-.08h-.37a5.32,5.32,0,0,0-1,.15c-.32.08-.64.18-.95.29s-.64.21-1,.29a3.75,3.75,0,0,1-.92.12,2.13,2.13,0,0,1-.92-.21,2,2,0,0,1-.71-.78l-.07-.14.07-.1a8,8,0,0,1,5.42-2.52,1.81,1.81,0,0,1,.29,0h.29a7,7,0,0,1,2.86.57,6.91,6.91,0,0,1,2.25,1.55,8.09,8.09,0,0,1,2,5.56v.27a8.86,8.86,0,0,1-1.8,5.76,7.16,7.16,0,0,1-2.14,1.77,7.43,7.43,0,0,1-2.77.86l-.41,0H456a10.07,10.07,0,0,1-1.5-.12,7.44,7.44,0,0,1-3-1.26,4,4,0,0,1-1.09-1.28,4.51,4.51,0,0,1-.69-2.42v-.2a4.11,4.11,0,0,1,.55-2.22A4.27,4.27,0,0,1,451.74,517.61Zm7.05,1.63-1-.13a8.72,8.72,0,0,0-1.14-.07,7.06,7.06,0,0,0-.93.05,3.43,3.43,0,0,0-.81.19,2.54,2.54,0,0,0-1.3.85,1.74,1.74,0,0,0-.27.46,2,2,0,0,0-.14.56,1.19,1.19,0,0,0,0,.31,2.78,2.78,0,0,0,.1.73,1.67,1.67,0,0,0,.41.73,2,2,0,0,0,.8.58,3.44,3.44,0,0,0,1.41.24,2,2,0,0,0,.41,0,3,3,0,0,0,1.67-.55,2.13,2.13,0,0,0,.58-.49A3,3,0,0,0,459,522a4.65,4.65,0,0,0,.52-1.33,6.57,6.57,0,0,0,.13-1.26l-.05,0-.05,0-.31-.07A3.4,3.4,0,0,1,458.79,519.24Z"/><path class="cls-2" d="M481,519.28a8.72,8.72,0,0,1-.68,3.71,5.94,5.94,0,0,1-1.76,2.25,6.18,6.18,0,0,1-2.4,1.13,11.27,11.27,0,0,1-5.25,0,6.29,6.29,0,0,1-2.41-1.13,5.79,5.79,0,0,1-1.73-2.25,8.73,8.73,0,0,1-.67-3.71l0-4.81a3.49,3.49,0,0,1,1.11-2.92,5.15,5.15,0,0,1,3.22-.87c0,.14,0,.35-.06.62s0,.59-.05,1,0,1,0,1.67l0,5.29a7.62,7.62,0,0,0,.28,2.3,3.21,3.21,0,0,0,.73,1.34,2.37,2.37,0,0,0,1,.65,3.94,3.94,0,0,0,2.29,0,2.37,2.37,0,0,0,1-.65,3.21,3.21,0,0,0,.73-1.34,8,8,0,0,0,.27-2.3l0-4.81a3.46,3.46,0,0,1,1.12-2.92,5.21,5.21,0,0,1,3.24-.87c0,.14,0,.35-.06.62s0,.59-.06,1,0,1,0,1.67Z"/><path class="cls-2" d="M498.86,524.39a3.54,3.54,0,0,1-1.3,1.54,2.81,2.81,0,0,1-.77.3,2.08,2.08,0,0,1-.93,0,3.76,3.76,0,0,1-1.11-.44,7,7,0,0,1-1.31-1L490,521.22l-5,5a3.64,3.64,0,0,1-1.43-1.53,3.44,3.44,0,0,1-.24-.84,2.48,2.48,0,0,1,.09-1,4.21,4.21,0,0,1,.54-1.12,7.58,7.58,0,0,1,1.11-1.28c.39-.34.78-.69,1.18-1.06l1.11-1-2.08-2.14a5.53,5.53,0,0,1-1-1.32,4.68,4.68,0,0,1-.43-1.17,3,3,0,0,1,0-1,2.59,2.59,0,0,1,.29-.85,4.37,4.37,0,0,1,1.46-1.6l4.88,5.35,5.69-5.35a4.17,4.17,0,0,1,1.16,1.64,3.74,3.74,0,0,1,.12,1.79,3.94,3.94,0,0,1-1.34,2.13,6.61,6.61,0,0,0-.53.49c-.22.22-.46.45-.74.7l-.83.77-.8.73Z"/><path class="cls-2" d="M521.6,523a2.58,2.58,0,0,1,.78.82l.11.1-.11.11a8.1,8.1,0,0,1-6,2.62,7,7,0,0,1-3-.63,7.64,7.64,0,0,1-2.44-1.76,8.15,8.15,0,0,1-1.62-2.57,8.42,8.42,0,0,1-.59-3.19,9.53,9.53,0,0,1,.52-3.19,8.13,8.13,0,0,1,1.52-2.6,7.27,7.27,0,0,1,2.4-1.74,7.41,7.41,0,0,1,3.16-.65,8.8,8.8,0,0,1,2.1.29,7.2,7.2,0,0,1,2.13.92,5.24,5.24,0,0,1,1.63,1.65,4.43,4.43,0,0,1,.65,2.46,3.5,3.5,0,0,1-.71,2.27,5.23,5.23,0,0,1-1.71,1.36,7.28,7.28,0,0,1-2.1.68,11.17,11.17,0,0,1-1.92.19,12.86,12.86,0,0,1-2.2-.16c-.63-.1-1.05-.17-1.28-.22a5.62,5.62,0,0,0,.54,2,4.44,4.44,0,0,0,.93,1.21,3,3,0,0,0,1,.6,3.31,3.31,0,0,0,.92.15,6.6,6.6,0,0,0,1.36-.14,11.4,11.4,0,0,0,1.16-.3c.34-.12.67-.23,1-.35a2.71,2.71,0,0,1,.91-.17A1.53,1.53,0,0,1,521.6,523Zm-5.25-9.78a4.52,4.52,0,0,0-.89.18,2.91,2.91,0,0,0-1,.57,4,4,0,0,0-.91,1.16A5.91,5.91,0,0,0,513,517a11.64,11.64,0,0,0,1.55.32,8.05,8.05,0,0,0,2,0,4.07,4.07,0,0,0,1.77-.58,1.9,1.9,0,0,0,.84-1.6,1.69,1.69,0,0,0-.67-1.47A3,3,0,0,0,516.35,513.21Z"/><path class="cls-2" d="M534.83,523.3a1.12,1.12,0,0,0,0,.24,1.89,1.89,0,0,1,.07.51,2.28,2.28,0,0,1-.27,1.11,2.38,2.38,0,0,1-.75.83,3.86,3.86,0,0,1-2.32.69,5.22,5.22,0,0,1-2.22-.52,6,6,0,0,1-2-1.53,7.67,7.67,0,0,1-1.42-2.54,10.89,10.89,0,0,1-.53-3.56l0-9.86a3.56,3.56,0,0,1,1.09-2.93,4.93,4.93,0,0,1,3.17-.89c0,.16,0,.38-.07.65s0,.59,0,1,0,1,0,1.65l0,2.15h4.57a3.45,3.45,0,0,1-.86,2.45,3.09,3.09,0,0,1-2.42.92h-1.29l0,4.85a9.61,9.61,0,0,0,.26,2.4,4.68,4.68,0,0,0,.7,1.59,2.91,2.91,0,0,0,2.39,1.16,4.34,4.34,0,0,0,1.22-.18C534.41,523.44,534.63,523.37,534.83,523.3Z"/><path class="cls-2" d="M548.88,523c0,.69,0,1.24,0,1.67s0,.78.06,1,0,.47.06.61a5.14,5.14,0,0,1-3.2-.87,3.46,3.46,0,0,1-1.13-2.91l0-13.88a7.33,7.33,0,0,1,.75-3.65,3.62,3.62,0,0,1,.89-1.09,4.72,4.72,0,0,1,1.16-.68,6.58,6.58,0,0,1,.92-.29,9.28,9.28,0,0,1,1-.19c.48-.05,1-.08,1.5-.1s1.07,0,1.64,0h3c1.45,0,2.5,0,3.13-.07s1.05-.07,1.23-.1h.27v.21a3.38,3.38,0,0,1-.4,1.8,2.36,2.36,0,0,1-1.06,1.06,3.76,3.76,0,0,1-1.43.41c-.53,0-1,.07-1.57.07h-5.8a1.41,1.41,0,0,0-.58.17.75.75,0,0,0-.31.27,2.54,2.54,0,0,0-.2,1.13l0,4.16h8.46a3.45,3.45,0,0,1-.85,2.45,3.12,3.12,0,0,1-2.42.92h-5.19Z"/><path class="cls-2" d="M571.48,512.73a8,8,0,0,1,1.66,2.57,8.46,8.46,0,0,1,.6,3.19,9.25,9.25,0,0,1-.55,3.19,7.63,7.63,0,0,1-1.54,2.57,6.88,6.88,0,0,1-2.4,1.78,7.49,7.49,0,0,1-3.15.65,6.87,6.87,0,0,1-3-.65,7.75,7.75,0,0,1-2.44-1.78,8.15,8.15,0,0,1-1.62-2.57,8.42,8.42,0,0,1-.6-3.19,9.53,9.53,0,0,1,.53-3.19,7.61,7.61,0,0,1,1.52-2.57,7.07,7.07,0,0,1,2.4-1.77,7.41,7.41,0,0,1,3.16-.65,6.83,6.83,0,0,1,3,.65A7.49,7.49,0,0,1,571.48,512.73Zm-5.38,11a3.2,3.2,0,0,0,1-.2,2.91,2.91,0,0,0,1.14-.79,4.65,4.65,0,0,0,.92-1.6,7.85,7.85,0,0,0,.38-2.66,8,8,0,0,0-.38-2.67,4.52,4.52,0,0,0-.92-1.61,2.92,2.92,0,0,0-1.14-.76,3.24,3.24,0,0,0-1-.21,3.14,3.14,0,0,0-1,.21,3,3,0,0,0-1.15.76,4.52,4.52,0,0,0-.92,1.61,8,8,0,0,0-.37,2.67,7.88,7.88,0,0,0,.37,2.66,4.65,4.65,0,0,0,.92,1.6,2.94,2.94,0,0,0,1.15.79A3.11,3.11,0,0,0,566.1,523.74Z"/><path class="cls-2" d="M576.29,518.08a8.89,8.89,0,0,1,.67-3.73,5.84,5.84,0,0,1,1.72-2.27,6,6,0,0,1,2.37-1.11,12.21,12.21,0,0,1,2.61-.29h1.67a3.58,3.58,0,0,1,.07,1.33,2,2,0,0,1-.46,1,1.88,1.88,0,0,1-1.28.58,5.54,5.54,0,0,0-1.14.26,2.35,2.35,0,0,0-1,.65,3.31,3.31,0,0,0-.73,1.31,7.1,7.1,0,0,0-.29,2.28V523c0,.68,0,1.23,0,1.65s0,.76,0,1,.05.47.07.61a5.14,5.14,0,0,1-3.2-.87,3.46,3.46,0,0,1-1.13-2.91Z"/><path class="cls-2" d="M599.85,523a2.49,2.49,0,0,1,.79.82l.1.1-.1.11a8.18,8.18,0,0,1-2.68,1.92,8,8,0,0,1-3.36.7,7,7,0,0,1-3-.63,7.64,7.64,0,0,1-2.44-1.76,8,8,0,0,1-1.61-2.57,8.42,8.42,0,0,1-.6-3.19,9.29,9.29,0,0,1,.53-3.19,8,8,0,0,1,1.52-2.6,7.07,7.07,0,0,1,2.4-1.74,7.34,7.34,0,0,1,3.15-.65,8.73,8.73,0,0,1,2.1.29,7.2,7.2,0,0,1,2.13.92,5.27,5.27,0,0,1,1.64,1.65,4.51,4.51,0,0,1,.65,2.46,3.45,3.45,0,0,1-.72,2.27,5.23,5.23,0,0,1-1.71,1.36,7.22,7.22,0,0,1-2.09.68,11.27,11.27,0,0,1-1.93.19,12.94,12.94,0,0,1-2.2-.16c-.62-.1-1.05-.17-1.28-.22a5.61,5.61,0,0,0,.55,2,4.23,4.23,0,0,0,.92,1.21,3,3,0,0,0,1,.6,3.31,3.31,0,0,0,.92.15,6.77,6.77,0,0,0,1.37-.14,11.4,11.4,0,0,0,1.16-.3l1-.35a2.65,2.65,0,0,1,.9-.17A1.53,1.53,0,0,1,599.85,523Zm-.51-15a6.35,6.35,0,0,1-5-2.25,6.32,6.32,0,0,1-5,2.25c.22-.45.46-.89.71-1.33s.48-.8.77-1.24a8.28,8.28,0,0,1,1-1.24,5.09,5.09,0,0,1,1-.89,2.82,2.82,0,0,1,.87-.41.88.88,0,0,1,.22-.09,2,2,0,0,1,.46-.05,1.9,1.9,0,0,1,.48.05l.24.09a2.92,2.92,0,0,1,.84.41,5.09,5.09,0,0,1,1,.89,10.69,10.69,0,0,1,1,1.24c.3.44.56.86.79,1.24S599.12,507.57,599.34,508Zm-4.74,5.19a4.43,4.43,0,0,0-.88.18,2.86,2.86,0,0,0-1,.57,3.83,3.83,0,0,0-.9,1.16,5.45,5.45,0,0,0-.58,1.91,11.3,11.3,0,0,0,1.55.32,8,8,0,0,0,2,0,4.07,4.07,0,0,0,1.77-.58,1.9,1.9,0,0,0,.84-1.6,1.69,1.69,0,0,0-.67-1.47A3,3,0,0,0,594.6,513.21Z"/><path class="cls-2" d="M613.25,523.3a1.2,1.2,0,0,0,0,.24,2.4,2.4,0,0,1,.07.51,2.18,2.18,0,0,1-.28,1.11,2.38,2.38,0,0,1-.75.83,3.84,3.84,0,0,1-2.32.69,5.15,5.15,0,0,1-2.21-.52,6,6,0,0,1-2-1.53,7.66,7.66,0,0,1-1.41-2.54,10.63,10.63,0,0,1-.53-3.56l0-9.86a3.56,3.56,0,0,1,1.09-2.93,5,5,0,0,1,3.17-.89c0,.16,0,.38-.07.65s0,.59-.05,1,0,1,0,1.65l0,2.15h4.57a3.45,3.45,0,0,1-.85,2.45,3.12,3.12,0,0,1-2.42.92h-1.3l0,4.85a9.66,9.66,0,0,0,.25,2.4,4.88,4.88,0,0,0,.7,1.59,2.93,2.93,0,0,0,2.39,1.16,4.36,4.36,0,0,0,1.23-.18Z"/><path class="cls-2" d="M623,522.31a1.13,1.13,0,0,0-.33-1,4.17,4.17,0,0,0-1.12-.75c-.49-.24-1.07-.49-1.73-.77a14,14,0,0,1-2.08-1.09,4.85,4.85,0,0,1-1.34-1.14,4.24,4.24,0,0,1-.77-1.43,4.41,4.41,0,0,1-.2-1.57,4.33,4.33,0,0,1,.37-1.59,3.87,3.87,0,0,1,.89-1.26,4.57,4.57,0,0,1,1.21-.83,5.32,5.32,0,0,1,1.34-.46,5.94,5.94,0,0,1,1.27-.14h.41a8,8,0,0,1,5.86,3l.1.1-.1.13a2.54,2.54,0,0,1-.75.72,1.53,1.53,0,0,1-.85.24,2.23,2.23,0,0,1-.92-.19l-1-.39c-.43-.18-.83-.34-1.21-.46a3.41,3.41,0,0,0-1.14-.19,1.68,1.68,0,0,0-1.13.33,1.25,1.25,0,0,0-.44.76,1.22,1.22,0,0,0,.41,1.08,4.92,4.92,0,0,0,1.4.8c.7.29,1.45.62,2.25,1a8.6,8.6,0,0,1,2.11,1.3,4.94,4.94,0,0,1,1.4,1.84,4,4,0,0,1,.1,2.6,4.63,4.63,0,0,1-.58,1.28,4.19,4.19,0,0,1-1.14,1.21,6.4,6.4,0,0,1-1.77.91,7.51,7.51,0,0,1-2.44.36,2.45,2.45,0,0,1-.44,0,8.23,8.23,0,0,1-5.87-2.93l-.1-.1.1-.14a1.86,1.86,0,0,1,.38-.44c.13-.12.26-.22.37-.31a1.8,1.8,0,0,1,.82-.2,2.39,2.39,0,0,1,.92.18l1,.4a6.31,6.31,0,0,0,1.07.4,6.49,6.49,0,0,0,1.31.24,2.65,2.65,0,0,0,1.76-.47A1.71,1.71,0,0,0,623,522.31Z"/><path class="cls-2" d="M123.87,563.91a2.4,2.4,0,0,1,.79.82l.1.1-.1.1a8.1,8.1,0,0,1-2.68,1.93,8,8,0,0,1-3.36.7,7,7,0,0,1-3-.63,7.65,7.65,0,0,1-2.43-1.76,7.91,7.91,0,0,1-1.62-2.57,8.42,8.42,0,0,1-.6-3.19,9.25,9.25,0,0,1,.53-3.19,7.9,7.9,0,0,1,1.52-2.61,7.29,7.29,0,0,1,5.55-2.38,8.26,8.26,0,0,1,2.1.29,7.2,7.2,0,0,1,2.13.92,5.27,5.27,0,0,1,1.64,1.65,4.51,4.51,0,0,1,.65,2.46,3.42,3.42,0,0,1-.72,2.26,5.26,5.26,0,0,1-1.71,1.37,7.43,7.43,0,0,1-2.09.68,12.38,12.38,0,0,1-1.93.19,12.94,12.94,0,0,1-2.2-.16c-.62-.1-1-.17-1.28-.22a5.67,5.67,0,0,0,.55,2,4.23,4.23,0,0,0,.92,1.21,2.83,2.83,0,0,0,1,.59,3,3,0,0,0,.92.16,6.7,6.7,0,0,0,1.37-.14,9.19,9.19,0,0,0,1.16-.31c.34-.11.66-.22,1-.34a2.7,2.7,0,0,1,.9-.17A1.53,1.53,0,0,1,123.87,563.91Zm-5.25-9.79a5.44,5.44,0,0,0-.88.19,2.8,2.8,0,0,0-1,.57,3.78,3.78,0,0,0-.9,1.15,5.52,5.52,0,0,0-.58,1.91,9.77,9.77,0,0,0,1.55.33,8,8,0,0,0,2,.05,4.07,4.07,0,0,0,1.77-.58,1.88,1.88,0,0,0,.84-1.6,1.69,1.69,0,0,0-.67-1.47A3,3,0,0,0,118.62,554.12Z"/><path class="cls-2" d="M137.1,564.22a1.2,1.2,0,0,0,0,.24,2.4,2.4,0,0,1,.07.51,2.18,2.18,0,0,1-.28,1.11,2.47,2.47,0,0,1-.75.83,3.84,3.84,0,0,1-2.32.68,5.17,5.17,0,0,1-2.21-.51,6,6,0,0,1-2-1.53,7.66,7.66,0,0,1-1.41-2.54,10.65,10.65,0,0,1-.53-3.57l0-9.85a3.56,3.56,0,0,1,1.09-2.93,5,5,0,0,1,3.17-.89c0,.16,0,.38-.06.65s0,.58-.06,1,0,1,0,1.66l0,2.15h4.57a3.45,3.45,0,0,1-.85,2.45,3.12,3.12,0,0,1-2.42.92h-1.3l0,4.84a9.69,9.69,0,0,0,.25,2.41,4.82,4.82,0,0,0,.7,1.58,2.9,2.9,0,0,0,2.39,1.16,4.35,4.35,0,0,0,1.23-.17Z"/><path class="cls-2" d="M150.67,557.65a10.15,10.15,0,0,1,2.42-.29,10.77,10.77,0,0,1,3.38.52A6.83,6.83,0,0,0,156,556a2.77,2.77,0,0,0-2.07-1.79,4,4,0,0,0-.9-.09h-.37a6.41,6.41,0,0,0-1,.16,8,8,0,0,0-.95.29c-.32.11-.64.21-1,.29a3.75,3.75,0,0,1-.92.12,1.69,1.69,0,0,1-1.64-1l-.06-.14.06-.1a8.27,8.27,0,0,1,2.41-1.76,8.1,8.1,0,0,1,3-.76,1.11,1.11,0,0,1,.29,0h.29a7.19,7.19,0,0,1,2.86.56,7.1,7.1,0,0,1,2.25,1.56,8.08,8.08,0,0,1,2,5.55v.28a8.81,8.81,0,0,1-1.81,5.76,7,7,0,0,1-2.13,1.77,7.42,7.42,0,0,1-2.78.86,2.69,2.69,0,0,1-.4,0h-.45a10,10,0,0,1-1.5-.12,5.72,5.72,0,0,1-1.53-.46,5.86,5.86,0,0,1-1.43-.8,4.17,4.17,0,0,1-1.1-1.28,4.53,4.53,0,0,1-.68-2.42v-.21a4.09,4.09,0,0,1,.55-2.21,4.35,4.35,0,0,1,1.46-1.54A7.6,7.6,0,0,1,150.67,557.65Zm5-10c-.36-.39-.77-.81-1.23-1.25s-.89-.87-1.33-1.28a5.62,5.62,0,0,0-1.58-1,5.8,5.8,0,0,0-1.31-.36,3.13,3.13,0,0,0-1.23.11,2.54,2.54,0,0,0,.31,2.13,4.89,4.89,0,0,0,1.79,1.58,10.62,10.62,0,0,0,2.72,1,15.07,15.07,0,0,0,3.09.41C156.47,548.52,156.06,548.08,155.65,547.65Zm-1,12.37a10.93,10.93,0,0,0-1.15-.06,7,7,0,0,0-.92,0,3.42,3.42,0,0,0-.81.18,2.57,2.57,0,0,0-1.3.86,1.74,1.74,0,0,0-.27.46,1.92,1.92,0,0,0-.14.56,1.19,1.19,0,0,0,0,.31,2.84,2.84,0,0,0,.1.73,1.67,1.67,0,0,0,.41.73,2.1,2.1,0,0,0,.8.58,3.44,3.44,0,0,0,1.41.24,2,2,0,0,0,.41,0,3,3,0,0,0,1.67-.55,2.13,2.13,0,0,0,.58-.49,3.58,3.58,0,0,0,.41-.63,4.45,4.45,0,0,0,.51-1.33,6.65,6.65,0,0,0,.14-1.27h-.05l0,0-.31-.07a3.4,3.4,0,0,1-.41-.1Z"/><path class="cls-2" d="M177.75,564.15a4.56,4.56,0,0,1-.14,1.6,2.92,2.92,0,0,1-.68,1.18,2.32,2.32,0,0,1-1.6.63,3.91,3.91,0,0,1-1.85-.22,3.63,3.63,0,0,1-1.31-.91,3.67,3.67,0,0,1-.78-1.36,5.26,5.26,0,0,1-.26-1.64v-16.6c0-.68,0-1.24,0-1.66s0-.75-.05-1-.05-.49-.07-.65a5.14,5.14,0,0,1,3.24.89,3.46,3.46,0,0,1,1.13,2.9V563a1.84,1.84,0,0,0,.3,1.18,1.24,1.24,0,0,0,.72.43,1.67,1.67,0,0,0,.82-.09A1.23,1.23,0,0,0,177.75,564.15Z"/><path class="cls-2" d="M182,558.52a7.48,7.48,0,0,1,2.08-.87,10.09,10.09,0,0,1,2.42-.29,10.82,10.82,0,0,1,3.38.52,6.48,6.48,0,0,0-.45-1.88,2.93,2.93,0,0,0-1.33-1.53,2.87,2.87,0,0,0-.73-.26,4,4,0,0,0-.9-.09h-.38a6.08,6.08,0,0,0-.95.16,8.76,8.76,0,0,0-1,.29c-.32.11-.63.21-.95.29a3.81,3.81,0,0,1-.92.12,2.1,2.1,0,0,1-.92-.21,2,2,0,0,1-.72-.78l-.07-.14.07-.1a7.93,7.93,0,0,1,5.42-2.52,1.11,1.11,0,0,1,.29,0h.29a7.24,7.24,0,0,1,2.87.56,7.1,7.1,0,0,1,2.25,1.56,8.18,8.18,0,0,1,2,5.55v.28A8.86,8.86,0,0,1,192,564.9a7,7,0,0,1-2.13,1.77,7.48,7.48,0,0,1-2.78.86,2.83,2.83,0,0,1-.41,0h-.44a9.87,9.87,0,0,1-1.5-.12,5.68,5.68,0,0,1-1.54-.46,6,6,0,0,1-1.43-.8,4.14,4.14,0,0,1-1.09-1.28,4.53,4.53,0,0,1-.68-2.42v-.21a4.18,4.18,0,0,1,.54-2.21A4.38,4.38,0,0,1,182,558.52Zm7.06,1.64-1-.14a10.6,10.6,0,0,0-1.14-.06,6.81,6.81,0,0,0-.92,0,3.4,3.4,0,0,0-.82.18,2.62,2.62,0,0,0-1.3.86,1.74,1.74,0,0,0-.27.46,1.92,1.92,0,0,0-.13.56.83.83,0,0,0,0,.31,3.35,3.35,0,0,0,.1.73,1.78,1.78,0,0,0,.41.73,2.1,2.1,0,0,0,.8.58,3.52,3.52,0,0,0,1.42.24,2.07,2.07,0,0,0,.41,0,3.08,3.08,0,0,0,1.67-.55,2.13,2.13,0,0,0,.58-.49,4.25,4.25,0,0,0,.41-.63,4.45,4.45,0,0,0,.51-1.33,6.65,6.65,0,0,0,.14-1.27h-.06a.06.06,0,0,0-.05,0l-.3-.07A3,3,0,0,1,189.07,560.16Z"/><path class="cls-2" d="M204.51,546.62q0-1,0-1.65c0-.42,0-.76,0-1s0-.47-.07-.61q4.16,0,4.16,4l.06,8.66a31.78,31.78,0,0,0,.19,3.72,5.8,5.8,0,0,0,.79,2.42,3.22,3.22,0,0,0,1.7,1.31,9.11,9.11,0,0,0,2.95.39c.57,0,1.09,0,1.55,0s.86,0,1.18-.05a8.8,8.8,0,0,0,1-.1v.21a2.91,2.91,0,0,1-.25,1.14,3.1,3.1,0,0,1-.79,1.07,4.2,4.2,0,0,1-1.33.8,5,5,0,0,1-1.92.33,15.42,15.42,0,0,1-4.51-.56,5.67,5.67,0,0,1-2.81-1.9,8.11,8.11,0,0,1-1.45-3.53,30.5,30.5,0,0,1-.41-5.43Z"/><path class="cls-2" d="M234.45,560.19a8.74,8.74,0,0,1-.68,3.72,5.94,5.94,0,0,1-1.76,2.25,6.18,6.18,0,0,1-2.4,1.13,11.63,11.63,0,0,1-5.25,0,6.29,6.29,0,0,1-2.41-1.13,5.79,5.79,0,0,1-1.73-2.25,8.75,8.75,0,0,1-.67-3.72l0-4.8a3.49,3.49,0,0,1,1.11-2.92,5.16,5.16,0,0,1,3.23-.87,4.93,4.93,0,0,0-.07.62c0,.25,0,.59,0,1s0,1,0,1.67l0,5.28a7.65,7.65,0,0,0,.28,2.31,3.28,3.28,0,0,0,.73,1.34,2.37,2.37,0,0,0,1,.65,3.94,3.94,0,0,0,2.29,0,2.37,2.37,0,0,0,1-.65,3.28,3.28,0,0,0,.73-1.34,8,8,0,0,0,.28-2.31l0-4.8a3.46,3.46,0,0,1,1.12-2.92,5.21,5.21,0,0,1,3.24-.87c0,.14,0,.34-.06.62s0,.59-.06,1,0,1,0,1.67Z"/><path class="cls-2" d="M246.66,564.22a1.12,1.12,0,0,0,0,.24,1.89,1.89,0,0,1,.07.51,2.28,2.28,0,0,1-.27,1.11,2.47,2.47,0,0,1-.75.83,3.86,3.86,0,0,1-2.32.68,5.21,5.21,0,0,1-2.22-.51,6,6,0,0,1-2-1.53,7.66,7.66,0,0,1-1.41-2.54,10.91,10.91,0,0,1-.53-3.57l0-9.85a3.56,3.56,0,0,1,1.09-2.93,4.91,4.91,0,0,1,3.17-.89,6.46,6.46,0,0,0-.07.65c0,.25,0,.58,0,1s0,1,0,1.66l0,2.15H246a3.45,3.45,0,0,1-.85,2.45,3.11,3.11,0,0,1-2.42.92h-1.29l0,4.84a9.64,9.64,0,0,0,.26,2.41,4.62,4.62,0,0,0,.7,1.58,2.88,2.88,0,0,0,2.38,1.16,4.35,4.35,0,0,0,1.23-.17Z"/><path class="cls-2" d="M257.84,564.22a.75.75,0,0,0,0,.24,2.35,2.35,0,0,1,.06.51,2.28,2.28,0,0,1-.27,1.11,2.47,2.47,0,0,1-.75.83,3.86,3.86,0,0,1-2.32.68,5.13,5.13,0,0,1-2.21-.51,6,6,0,0,1-2-1.53A7.85,7.85,0,0,1,249,563a10.93,10.93,0,0,1-.52-3.57l0-9.85a3.56,3.56,0,0,1,1.09-2.93,4.93,4.93,0,0,1,3.17-.89c0,.16,0,.38-.07.65s0,.58-.05,1,0,1,0,1.66l0,2.15h4.57a3.49,3.49,0,0,1-.85,2.45,3.13,3.13,0,0,1-2.43.92h-1.29l0,4.84a9.64,9.64,0,0,0,.26,2.41,4.62,4.62,0,0,0,.7,1.58,2.89,2.89,0,0,0,2.39,1.16,4.28,4.28,0,0,0,1.22-.17Z"/><path class="cls-2" d="M272,563.91a2.49,2.49,0,0,1,.79.82l.1.1-.1.1a8.21,8.21,0,0,1-2.68,1.93,8,8,0,0,1-3.36.7,7,7,0,0,1-2.95-.63,7.8,7.8,0,0,1-2.44-1.76,8.26,8.26,0,0,1-1.62-2.57,8.61,8.61,0,0,1-.59-3.19,9.25,9.25,0,0,1,.53-3.19,7.87,7.87,0,0,1,1.51-2.61,7.34,7.34,0,0,1,5.56-2.38,8.26,8.26,0,0,1,2.1.29,7.2,7.2,0,0,1,2.13.92,5.38,5.38,0,0,1,1.64,1.65,4.51,4.51,0,0,1,.64,2.46,3.42,3.42,0,0,1-.71,2.26,5.26,5.26,0,0,1-1.71,1.37,7.64,7.64,0,0,1-2.09.68,12.38,12.38,0,0,1-1.93.19,12.94,12.94,0,0,1-2.2-.16c-.63-.1-1.05-.17-1.28-.22a5.47,5.47,0,0,0,.55,2,4.23,4.23,0,0,0,.92,1.21,2.83,2.83,0,0,0,1,.59,3,3,0,0,0,.92.16,6.6,6.6,0,0,0,1.36-.14,8.75,8.75,0,0,0,1.16-.31c.35-.11.67-.22,1-.34a2.61,2.61,0,0,1,.9-.17A1.53,1.53,0,0,1,272,563.91Zm-5.25-9.79a5.76,5.76,0,0,0-.89.19,2.76,2.76,0,0,0-1,.57A3.78,3.78,0,0,0,264,556a5.52,5.52,0,0,0-.58,1.91,9.77,9.77,0,0,0,1.55.33,8,8,0,0,0,2,.05,4.07,4.07,0,0,0,1.77-.58,1.9,1.9,0,0,0,.84-1.6,1.69,1.69,0,0,0-.67-1.47A3,3,0,0,0,266.74,554.12Z"/><path class="cls-2" d="M295,567.56a12.28,12.28,0,0,1-4.36-.79,10.87,10.87,0,0,1-3.74-2.31,11.56,11.56,0,0,1-2.61-3.82,14.74,14.74,0,0,1,0-10.57,11.35,11.35,0,0,1,2.61-3.82,10.55,10.55,0,0,1,3.74-2.3,12.71,12.71,0,0,1,4.36-.77,9,9,0,0,1,2.52.32,10.28,10.28,0,0,1,1.9.77,6.73,6.73,0,0,1,1.28.9,4.68,4.68,0,0,1,.64.74,1.47,1.47,0,0,1-.24.37,1.51,1.51,0,0,1-.25.33,1.08,1.08,0,0,1-.32.22,1.59,1.59,0,0,1-.86.24,2.3,2.3,0,0,1-.88-.16l-.91-.32q-.5-.17-1.17-.33a8.22,8.22,0,0,0-1.71-.15,6.6,6.6,0,0,0-4.91,2.22,8.34,8.34,0,0,0-1.64,2.88,14.42,14.42,0,0,0,0,8.3,8.53,8.53,0,0,0,1.64,2.88,6.38,6.38,0,0,0,2.3,1.69,6.68,6.68,0,0,0,2.61.55,7.52,7.52,0,0,0,1.71-.16,11.82,11.82,0,0,0,1.17-.32l.91-.33a2.5,2.5,0,0,1,.88-.15,1.59,1.59,0,0,1,.86.24,2.74,2.74,0,0,1,.57.55,1.47,1.47,0,0,1,.24.37,3.65,3.65,0,0,1-.64.77,5.93,5.93,0,0,1-1.28.89,11.06,11.06,0,0,1-1.9.75A9,9,0,0,1,295,567.56Z"/><path class="cls-2" d="M315.74,553.65a7.88,7.88,0,0,1,1.65,2.57,8.42,8.42,0,0,1,.6,3.19,9,9,0,0,1-.55,3.19,7.7,7.7,0,0,1-1.53,2.57,7.24,7.24,0,0,1-2.4,1.78,7.56,7.56,0,0,1-3.16.64,6.9,6.9,0,0,1-3-.64,8.06,8.06,0,0,1-4.06-4.35,8.61,8.61,0,0,1-.59-3.19,9.25,9.25,0,0,1,.53-3.19,7.4,7.4,0,0,1,1.51-2.57,7.17,7.17,0,0,1,2.41-1.78,7.48,7.48,0,0,1,3.15-.64,6.94,6.94,0,0,1,3,.64A7.59,7.59,0,0,1,315.74,553.65Zm-5.39,11a3.43,3.43,0,0,0,1-.2,2.84,2.84,0,0,0,1.14-.79,4.5,4.5,0,0,0,.92-1.6,7.85,7.85,0,0,0,.38-2.66,8.06,8.06,0,0,0-.38-2.68,4.41,4.41,0,0,0-.92-1.6,3,3,0,0,0-1.14-.77,3.43,3.43,0,0,0-1-.2,3.49,3.49,0,0,0-1,.2,3,3,0,0,0-1.14.77,4.41,4.41,0,0,0-.92,1.6,8.06,8.06,0,0,0-.38,2.68,7.85,7.85,0,0,0,.38,2.66,4.5,4.5,0,0,0,.92,1.6,2.84,2.84,0,0,0,1.14.79A3.49,3.49,0,0,0,310.35,564.66Z"/><path class="cls-2" d="M320.58,558.63a8.91,8.91,0,0,1,.67-3.74,6.08,6.08,0,0,1,1.7-2.27,5.78,5.78,0,0,1,2.35-1.1,12.12,12.12,0,0,1,5.27,0,6.09,6.09,0,0,1,2.41,1.1,5.94,5.94,0,0,1,1.73,2.27,8.91,8.91,0,0,1,.67,3.74l.14,8.59a5.09,5.09,0,0,1-3.21-.89,3.47,3.47,0,0,1-1.12-2.9l0-4.8a7.61,7.61,0,0,0-.29-2.31,3.47,3.47,0,0,0-.77-1.36,2.39,2.39,0,0,0-1.05-.66,4,4,0,0,0-1.16-.18,3.78,3.78,0,0,0-1.15.18,2.3,2.3,0,0,0-1,.66,3.58,3.58,0,0,0-.75,1.36,7.61,7.61,0,0,0-.29,2.31v5.28c0,.68,0,1.24.05,1.67s0,.77,0,1,.05.48.07.62a5.14,5.14,0,0,1-3.24-.89,3.47,3.47,0,0,1-1.12-2.9Z"/><path class="cls-2" d="M347.62,564.22a1.12,1.12,0,0,0,0,.24,1.89,1.89,0,0,1,.07.51,2.28,2.28,0,0,1-.27,1.11,2.47,2.47,0,0,1-.75.83,3.86,3.86,0,0,1-2.32.68,5.21,5.21,0,0,1-2.22-.51,6,6,0,0,1-2-1.53,7.67,7.67,0,0,1-1.42-2.54,10.91,10.91,0,0,1-.53-3.57l0-9.85a3.56,3.56,0,0,1,1.09-2.93,4.93,4.93,0,0,1,3.17-.89c0,.16-.05.38-.07.65s0,.58-.05,1,0,1,0,1.66l0,2.15H347a3.45,3.45,0,0,1-.86,2.45,3.09,3.09,0,0,1-2.42.92h-1.29l0,4.84a9.64,9.64,0,0,0,.26,2.41,4.62,4.62,0,0,0,.7,1.58,2.88,2.88,0,0,0,2.38,1.16,4.35,4.35,0,0,0,1.23-.17Z"/><path class="cls-2" d="M349.43,559a9,9,0,0,1,.66-3.73,6,6,0,0,1,1.72-2.27,5.87,5.87,0,0,1,2.37-1.11,12.35,12.35,0,0,1,2.61-.29h1.67a3.21,3.21,0,0,1,.07,1.33,1.94,1.94,0,0,1-.46,1,1.86,1.86,0,0,1-1.28.58,5.7,5.7,0,0,0-1.14.26,2.48,2.48,0,0,0-1,.64,3.57,3.57,0,0,0-.73,1.32,7.35,7.35,0,0,0-.29,2.28v5c0,.68,0,1.23,0,1.65s0,.75.05,1a4.93,4.93,0,0,0,.07.62,5.15,5.15,0,0,1-3.21-.87,3.46,3.46,0,0,1-1.12-2.92Z"/><path class="cls-2" d="M372,563.91a2.4,2.4,0,0,1,.79.82l.1.1-.1.1a8.21,8.21,0,0,1-2.68,1.93,8,8,0,0,1-3.36.7,7,7,0,0,1-2.95-.63,7.8,7.8,0,0,1-2.44-1.76,8.06,8.06,0,0,1-1.61-2.57,8.42,8.42,0,0,1-.6-3.19,9.25,9.25,0,0,1,.53-3.19,7.87,7.87,0,0,1,1.51-2.61,7.34,7.34,0,0,1,5.56-2.38,8.26,8.26,0,0,1,2.1.29,7.2,7.2,0,0,1,2.13.92,5.38,5.38,0,0,1,1.64,1.65,4.51,4.51,0,0,1,.64,2.46,3.42,3.42,0,0,1-.71,2.26,5.26,5.26,0,0,1-1.71,1.37,7.53,7.53,0,0,1-2.09.68,12.38,12.38,0,0,1-1.93.19,12.94,12.94,0,0,1-2.2-.16c-.62-.1-1-.17-1.28-.22a5.67,5.67,0,0,0,.55,2,4.23,4.23,0,0,0,.92,1.21,2.83,2.83,0,0,0,1,.59,3,3,0,0,0,.92.16,6.77,6.77,0,0,0,1.37-.14,9.67,9.67,0,0,0,1.16-.31c.34-.11.66-.22,1-.34a2.61,2.61,0,0,1,.9-.17A1.53,1.53,0,0,1,372,563.91Zm-5.25-9.79a5.44,5.44,0,0,0-.88.19,2.72,2.72,0,0,0-1,.57A3.78,3.78,0,0,0,364,556a5.52,5.52,0,0,0-.58,1.91,9.77,9.77,0,0,0,1.55.33,8,8,0,0,0,2,.05,4.07,4.07,0,0,0,1.77-.58,1.9,1.9,0,0,0,.84-1.6,1.69,1.69,0,0,0-.67-1.47A3,3,0,0,0,366.78,554.12Z"/><path class="cls-2" d="M390.68,564.15a4.57,4.57,0,0,1-.13,1.6,3,3,0,0,1-.68,1.18,2.34,2.34,0,0,1-1.61.63,3.87,3.87,0,0,1-1.84-.22,3.63,3.63,0,0,1-1.31-.91,3.83,3.83,0,0,1-.79-1.36,5.26,5.26,0,0,1-.25-1.64v-16.6c0-.68,0-1.24-.05-1.66s0-.75,0-1-.05-.49-.07-.65a5.14,5.14,0,0,1,3.24.89,3.46,3.46,0,0,1,1.12,2.9V563a1.83,1.83,0,0,0,.31,1.18,1.19,1.19,0,0,0,.72.43,1.62,1.62,0,0,0,.81-.09A1.14,1.14,0,0,0,390.68,564.15Z"/><path class="cls-2" d="M395,558.52a7.35,7.35,0,0,1,2.08-.87,10.09,10.09,0,0,1,2.42-.29,10.75,10.75,0,0,1,3.37.52,6.18,6.18,0,0,0-.44-1.88,3,3,0,0,0-1.33-1.53,3,3,0,0,0-.73-.26,4.19,4.19,0,0,0-.91-.09H399a6.41,6.41,0,0,0-1,.16,8.6,8.6,0,0,0-.95.29c-.32.11-.64.21-1,.29a3.75,3.75,0,0,1-.92.12,2.13,2.13,0,0,1-.92-.21,2,2,0,0,1-.71-.78l-.07-.14.07-.1a7.93,7.93,0,0,1,5.42-2.52,1.11,1.11,0,0,1,.29,0h.29a7.19,7.19,0,0,1,2.86.56,6.88,6.88,0,0,1,2.25,1.56,8.08,8.08,0,0,1,2,5.55v.28a8.86,8.86,0,0,1-1.8,5.76,7.12,7.12,0,0,1-2.13,1.77,7.48,7.48,0,0,1-2.78.86l-.41,0h-.45a10.07,10.07,0,0,1-1.5-.12,5.72,5.72,0,0,1-1.53-.46,6,6,0,0,1-1.43-.8,4.14,4.14,0,0,1-1.09-1.28,4.53,4.53,0,0,1-.69-2.42v-.21a4.18,4.18,0,0,1,.55-2.21A4.38,4.38,0,0,1,395,558.52Zm7.05,1.64-1-.14a10.88,10.88,0,0,0-1.14-.06,6.81,6.81,0,0,0-.92,0,3.4,3.4,0,0,0-.82.18,2.62,2.62,0,0,0-1.3.86,1.74,1.74,0,0,0-.27.46,1.92,1.92,0,0,0-.14.56,1.19,1.19,0,0,0,0,.31,2.84,2.84,0,0,0,.1.73,1.78,1.78,0,0,0,.41.73,2.1,2.1,0,0,0,.8.58,3.46,3.46,0,0,0,1.42.24,2.15,2.15,0,0,0,.41,0,3.08,3.08,0,0,0,1.67-.55,2.29,2.29,0,0,0,.58-.49,4.18,4.18,0,0,0,.4-.63,4.48,4.48,0,0,0,.52-1.33,6.59,6.59,0,0,0,.13-1.27h-.05l0,0-.31-.07A3.4,3.4,0,0,1,402,560.16Z"/><path class="cls-2" d="M425,543.18a12.62,12.62,0,0,1,4.35.77,10.69,10.69,0,0,1,3.73,2.3,11.07,11.07,0,0,1,2.61,3.82,14.74,14.74,0,0,1,0,10.57,11.43,11.43,0,0,1-2.62,3.82,11,11,0,0,1-3.75,2.31,12.33,12.33,0,0,1-4.37.79l-1.46,0c-.6,0-1.13,0-1.61-.08a9.75,9.75,0,0,1-1-.19,8.25,8.25,0,0,1-.92-.29,4,4,0,0,1-2.05-1.77,5.93,5.93,0,0,1-.56-1.57,10.54,10.54,0,0,1-.19-2.08l.07-12.35a7.68,7.68,0,0,1,.72-3.64,3.87,3.87,0,0,1,2.08-1.81,6.23,6.23,0,0,1,1.94-.44,12.57,12.57,0,0,1,1.59-.12Zm0,21.45a7.8,7.8,0,0,0,2.61-.46,5.81,5.81,0,0,0,2.28-1.54,8,8,0,0,0,1.64-2.84,15.93,15.93,0,0,0,0-8.87,8.13,8.13,0,0,0-1.64-2.85,5.76,5.76,0,0,0-2.28-1.52,8,8,0,0,0-2.61-.44h-1.14a4.49,4.49,0,0,0-1.18.15,2.34,2.34,0,0,0-.92.5,1.32,1.32,0,0,0-.37,1V563a1.32,1.32,0,0,0,.37,1,2.21,2.21,0,0,0,.92.49,4.1,4.1,0,0,0,1.18.16Z"/><path class="cls-2" d="M451.58,563.91a2.49,2.49,0,0,1,.79.82l.1.1-.1.1a8.21,8.21,0,0,1-2.68,1.93,8,8,0,0,1-3.36.7,7,7,0,0,1-2.95-.63,7.8,7.8,0,0,1-2.44-1.76,8.26,8.26,0,0,1-1.62-2.57,8.42,8.42,0,0,1-.59-3.19,9.49,9.49,0,0,1,.52-3.19,8.07,8.07,0,0,1,1.52-2.61,7.34,7.34,0,0,1,5.56-2.38,8.26,8.26,0,0,1,2.1.29,7.2,7.2,0,0,1,2.13.92,5.24,5.24,0,0,1,1.63,1.65,4.43,4.43,0,0,1,.65,2.46,3.47,3.47,0,0,1-.71,2.26,5.26,5.26,0,0,1-1.71,1.37,7.6,7.6,0,0,1-2.1.68,12.27,12.27,0,0,1-1.92.19,12.86,12.86,0,0,1-2.2-.16c-.63-.1-1.05-.17-1.28-.22a5.47,5.47,0,0,0,.55,2,4.23,4.23,0,0,0,.92,1.21,2.83,2.83,0,0,0,1,.59,3,3,0,0,0,.92.16,6.6,6.6,0,0,0,1.36-.14,8.75,8.75,0,0,0,1.16-.31c.34-.11.67-.22,1-.34a2.61,2.61,0,0,1,.9-.17A1.53,1.53,0,0,1,451.58,563.91Zm-10-14.93c.39-.46.8-.9,1.23-1.33s.77-.81,1.23-1.25.91-.87,1.36-1.28a5.8,5.8,0,0,1,1.59-1,5.53,5.53,0,0,1,1.31-.36,2.9,2.9,0,0,1,1.19.11,2.54,2.54,0,0,1-.31,2.13,4.81,4.81,0,0,1-1.79,1.58,10.62,10.62,0,0,1-2.72,1A15.07,15.07,0,0,1,441.59,549Zm4.74,5.14a5.53,5.53,0,0,0-.89.19,2.76,2.76,0,0,0-1,.57,4,4,0,0,0-.91,1.15,5.75,5.75,0,0,0-.57,1.91,9.52,9.52,0,0,0,1.55.33,8,8,0,0,0,2,.05,4.07,4.07,0,0,0,1.77-.58,1.9,1.9,0,0,0,.84-1.6,1.69,1.69,0,0,0-.67-1.47A3,3,0,0,0,446.33,554.12Z"/><path class="cls-2" d="M463.55,563.23a1.13,1.13,0,0,0-.32-1,4.42,4.42,0,0,0-1.13-.75c-.49-.24-1.06-.5-1.72-.77a14.47,14.47,0,0,1-2.08-1.09,4.75,4.75,0,0,1-1.35-1.14,4.47,4.47,0,0,1-.77-1.44,4.85,4.85,0,0,1-.2-1.56,4.3,4.3,0,0,1,.38-1.59,3.85,3.85,0,0,1,.88-1.26,5,5,0,0,1,1.21-.84,5.83,5.83,0,0,1,1.35-.46,6.42,6.42,0,0,1,1.26-.13h.41a8,8,0,0,1,5.86,3l.11.11-.11.13a2.32,2.32,0,0,1-.75.72,1.53,1.53,0,0,1-.85.24,2.44,2.44,0,0,1-.92-.19c-.29-.13-.61-.26-.95-.39s-.84-.34-1.21-.46a3.51,3.51,0,0,0-1.15-.19,1.7,1.7,0,0,0-1.12.32,1.22,1.22,0,0,0-.44.77,1.19,1.19,0,0,0,.4,1.07,4.83,4.83,0,0,0,1.4.81c.71.29,1.46.62,2.25,1a9,9,0,0,1,2.12,1.29,5,5,0,0,1,1.39,1.84,4,4,0,0,1,.11,2.61,5.31,5.31,0,0,1-.58,1.28,4.47,4.47,0,0,1-1.14,1.21,6.33,6.33,0,0,1-1.78.91,7.71,7.71,0,0,1-2.44.35,2.59,2.59,0,0,1-.44,0,8.08,8.08,0,0,1-3.22-.85,7.9,7.9,0,0,1-2.64-2.08l-.11-.11.11-.13a1.83,1.83,0,0,1,.37-.44l.38-.31a1.75,1.75,0,0,1,.82-.21,2.48,2.48,0,0,1,.92.19c.29.13.61.26.95.39a6.11,6.11,0,0,0,1.07.41,6.46,6.46,0,0,0,1.32.24,2.58,2.58,0,0,0,1.75-.48A1.66,1.66,0,0,0,463.55,563.23Z"/><path class="cls-2" d="M482.85,563.91a2.48,2.48,0,0,1,.78.82l.11.1-.11.1a8.17,8.17,0,0,1-2.67,1.93,8.06,8.06,0,0,1-3.36.7,7,7,0,0,1-3-.63,7.69,7.69,0,0,1-2.44-1.76,8.26,8.26,0,0,1-1.62-2.57,8.42,8.42,0,0,1-.6-3.19,9.49,9.49,0,0,1,.53-3.19,7.9,7.9,0,0,1,1.52-2.61,7.29,7.29,0,0,1,5.56-2.38,8.24,8.24,0,0,1,2.09.29,7.15,7.15,0,0,1,2.14.92,5.35,5.35,0,0,1,1.63,1.65,4.51,4.51,0,0,1,.65,2.46,3.42,3.42,0,0,1-.72,2.26,5.12,5.12,0,0,1-1.7,1.37,7.6,7.6,0,0,1-2.1.68,12.38,12.38,0,0,1-1.92.19,12.78,12.78,0,0,1-2.2-.16c-.63-.1-1.06-.17-1.28-.22a5.68,5.68,0,0,0,.54,2,4.42,4.42,0,0,0,.92,1.21,2.87,2.87,0,0,0,1,.59,3,3,0,0,0,.92.16,6.67,6.67,0,0,0,1.36-.14,9.19,9.19,0,0,0,1.16-.31c.34-.11.67-.22,1-.34a2.71,2.71,0,0,1,.91-.17A1.56,1.56,0,0,1,482.85,563.91Zm-5.25-9.79a5.53,5.53,0,0,0-.89.19,2.8,2.8,0,0,0-1,.57,3.94,3.94,0,0,0-.9,1.15,6,6,0,0,0-.58,1.91,9.77,9.77,0,0,0,1.55.33,8,8,0,0,0,2,.05,4.12,4.12,0,0,0,1.78-.58,1.87,1.87,0,0,0,.83-1.6,1.65,1.65,0,0,0-.66-1.47A3,3,0,0,0,477.6,554.12Z"/><path class="cls-2" d="M486.7,559a8.86,8.86,0,0,1,.67-3.73,5.84,5.84,0,0,1,1.72-2.27,5.75,5.75,0,0,1,2.37-1.11,12.21,12.21,0,0,1,2.61-.29h1.67a3.58,3.58,0,0,1,.07,1.33,2,2,0,0,1-.47,1,1.83,1.83,0,0,1-1.27.58,5.79,5.79,0,0,0-1.15.26,2.45,2.45,0,0,0-1,.64,3.57,3.57,0,0,0-.74,1.32,7.39,7.39,0,0,0-.28,2.28v5c0,.68,0,1.23,0,1.65s0,.75,0,1,.05.48.07.62a5.12,5.12,0,0,1-3.2-.87,3.47,3.47,0,0,1-1.13-2.92Z"/><path class="cls-2" d="M507,564.22a1.12,1.12,0,0,0,0,.24,2.4,2.4,0,0,1,.07.51,2.18,2.18,0,0,1-.28,1.11,2.47,2.47,0,0,1-.75.83,3.83,3.83,0,0,1-2.31.68,5.21,5.21,0,0,1-2.22-.51,6,6,0,0,1-2-1.53,7.66,7.66,0,0,1-1.41-2.54,10.65,10.65,0,0,1-.53-3.57l0-9.85a3.59,3.59,0,0,1,1.09-2.93,5,5,0,0,1,3.17-.89c0,.16,0,.38-.06.65s0,.58-.05,1,0,1,0,1.66l0,2.15h4.57a3.45,3.45,0,0,1-.85,2.45,3.12,3.12,0,0,1-2.42.92h-1.3l0,4.84a9.69,9.69,0,0,0,.25,2.41,4.82,4.82,0,0,0,.7,1.58,2.9,2.9,0,0,0,2.39,1.16,4.35,4.35,0,0,0,1.23-.17Z"/><path class="cls-2" d="M513,546.55a2.21,2.21,0,0,1-2,1.2,2.25,2.25,0,0,1-1-.24,2.16,2.16,0,0,1-.79-.8,2.22,2.22,0,0,1-.27-1.08,2.13,2.13,0,0,1,.31-1.15,2.26,2.26,0,0,1,.85-.91,2.23,2.23,0,0,1,1.13-.32,2,2,0,0,1,1,.27,1.8,1.8,0,0,1,.81.78,2.22,2.22,0,0,1,.28,1.1A2.33,2.33,0,0,1,513,546.55Zm2.66,17.6a1.18,1.18,0,0,1-.58.39,1.66,1.66,0,0,1-.82.09,1.19,1.19,0,0,1-.71-.43,1.78,1.78,0,0,1-.31-1.18v-8.14c0-.69,0-1.24,0-1.66s0-.75,0-1,0-.49.06-.65a5,5,0,0,0-3.2.88,3.57,3.57,0,0,0-1.09,2.94l0,8a5.26,5.26,0,0,0,.26,1.64,3.58,3.58,0,0,0,2.1,2.27,3.85,3.85,0,0,0,1.84.22,2.3,2.3,0,0,0,1.6-.63,2.92,2.92,0,0,0,.68-1.18A4.56,4.56,0,0,0,515.65,564.15Z"/><path class="cls-2" d="M521.75,563.91c0,.68,0,1.24,0,1.67s0,.77.05,1,0,.48.07.62a5,5,0,0,1-3.22-.89,3.5,3.5,0,0,1-1.11-2.9l0-12.1a9.8,9.8,0,0,1,.5-3.17,7.48,7.48,0,0,1,1.48-2.59,6.71,6.71,0,0,1,2.32-1.76,7.31,7.31,0,0,1,3.1-.63,4,4,0,0,1,1.74.34,2.51,2.51,0,0,1,1.23,1,2.45,2.45,0,0,1,.17,1.81l-.07.2-.17-.06a6.85,6.85,0,0,0-1.11-.29,7.57,7.57,0,0,0-1.41-.12,3.72,3.72,0,0,0-.68.07,2.92,2.92,0,0,0-.89.3,3.49,3.49,0,0,0-.91.67,3.67,3.67,0,0,0-.73,1.14,5.68,5.68,0,0,0-.32,1.13,8.06,8.06,0,0,0-.12,1.46v.38h4.6a3.45,3.45,0,0,1-.85,2.45,3.12,3.12,0,0,1-2.42.92h-1.33Z"/><path class="cls-2" d="M532.8,546.55a2.21,2.21,0,0,1-2,1.2,2.25,2.25,0,0,1-1-.24,2.07,2.07,0,0,1-.78-.8,2.26,2.26,0,0,1,0-2.23,2.26,2.26,0,0,1,.85-.91,2.23,2.23,0,0,1,1.13-.32,2,2,0,0,1,1,.27,1.8,1.8,0,0,1,.81.78,2.22,2.22,0,0,1,.28,1.1A2.33,2.33,0,0,1,532.8,546.55Zm2.66,17.6a1.18,1.18,0,0,1-.58.39,1.66,1.66,0,0,1-.82.09,1.24,1.24,0,0,1-.72-.43A1.84,1.84,0,0,1,533,563v-8.14c0-.69,0-1.24,0-1.66s0-.75.06-1,0-.49.06-.65a5,5,0,0,0-3.2.88,3.57,3.57,0,0,0-1.09,2.94l0,8a5.26,5.26,0,0,0,.26,1.64,3.58,3.58,0,0,0,2.1,2.27,3.85,3.85,0,0,0,1.84.22,2.3,2.3,0,0,0,1.6-.63,2.92,2.92,0,0,0,.68-1.18A4.56,4.56,0,0,0,535.46,564.15Z"/><path class="cls-2" d="M544.63,554.12a3.24,3.24,0,0,0-1,.21,2.88,2.88,0,0,0-1.14.77,4.47,4.47,0,0,0-.92,1.6,9.61,9.61,0,0,0,0,5.35,4.52,4.52,0,0,0,.92,1.61,2.85,2.85,0,0,0,1.14.76,3.24,3.24,0,0,0,1,.21,6.77,6.77,0,0,0,1.37-.14,9,9,0,0,0,1.15-.31l1-.36a2.83,2.83,0,0,1,.9-.15,1.86,1.86,0,0,1,.89.24,3.07,3.07,0,0,1,.78.79l.07.13-.1.1a8.21,8.21,0,0,1-2.68,1.93,7.91,7.91,0,0,1-3.32.7,7,7,0,0,1-3-.65,7.81,7.81,0,0,1-4.06-4.31,8.61,8.61,0,0,1-.59-3.19,9.25,9.25,0,0,1,.54-3.19,8.3,8.3,0,0,1,1.54-2.61,7.59,7.59,0,0,1,2.38-1.74,7.44,7.44,0,0,1,3.14-.64,8.14,8.14,0,0,1,6,2.62l.1.1-.1.14a1.85,1.85,0,0,1-.79.79,1.34,1.34,0,0,1-.85.23,2.83,2.83,0,0,1-.9-.15l-1-.32a7.44,7.44,0,0,0-1.15-.36A6.12,6.12,0,0,0,544.63,554.12Z"/><path class="cls-2" d="M555,558.52a7.35,7.35,0,0,1,2.08-.87,10.09,10.09,0,0,1,2.42-.29,10.75,10.75,0,0,1,3.37.52,6.49,6.49,0,0,0-.44-1.88,3,3,0,0,0-1.33-1.53,3,3,0,0,0-.73-.26,4.12,4.12,0,0,0-.91-.09h-.37a6.41,6.41,0,0,0-1,.16,9.31,9.31,0,0,0-1,.29c-.32.11-.64.21-1,.29a3.69,3.69,0,0,1-.92.12,2.13,2.13,0,0,1-.92-.21,2,2,0,0,1-.71-.78l-.07-.14.07-.1a7.93,7.93,0,0,1,5.42-2.52,1.11,1.11,0,0,1,.29,0h.29a7.19,7.19,0,0,1,2.86.56,7,7,0,0,1,2.25,1.56,8.08,8.08,0,0,1,2,5.55v.28a8.86,8.86,0,0,1-1.8,5.76,7.12,7.12,0,0,1-2.13,1.77,7.48,7.48,0,0,1-2.78.86l-.41,0h-.45a10.07,10.07,0,0,1-1.5-.12,5.72,5.72,0,0,1-1.53-.46,6,6,0,0,1-1.43-.8,4,4,0,0,1-1.09-1.28,4.62,4.62,0,0,1-.69-2.42v-.21a4.18,4.18,0,0,1,.55-2.21A4.38,4.38,0,0,1,555,558.52Zm7,1.64-1-.14a10.88,10.88,0,0,0-1.14-.06,6.81,6.81,0,0,0-.92,0,3.4,3.4,0,0,0-.82.18,2.62,2.62,0,0,0-1.3.86,1.74,1.74,0,0,0-.27.46,2.3,2.3,0,0,0-.14.56,1.19,1.19,0,0,0,0,.31,2.84,2.84,0,0,0,.1.73,1.67,1.67,0,0,0,.41.73,2.1,2.1,0,0,0,.8.58,3.46,3.46,0,0,0,1.42.24,2.15,2.15,0,0,0,.41,0,3.08,3.08,0,0,0,1.67-.55,2.29,2.29,0,0,0,.58-.49,5.23,5.23,0,0,0,.41-.63,5.06,5.06,0,0,0,.51-1.33,6.59,6.59,0,0,0,.13-1.27h0l-.05,0-.31-.07A3.4,3.4,0,0,1,562.05,560.16Z"/><path class="cls-2" d="M578.11,564.22a1.2,1.2,0,0,0,0,.24,2.4,2.4,0,0,1,.07.51,2.18,2.18,0,0,1-.28,1.11,2.47,2.47,0,0,1-.75.83,3.83,3.83,0,0,1-2.31.68,5.21,5.21,0,0,1-2.22-.51,6,6,0,0,1-2-1.53,7.66,7.66,0,0,1-1.41-2.54,10.65,10.65,0,0,1-.53-3.57l0-9.85a3.59,3.59,0,0,1,1.09-2.93,5,5,0,0,1,3.17-.89c0,.16,0,.38-.06.65s0,.58-.06,1,0,1,0,1.66l0,2.15h4.57a3.45,3.45,0,0,1-.85,2.45,3.12,3.12,0,0,1-2.42.92h-1.3l0,4.84a9.69,9.69,0,0,0,.25,2.41,4.82,4.82,0,0,0,.7,1.58,2.9,2.9,0,0,0,2.39,1.16,4.35,4.35,0,0,0,1.23-.17Z"/><path class="cls-2" d="M584.15,546.55a2.21,2.21,0,0,1-2,1.2,2.25,2.25,0,0,1-1-.24,2.16,2.16,0,0,1-.79-.8,2.22,2.22,0,0,1-.27-1.08,2.13,2.13,0,0,1,.31-1.15,2.26,2.26,0,0,1,.85-.91,2.23,2.23,0,0,1,1.13-.32,1.93,1.93,0,0,1,1,.27,1.78,1.78,0,0,1,.82.78,2.29,2.29,0,0,1,0,2.25Zm2.66,17.6a1.23,1.23,0,0,1-.58.39,1.66,1.66,0,0,1-.82.09,1.24,1.24,0,0,1-.72-.43,1.84,1.84,0,0,1-.3-1.18v-8.14c0-.69,0-1.24,0-1.66s0-.75.06-1,0-.49.06-.65a5,5,0,0,0-3.2.88,3.57,3.57,0,0,0-1.09,2.94l0,8a5.26,5.26,0,0,0,.26,1.64,3.58,3.58,0,0,0,2.1,2.27,3.85,3.85,0,0,0,1.84.22,2.32,2.32,0,0,0,1.6-.63,2.92,2.92,0,0,0,.68-1.18A4.56,4.56,0,0,0,586.81,564.15Z"/><path class="cls-2" d="M601.37,553.65a7.88,7.88,0,0,1,1.65,2.57,8.42,8.42,0,0,1,.6,3.19,9,9,0,0,1-.55,3.19,7.7,7.7,0,0,1-1.53,2.57,7.17,7.17,0,0,1-2.41,1.78,7.48,7.48,0,0,1-3.15.64,6.87,6.87,0,0,1-3-.64A8.06,8.06,0,0,1,589,562.6a8.61,8.61,0,0,1-.59-3.19,9.25,9.25,0,0,1,.53-3.19,7.4,7.4,0,0,1,1.51-2.57,7.17,7.17,0,0,1,2.41-1.78,7.48,7.48,0,0,1,3.15-.64,6.94,6.94,0,0,1,3,.64A7.59,7.59,0,0,1,601.37,553.65Zm-5.39,11a3.43,3.43,0,0,0,1-.2,2.84,2.84,0,0,0,1.14-.79,4.5,4.5,0,0,0,.92-1.6,7.85,7.85,0,0,0,.38-2.66,8.06,8.06,0,0,0-.38-2.68,4.41,4.41,0,0,0-.92-1.6,3,3,0,0,0-1.14-.77,3.43,3.43,0,0,0-1-.2,3.49,3.49,0,0,0-1,.2,3,3,0,0,0-1.14.77,4.56,4.56,0,0,0-.92,1.6,8.06,8.06,0,0,0-.38,2.68,7.85,7.85,0,0,0,.38,2.66,4.65,4.65,0,0,0,.92,1.6,2.84,2.84,0,0,0,1.14.79A3.49,3.49,0,0,0,596,564.66Z"/><path class="cls-2" d="M606.21,558.63a8.91,8.91,0,0,1,.67-3.74,6.08,6.08,0,0,1,1.7-2.27,5.78,5.78,0,0,1,2.35-1.1,12.12,12.12,0,0,1,5.27,0,6,6,0,0,1,2.4,1.1,5.86,5.86,0,0,1,1.74,2.27,8.91,8.91,0,0,1,.67,3.74l.14,8.59a5.09,5.09,0,0,1-3.21-.89,3.47,3.47,0,0,1-1.12-2.9l0-4.8a7.61,7.61,0,0,0-.29-2.31,3.47,3.47,0,0,0-.77-1.36,2.39,2.39,0,0,0-1-.66,4,4,0,0,0-1.16-.18,3.78,3.78,0,0,0-1.15.18,2.3,2.3,0,0,0-1,.66,3.58,3.58,0,0,0-.75,1.36,7.61,7.61,0,0,0-.29,2.31v5.28c0,.68,0,1.24,0,1.67s0,.77.05,1,0,.48.07.62a5.14,5.14,0,0,1-3.24-.89,3.47,3.47,0,0,1-1.12-2.9Z"/></svg>