<svg id="Calque_1" data-name="Calque 1" xmlns="http://www.w3.org/2000/svg" viewBox="0 0 725 595.28"><defs><style>.cls-1{fill:#daa100;}</style></defs><path class="cls-1" d="M16,349.57c5-24.21,22.63-34.37,44.45-39.26,7.46-1.67,15.34-1.82,23-2,13-.3,26-.07,38.93-.06h3.92c-.88,1.32-1.31,2.12-1.88,2.81q-5.73,6.93-11.5,13.83c-2.33,2.78-3.45,2.67-5.66-.25a2.76,2.76,0,0,0-2-.92c-14.13.12-28.42-1.19-42.25,2.61-10.57,2.9-18.86,9-22.27,20.09a63.24,63.24,0,0,0-1.37,7.31l.85.41c2-2.95,4.27-5.76,6-8.88,1.92-3.52,4.49-4.47,8.43-4.44,28,.2,56.05.13,84.08.15h4.85l-5.89,7.27c-2.47,3.05-5,6.05-7.37,9.19-1.41,1.88-3,2.72-5.59,1.87.07-2.36-1.4-3-3.7-3q-39.42,0-78.85,0c-.53,0-1.05.11-2.1.22a40,40,0,0,0,1.2,5.06c3.92,10.26,12.17,15.55,22.23,17.81A112.54,112.54,0,0,0,86.17,382c20.38.35,40.78.17,61.18.05,2,0,3.9-1,5.85-1.56,2.51-.7,5-1.42,7.52-2.13l.54,1a16.86,16.86,0,0,1-1.25,2c-3.87,4.72-7.68,9.5-11.73,14.07a6.2,6.2,0,0,1-4.07,1.92c-22,.09-44.06.2-66.09-.05C66.76,397.24,55.56,395.67,45,391c-14.77-6.5-26.17-15.95-29-32.94Z"/><path class="cls-1" d="M370.75,458.23a13.07,13.07,0,0,1-2.14-3c-1.4-4-2.59-8-4.12-12.83-1.75,4.88-3.13,9-4.72,13-.36.91-1.45,1.53-2.2,2.28-.65-.75-1.6-1.41-1.89-2.29-1.78-5.36-3.3-10.81-5.15-16.14-.57-1.61-1.93-2.94-2.92-4.41-.33-.5-1-1.28-.87-1.48a2.6,2.6,0,0,1,1.67-1.14c3-.06,6.1,0,9.15.13a1.82,1.82,0,0,1,1.39,1,1.75,1.75,0,0,1-.88,1.43c-2,.81-1.79,2.15-1.27,3.76.83,2.54,1.58,5.11,2.6,8.46a86,86,0,0,0,3-8.66c.21-.87-.86-2.09-1.46-3.08a16.31,16.31,0,0,0-1.48-1.86,7.63,7.63,0,0,1,2.39-1.09,59.48,59.48,0,0,1,7.19,0,10.48,10.48,0,0,1,2.85,1c-.68.71-1.36,1.43-2,2.13-.22.23-.47.44-.9.83,1,3.32,2,6.71,3,10.1l.65,0c.85-2.86,1.85-5.69,2.44-8.59.16-.8-.93-1.84-1.44-2.77l-1-1.78c.54-.26,1.07-.74,1.62-.75,2.91-.08,5.82,0,9.11,0-.35,1.11-.38,2.05-.72,2.17-3.11,1.17-3.75,4-4.74,6.63-2.13,5.69-4.34,11.34-6.52,17Z"/><path class="cls-1" d="M564.5,458.23c-4.18-2-4.18-2-5.14-10.54a35.27,35.27,0,0,1,3.21,2.28c1.68,1.58,3,3.62,5,4.74.87.5,2.76-.75,4.18-1.21-.49-1.4-.64-3.08-1.55-4.11s-2.71-1.74-4.14-2.53c-4.6-2.56-6.09-5.32-4.87-9.12,1.1-3.43,5.64-6,9.81-5.58a22,22,0,0,1,2.89.55c2.36.58,3.57,1.85,2.86,4.48a42.46,42.46,0,0,0-.65,4.65,15.58,15.58,0,0,1-2.4-2.1c-.47-.69-.4-1.84-1-2.37a6.25,6.25,0,0,0-3.15-1.79,2.83,2.83,0,0,0-2.21,1.74,5.06,5.06,0,0,0,1.18,3.4,12.66,12.66,0,0,0,3.54,2.28c3.26,1.76,6.38,3.71,6.2,8-.18,4.11-3.25,5.85-6.57,7.24Z"/><path class="cls-1" d="M573.85,398.45c-.74-2.39-.39-3.9,1.62-5.31.92-.65,1.3-2.6,1.31-4,.07-19.52.13-39,0-58.56,0-3.36.9-4.33,4.2-4.15,5.22.27,10.47.21,15.7,0,2.66-.1,3.33.89,3.31,3.4-.11,16.36,0,32.72-.19,49.07,0,3.05.67,4.15,3.94,4.1,14.72-.22,29.45.12,44.16-.32,9.88-.3,19.44-2.43,27.5-8.84,12.69-10.08,13.1-28,.95-38.74-7.49-6.61-16.51-9.41-26.14-9.58-27.46-.5-54.94-.55-82.41-.77-4.47,0-4.47,0-4.51-4.47,0-2.66.54-5.46-2.62-7.1-.57-.3-.77-2.06-.49-2.94.18-.56,1.54-1.05,2.38-1.06,7.74-.07,15.48,0,23.23,0,19.3.08,38.61.12,57.91.3,11.15.11,22.19,1.39,32.7,5.29,13.7,5.1,24.76,13.39,30.17,27.54,6,15.72,1,31.47-13.19,42.25A64,64,0,0,1,655.76,398c-26.59.72-53.2.53-79.8.71A21.1,21.1,0,0,1,573.85,398.45Z"/><path class="cls-1" d="M300.31,137.45v89.48h76.34c1.9-7.56-.15-11.2-7.59-13a36.42,36.42,0,0,0-8.07-1c-9.05-.12-18.1,0-27.15-.06-4.2,0-7.19-2.6-8.3-6.94-1.36-5.35-.15-8.94,4-11.36,3.92,5,9.8,4.64,15.22,4.84,8.71.32,17.46-.31,26.16.05,11.31.47,18.51,7.3,20.26,18.51.45,2.88.66,5.8,1,9h19.17c.14-.27.41-.55.41-.83-.05-8.5-.13-17-.19-25.51,0-3.13-1.41-5.21-4.22-6.76-4.29-2.37-3.85-4.67-.09-7.73,5.46-4.44,10.38-9.54,15.49-14.4a25,25,0,0,0,2.13-2.86c.15,1.61.3,2.52.3,3.42,0,21.7,0,43.4.07,65.1,0,2.8-.63,3.79-3.61,3.73-9.9-.19-19.81-.07-30.12-.07,0,5.36-.05,10.41,4.52,14.58-3.47,2.64-6.93,3.72-11,2.43-8.51-2.68-7.85-9.88-8-17h-4c-27.37,0-54.75-.07-82.12.09-3.44,0-4.13-1.05-4.11-4.24.12-19.3.06-38.6,0-57.91,0-3.81-.37-7.62-.43-11.43a6.24,6.24,0,0,0-3.84-5.93,9,9,0,0,1-2.64-1.88,3.33,3.33,0,0,1,.64-5.29C288.1,150.12,294.25,144.2,300.31,137.45Z"/><path class="cls-1" d="M402,340.26c0-8.25.06-16.08-.08-23.91,0-.79-1.31-1.51-1.83-2.37-.72-1.18-1.27-2.47-1.89-3.71,1-.46,2.1-1.31,3.17-1.33,8-.11,15.92-.06,23.89,0,1,0,1.9.15,4,.33-1.17,2-2,3.36-2.75,4.78s-1.84,2.94-1.84,4.42q0,21.6.38,43.19a8.33,8.33,0,0,1-2.51,6.39c-6.72,7-13.32,14.05-20.58,21.75V356.08c-1.58-.14-2.86-.34-4.14-.34-17.89-.06-35.78-.26-53.67,0-3.34.06-6.65,2.1-10,3.24,0,10.75,0,21.1.06,31.46,0,.8.81,1.6,1.28,2.39.83,1.4,1.68,2.79,2.81,4.67a23.29,23.29,0,0,1-3.16.58c-8.29,0-16.58,0-24.87-.05-.89,0-2.5-.69-2.52-1.14-.08-1.15.2-3,1-3.41,2.22-1.3,2.33-3.09,2.32-5.26q-.06-35,0-70c0-2-.13-3.69-2.17-5-.9-.58-.95-2.49-1.58-4.37h19c3,0,5.9-.08,8.84.06.9.05,2.45.64,2.53,1.16.14,1-.24,2.75-.94,3.08-2.79,1.33-2.66,3.62-2.65,6.06,0,11,0,22,0,34.16,3-3.79,5.65-6.72,7.86-9.94,1.74-2.52,3.8-3.39,6.83-3.36,16.25.17,32.5.16,48.75.2Z"/><path class="cls-1" d="M180.69,324.14h-3.8c-14.62,0-29.24-.12-43.85,0a14.74,14.74,0,0,0-6.5,1.59,6.14,6.14,0,0,1-6.91-.19,12.63,12.63,0,0,1,1-1.89c3.53-4.44,7-8.95,10.72-13.21a6.56,6.56,0,0,1,4.33-2.09q64.31.09,128.61.44c.84,0,1.68.13,3.28.26l-8,9.6c-1.94,2.36-3.82,4.77-5.84,7.06-2.23,2.52-3.36,2.33-5.1-.53a2.14,2.14,0,0,0-1.51-.9c-14.48-.05-29,0-43.85,0v4.1c0,19.75,0,39.49,0,59.24,0,2.36-.09,4.48,2.56,5.76.71.34,1,2,1,3.07,0,.44-1.14,1.32-1.78,1.33-9.25.09-18.5.06-27.68.06-1-2.57-.62-4.08,1.46-5.38a4.4,4.4,0,0,0,1.73-3.18C180.72,367.73,180.69,346.25,180.69,324.14Z"/><path class="cls-1" d="M178.74,227.22h59.08c0,5,0,9.87,0,14.74A9.56,9.56,0,0,0,250,250.88a6.06,6.06,0,0,0,4.85-5.1,18.72,18.72,0,0,0,.38-3.24q0-14.55-.15-29.11c0-4.64-1.71-6.46-6.36-7a29.69,29.69,0,0,0-3.27-.06c-21.37,0-42.75-.08-64.12,0-2.78,0-3.81-.6-3.76-3.59.17-11,.06-22,.07-33,0-1,.09-1.93.17-3.54a19.78,19.78,0,0,1,2.62,1.69c4.6,4.29,9.31,8.48,13.66,13,1.92,2,.48,4.12-1.42,5.52-2.34,1.73-3.85,3.76-3.51,7.16h70.32c7.38,0,10.15,3.1,10.07,10.38-.18,14.5-.26,29,0,43.51a13.5,13.5,0,0,1-5.16,11.07c-7,6-19.59,7.55-27.73,3.22-5.45-2.91-8.84-7.16-8.57-13.85.27-6.32.07-6.33-6.39-6.33-13.2,0-26.4-.05-39.59,0-2.52,0-3.53-.63-3.38-3.29C178.89,234.83,178.74,231.23,178.74,227.22Z"/><path class="cls-1" d="M463.77,230.76c4.28-4,8.87-8.15,13.32-12.48a4.45,4.45,0,0,0,.88-3c0-15.81,0-31.63,0-47.44a7.18,7.18,0,0,0-3.23-6.35c-3.83-2.77-3.5-4.75-.06-7.93,4-3.76,7.57-8.09,11.4-12.1a13.72,13.72,0,0,1,2.71-1.76,9.18,9.18,0,0,1,1,2.83q.11,39.27,0,78.52a6.64,6.64,0,0,1-1.77,3.94c-4,4.45-8.24,8.72-12.36,13.08-1,1-1.86,2.09-3.09,3.48L486.8,255c-8.1,8-15.67,15.49-23.05,22.77l-22.52-22.81,13.7-13.14c-3.69-3.71-6.76-7.45-10.46-10.37-5.46-4.3-7.15-9.4-7-16.35.45-23.44.17-46.89.17-70.34a13.59,13.59,0,0,1,.08-2.93c.16-.75.62-1.8,1.19-2s1.54.48,2,1c2.44,2.79,4.67,5.76,7.16,8.49a45.24,45.24,0,0,0,5.35,4.8c2.58,2.05,3,4.92.18,6.7-3.7,2.37-4.29,5.58-4.26,9.52.12,14.61,0,29.22.16,43.83a8.13,8.13,0,0,0,2,5.1C455.56,223.4,459.92,227.19,463.77,230.76Zm-8.94,24.41,8.81,9.16,8.67-8.29-8.76-9.3Z"/><path class="cls-1" d="M569,398.66c-10.35,0-20.71,0-31.05-.09-.74,0-2.16-1.49-2-2,.25-1.2,1.28-2.24,2.27-3.79a12.11,12.11,0,0,0-1-1.3c-7.47-7.95-14.89-15.95-22.5-23.76a7.91,7.91,0,0,0-5-2.19c-12.32-.19-24.65-.14-37-.1a8.23,8.23,0,0,0-4.07.79c-2.41,1.47-4,.43-6.13-1.24,4.38-4.77,8.57-9.46,12.94-14,.68-.71,2.19-.83,3.33-.84,6.08-.08,12.16,0,19,0l-26.32-27.47,14.49-12.95,83.62,88.15Z"/><path class="cls-1" d="M300.87,398c-9.14,0-18.28,0-27.42-.06-.63,0-1.77-.86-1.77-1.33,0-1.07.23-2.74.93-3.11,2.38-1.27,2.55-3.18,2.55-5.47q0-34.67.2-69.34c0-2.27-.21-4.15-2.47-5.57-.89-.56-.94-2.48-1.48-4.12h30.87c-1.09,2-1.87,3.44-2.58,4.86-.55,1.1-1.42,2.24-1.43,3.36q-.12,36.3,0,72.61c0,1,.79,2.05,1.3,3,.74,1.45,1.56,2.86,2.35,4.29Z"/><path class="cls-1" d="M399.46,397.24l70-72.61,13.28,14.19-51.66,53.39c.69,2,1.24,3.68,1.94,5.75H400Z"/><path class="cls-1" d="M508.31,137.05c5.18,4.79,10.15,9.45,15.21,14a25.78,25.78,0,0,0,4.1,2.67c2.9,1.74,3.34,4.95.34,6.35-5.57,2.59-6,7-5.91,12.17.14,21.91.06,43.81.2,65.72,0,2.76-.83,3.71-3.51,3.52a62.89,62.89,0,0,0-7.52,0c-2.46.12-3.15-.92-3.12-3.29.1-9.92,0-19.84,0-29.76q0-34.15,0-68.33C508.17,139,508.26,138,508.31,137.05Z"/><path class="cls-1" d="M288.79,446.77c-1.06,5.38-.84,5.81,3.56,7.87.49.23.8.85,1.19,1.29-.43.37-.85,1.06-1.28,1.07-4.77.07-9.54.05-14.31.05l-.43-.83c.63-.62,1.18-1.67,1.89-1.79,2.44-.39,2.87-1.91,2.84-4q-.08-6,0-12.1c0-2-.54-3.34-2.79-3.63-.61-.08-1.12-1-1.67-1.48.65-.41,1.3-1.19,1.94-1.19,4.89.08,9.79.2,14.67.52a5.84,5.84,0,0,1,3.25,10.5c-1.66,1.31-1.41,2.36-.51,3.83,2.09,3.42,4.6,6.32,8.42,7.92.63.27,1,1.11,1.53,1.69-.69.38-1.36,1.06-2.07,1.1-5.29.27-9.62-1.4-12.26-6.35-.92-1.73-2-3.37-3-5.05Zm-.21-11.43v7.58c2.8-.21,4.6-1.56,4.63-4.13S291.44,435.27,288.58,435.34Z"/><path class="cls-1" d="M167.63,457c-1.52,0-3.06.1-4.57,0-.63-.06-1.21-.63-1.81-1,.34-.58.74-1.13,1-1.74.44-1,1.37-2.26,1.08-3-.49-1.29-1.67-3.08-2.75-3.22-1.93-.25-4.81-1.44-5.62,2-.46,1.94-1.06,4,2.11,4.34.46,0,.83,1,1.25,1.51-.57.38-1.12,1.08-1.69,1.11-2.94.1-5.89.08-8.83,0-.53,0-1.48-.61-1.46-.9a3.57,3.57,0,0,1,.91-1.79c1-1.31,2.51-2.4,3.16-3.86,2.4-5.35,4.39-10.88,6.84-16.21.65-1.42,2.31-2.45,3.69-3.38.19-.13,1.81,1.18,2.17,2.06,2.28,5.65,4.28,11.41,6.65,17,.69,1.65,2.32,2.91,3.48,4.37a16.66,16.66,0,0,1,1.09,1.76c-.6.34-1.19.92-1.81,1-1.63.14-3.27.05-4.91.05Z"/><path class="cls-1" d="M439.09,454c-1-5.53-1.25-5.57-5.58-5.66-2.58-.05-3.13,1.48-3.59,3.33s.26,3.08,2.4,3.32c.48.05.87.94,1.3,1.45-.55.39-1.08,1.1-1.65,1.13-2.72.11-5.45.11-8.17,0a6.79,6.79,0,0,1-2.15-1c.46-.63.88-1.27,1.37-1.87.73-.89,1.81-1.62,2.24-2.63,2.41-5.7,4.51-11.53,7.1-17.15.77-1.67,2.76-2.78,4.69-4.62,1.3,3.27,2.33,5.85,3.34,8.43,1.46,3.75,2.74,7.59,4.44,11.23.86,1.83,2.5,3.31,3.74,5,.36.48.94,1.22.79,1.54a2.21,2.21,0,0,1-1.57,1.15c-2.94.12-5.89.14-8.83,0a8.72,8.72,0,0,1-2.55-.95c.65-.7,1.29-1.41,2-2.09A7.89,7.89,0,0,1,439.09,454Z"/><path class="cls-1" d="M489.46,432.61c3.8,0,7.6,0,11.39,0a2.14,2.14,0,0,1,1.51.86c.19.3-.06,1.33-.33,1.42-3,1.08-1.29,2.88-.69,4.41a41.1,41.1,0,0,0,2,3.84c.87-1.81,1.54-3.16,2.16-4.53s1.2-2.65-.89-3.42c-.47-.17-.79-1.17-.85-1.81,0-.22,1-.75,1.52-.77,2.72-.08,5.45-.1,8.18,0,.56,0,1.1.73,1.64,1.12-.42.54-.74,1.3-1.3,1.58-5.39,2.65-9.95,11.29-8.66,17.09.22,1,1.86,1.63,2.82,2.46.59.5,1.13,1,1.7,1.57-.64.4-1.26,1.14-1.91,1.16q-6,.15-12.1,0c-.64,0-1.25-.81-1.87-1.24.48-.48.88-1.21,1.46-1.42,3.15-1.16,4.59-3.6,3.3-7a93.51,93.51,0,0,0-5.12-10.57c-.46-.85-1.68-1.28-2.51-1.95s-1.35-1.21-2-1.82Z"/><path class="cls-1" d="M413.28,168.79l-9.63-9.6L414,149.41l9.19,9.18Z"/><path class="cls-1" d="M381.72,159.39l10.29-10,10.1,10.38c-2.64,2.58-5.76,5.71-9,8.7a2.26,2.26,0,0,1-2.19-.11C387.75,165.42,384.72,162.35,381.72,159.39Z"/><path class="cls-1" d="M222.15,444.38c0-2,0-3.92,0-5.88s-.23-3.68-2.81-3.87c-.51,0-.95-.94-1.42-1.44.63-.41,1.25-1.16,1.89-1.18q5.55-.18,11.1,0c.66,0,1.3.73,2,1.12-.52.55-1,1.12-1.57,1.63-.84.8-2.4,1.53-2.45,2.35a139.41,139.41,0,0,0-.12,14.31c0,1,1.52,1.9,2.37,2.81.53.56,1.11,1.07,1.67,1.6-.64.4-1.26,1.14-1.91,1.16q-5.55.16-11.1,0c-.66,0-1.29-.75-1.93-1.16.45-.51.89-1.44,1.37-1.47,2.78-.15,3-2,3-4.08C222.12,448.3,222.16,446.34,222.15,444.38Z"/><path class="cls-1" d="M454.83,255.17l8.72-8.43,8.76,9.3-8.67,8.29Z"/><path class="cls-1" d="M288.58,435.34c2.86-.07,4.66,1,4.63,3.45s-1.83,3.92-4.63,4.13Z"/></svg>