<svg id="Calque_1" data-name="Calque 1" xmlns="http://www.w3.org/2000/svg" xmlns:xlink="http://www.w3.org/1999/xlink" viewBox="0 0 725 595.28"><defs><style>.cls-1{fill:url(#Dégradé_sans_nom_3);}.cls-2{fill:#19407b;}.cls-3{fill:url(#Dégradé_sans_nom_2);}</style><radialGradient id="Dégradé_sans_nom_3" cx="131.54" cy="-171.62" r="60.6" gradientTransform="matrix(2.14, -0.22, -0.25, -2.44, 41.38, -125.39)" gradientUnits="userSpaceOnUse"><stop offset="0" stop-color="#fff"/><stop offset="1" stop-color="#9b987c"/></radialGradient><radialGradient id="Dégradé_sans_nom_2" cx="-450.03" cy="593.64" r="1" gradientTransform="matrix(89.63, 0, 0, -89.36, 40666.36, 53320.69)" gradientUnits="userSpaceOnUse"><stop offset="0" stop-color="#3c70b6"/><stop offset="1" stop-color="#30358c"/></radialGradient></defs><path id="path3124" class="cls-1" d="M439.57,281.35A69.32,69.32,0,1,1,370.26,212,69.31,69.31,0,0,1,439.57,281.35Z"/><g id="g3906"><path id="path3908" class="cls-2" d="M712.31,318.38H450.57v-2.85H712.31Z"/><g id="g3910"><path id="path3912" class="cls-2" d="M682.37,304.59c-1.77-1.65-2.24-2.63-2.88-1.59s-1.52,2.37-1.86,2.94-.72,1,.26,2,.87.81,1.19,1.17.53.73,1.28-.41,1.25-2.2,1.69-2.89.67-.94.32-1.2"/></g><g id="g3914"><path id="path3916" class="cls-2" d="M489.45,271.21c-4,.67-4.68.55-5.1,2-.61,2.18-2.05,5-1.21,4.88a31,31,0,0,0,4.52-1.24c1.06-2.24,1.84-4.4,1.79-5.61"/></g><g id="g3918"><path id="path3920" class="cls-2" d="M599.43,307.39c1.48-3.36,2.41-4.29.77-4.93s-3.84-.15-5.48,3.33-2.75,5.42-.86,4.23c1.45-2.34,3.6-4.81,4.79-2a.87.87,0,0,0,.78-.58"/></g><g id="g3922"><path id="path3924" class="cls-2" d="M575.08,298.92c-2.62,4.05-3.1,4.64-2.68,5.59s2.09,2.15,2.26,2.63c1.74-2.69,2.68-3.58,2.87-4.4-.07-.36-.43-1.49-2.45-3.82"/></g><g id="g3926"><path id="path3928" class="cls-2" d="M491.56,302.57c-4.78,1.73-5.36,1.73-5.36,1.73-1.55,4.86-1.75,5.52-1.75,5.52,5.08-1.19,5.38-1.36,5.38-1.36,1.55-5.06,1.42-5,1.73-5.89"/></g><g id="g3930"><path id="path3932" class="cls-2" d="M489.11,289.41c-.56,0-.66.19-.83.61-2.34.05-2,.29-2.45,0s-.62-.35-.78-.66c.59-1.3,2-3.57,4.06-3.74.06,3.62,0,3.79,0,3.79m15-.66c.54-1.71,1.25-1.19,3.05-1.23.1.3-.11.54-.3,1.07-.88,0-1,.24-1.44.72-1.17.47-1.45,0-1.31-.56m6.74,3.54c1.86-3.05,3.7-5.61,3.17-6.31-2.46-.31-3.94,0-4.54-3a2,2,0,0,0-3.57-.24,21.25,21.25,0,0,0-3.89,7.56c-.6.66-3.94,2.16-4.64.44a8.09,8.09,0,0,0-.2-2.42c-.84,2.27-.76,3.41-4.46,4-1-.24-.79-.12-.86-3.54s-.16-8.5-.27-9.12c-.25-.22-3.24.85-7.75,8.73-1.55,2.67-2.46,8.17,1.49,8.41,1.06,0,2.8-2,3.91-4.48a59.18,59.18,0,0,0,.41,6.63c1.1.16,4.37-.78,5.39-2.49,1.19,1.24.66,1.65,3.93,1.65.13,1.8,0,1.59-.65,2.68-.72,1.55-1.57,3.75-1.57,3.75a35.8,35.8,0,0,0,4.2,3.41c2.22-5,2.22-5.08,2.22-5.08-3.61-2.77-3.55-2.86-3.55-2.86-.1-1.2-.1-1.66.31-2.09,2.44-2.15,3.57-2.87,10.92-5.6"/></g><g id="g3934"><path id="path3936" class="cls-2" d="M518.22,289.31c-.89,2.5-3,4.14-10.33,7.94-.16.7-.73,1.49,3.48,1.78s6.44-2.6,6.85-9.72"/></g><g id="g3938"><path id="path3940" class="cls-2" d="M527.72,269.1c-2.45,4.16-2.45,4.22-2.45,4.22,2.22,3.72,2.31,3.82,2.31,3.82,2.75-4.72,2.93-4.72,2.93-4.72-2.74-3.15-2.57-2.8-2.74-3.23"/></g><g id="g3942"><path id="path3944" class="cls-2" d="M534.7,269.4c-1.85,2.8-2.29,3.39-2.29,3.39.06,7.52,0,8.16,0,8.16a13.39,13.39,0,0,1-1.9-.12c-2.85,5.92-3,6.46-2.85,6.94,3.4,1.64,4.34,2,4.34,2,0,.71.53,1.2-.36,1.5s-5.31,1.78-7.46,1.15c-.41-8.73-.5-22.21-.77-22.86-1.12,1.24-3,4.11-3,4.11.24,9,.93,25.54.93,25.54,3.73.24,11.91-1.33,13.64-7.7,1-3.64,2.26-6.63-2.4-7.9,1.15-2.07,2.51-4.34,2.51-6.26s0-7.31-.34-8"/></g><g id="g3946"><path id="path3948" class="cls-2" d="M541,276c-1.5,2-2.22,2.86-2.22,2.86.36,13.66.19,15,.72,15.4.66.12,1.61-1.62,2-2.52-.18-12.33-.13-14.43-.47-15.74"/></g><g id="g3950"><path id="path3952" class="cls-2" d="M556.1,290.45c-1.84,2.87-7.44,6-11.26,7.5,1.24,1.13,6.45,2.23,9.32-.76,1.1-1.8,2.6-4.44,1.94-6.74"/></g><g id="g3954"><path id="path3956" class="cls-2" d="M551.76,276.06c-1,0-2.08.67-3.16,2.85s-5.45,9.75-1.8,12.61c1.36.18,3.82.94,5.91-5.54.77-4.31,1.55-9.19-1-9.92m-1,8.9c-1,1.85-2.59.46-2.94-.24-.34-2.92,1.21-2.87,2-2.57,1.25.46,1.07,1.55,1,2.81"/></g><g id="g3958"><path id="path3960" class="cls-2" d="M550.19,269.19c-3.29,0-3.89.08-3.89.08-1.64,3.46-2.54,5.49-2.54,5.49a29.57,29.57,0,0,0,4.36,0c2.14-5.43,2-4.65,2.14-5.49"/></g><g id="g3962"><path id="path3964" class="cls-2" d="M572.35,270.46c-3.67.35-4.67.35-4.67.35-1.48,4.3-2.09,6.27-2.09,6.27,4.23-.74,4.95-1,4.95-1a54.4,54.4,0,0,0,1.81-5.66"/></g><g id="g3966"><path id="path3968" class="cls-2" d="M588.5,269.79c-2.5,3.29-2.55,3.29-2.55,3.29.23,12.54.23,12.9.23,12.9-.11.45.61,1.34-3.33,1.84-.85-15.32-.73-17.63-.73-17.63a24.87,24.87,0,0,0-2.52,3.43c.19,4.52.62,5.38.26,6.09s-1.56,2.21-2.81,2c-.91-.24-1,.48-1.93-2.26-.56-.37-1-.59-2.66.95a20.37,20.37,0,0,0-7.23,11.38,15.68,15.68,0,0,1,2.53.25c-.08,1.07-.23,1.8-.74,1.83s-5.06.26-5.42,0c-.59-21.69-.64-22-.64-22a51.92,51.92,0,0,0-2.77,4.7c.48,14.46.66,23.41.85,23.66,2.14.22,7.93.41,11.28-4.48,1.79-2.64,2.84-3.89,2.49-7.82.12-.32-.64-.49-2-.49-.19-1.19.06-3.27,1.79-2.43a9.9,9.9,0,0,1,1.67,2.21c1.25.25,3.09,1.06,5-4.82.28-.2.95-1.61,1.12,11.79.61.41,3.76-.79,5.51-3.05,2.38-3.12,3-4.93,3.11-7.15s-.49-12.94-.56-14.15"/></g><g id="g3970"><path id="path3972" class="cls-2" d="M605.39,271.76c-2.14,2.93-2.6,3.65-2.6,3.65.51,5,.81,5.6.51,5.83-.51.31-.65.81-1.67.43-2.31,5-3.32,6.21-2.62,6.44,2.92.8,5.84,1,4.71,2.45-1.07,2-14.25,8.9-12.76-4.7,0-.51,0-2.59-1.07,1.18-.49,2.69-1.56,8.53.82,11.6.94,1.24,4.12,2.74,8.3-.38s8-6.87,8.24-12.17c.11-2.57-3.1-2.43-3.23-2.43-.25-2,1.19-1.09,1.72-3.83.13-3.58.32-6.68-.35-8.07"/></g><g id="g3974"><path id="path3976" class="cls-2" d="M624.89,271.6c-2.67,4.46-2.72,4.57-2.72,4.57A32.65,32.65,0,0,1,619.3,273a48,48,0,0,1,2.87-4.33c2.72,2.92,2.31,2.32,2.72,2.92"/></g><g id="g3978"><path id="path3980" class="cls-2" d="M635,268.68c-1.68,2-2,2.27-2,2.27l.16,14.84c-.06.64-.68,2.44-3.34,2.22-1.32-.31-2.43-.45-2.43-1.33.15-1.06,2.81-2.8,2.67-5.44-.11-1.34.07-2.79-3.52-2.54-.89.06-1.72.16-2.56,2.09s-2.85,4.56-.73,5.41c0,.23.61.61-1.42.89-1.79.47-4.65,1.45-5,3.94-.18.91-.13,2.88-3.38,4.05s-5.91,2.81-8,2.95c-.37.05-.92.89.23,1,1.38.76,5,3,8,.29a5.18,5.18,0,0,0,1.81-3.69,13.2,13.2,0,0,1,2.85-2.53c1.55-.22,4.06-.35,5.78-2.79.33.44.61,4.11,6.46,2,3.56-1.26,8.24-3.41,7.71-10-.31-.37-.91-.3-2.83-.14-.46-.29-1.35-1,0-2.31,0-2.64-.19-9.68-.42-11.22"/></g><g id="g3982"><path id="path3984" class="cls-2" d="M644.47,274.57c-2.1,3-2.73,3.94-2.73,3.94.46,15.17.76,16.45.76,16.45a21.32,21.32,0,0,0,2.55-4.47c-.23-12.92-.09-14.65-.58-15.92"/></g><g id="g3986"><path id="path3988" class="cls-2" d="M656.21,274.87c-.51,1.8-1.58,4,1.33,4.34-.07.86-.71,3.65-7.41,4.61-.28.37-.84.83,2.7.78,1.84-.3,5.43-1.2,6.56-7.64-.83-.11-2.79.35-2.56-1.9a.52.52,0,0,0-.62-.19"/></g><g id="g3990"><path id="path3992" class="cls-2" d="M658.68,273.44c-.06-2-.06-2.81-.42-2.38a7.52,7.52,0,0,0-1.55,2.68c.29.47.22,1.37,2-.3"/></g><g id="g3994"><path id="path3996" class="cls-2" d="M676.81,272.37C674.5,276.59,674,277,674,277c1.62,2.12,2.48,3.21,2.48,3.21l2.35-4.49c-2.06-3.39-1.59-2.82-2-3.39"/></g><g id="g3998"><path id="path4000" class="cls-2" d="M688.55,270c-3,4.26-3,4.26-3,4.26.58,14.56.58,14.64.58,14.64-.24.64-1.08,2.44-4.94,2.25.41-2.05,1.13-3.39-.19-1.75s-.77,1.87-5.08,1.8c.48-1.8.9-3.39-.17-1.61s-.48,2-4.36,1.92c-.64-20.36-.77-20.63-.77-20.63-1.74,2.79-2.75,4.38-2.75,4.38.16,10,.12,12.61.12,12.61-.05.6-.35,1.06-2.63,3.05s-6.19,2.75-12.23,2.56c-.78-.3-2.6-.68-2.67-5.38-.25-.29-1.08,2.09-1,4.1s-.29,7.2,4.65,7.07,7.46-.5,9.68-2.94,4.26-4.64,4.63-5.89c.08,3.87.37,7.69.37,7.69.6.42,3.46.64,5.36-2.44.23,1.84.23,1.91.23,1.91,2.69,0,4-.13,5.5-2.87a10.57,10.57,0,0,0,.24,2.21c.41.24,7-.42,8.52-9.39.33-3.32.07-15.26-.06-17.55"/></g><g id="g4002"><path id="path4004" class="cls-2" d="M695.6,274.17c-2.2,3.14-2.43,3.34-2.43,3.34.75,15.68.93,16.09.93,16.09l2.15-4.36c-.54-14.3-.42-13.88-.59-15.07"/></g><g id="g4006"><path id="path4008" class="cls-2" d="M36.81,286.45c-.72,0-1.25,0-1.73,0,0,1.14,0,2.24,0,3.89,0,2.52.1,5.58.1,7,.71,0,1.3.06,2.21.06,2.34,0,4.37-1.95,4.37-5.43,0-3.71-1.73-5.57-4.91-5.57m.35-12a12.48,12.48,0,0,0-1.95.11c-.07,2-.17,4.22-.17,5.57s0,2.73,0,4.09h1.81c2.29,0,4.56-1.7,4.56-5.09,0-2.55-1.12-4.68-4.29-4.68m-8,8.79c0-4.46-.09-7.54-.31-11.06.87.07,1.93.19,3.26.19,2.28,0,4.92-.19,7.19-.19,4.8,0,8.07,1.86,8.07,6.19s-4,6.21-6.52,6.61v.09c2.45.09,7.2,1.86,7.2,6.67,0,5.73-4.55,8-9.32,8-2.11,0-3.86-.18-5.86-.18-1.43,0-3.15.1-4,.18.22-3.5.31-6.57.31-11Z"/></g><g id="g4010"><path id="path4012" class="cls-2" d="M57.76,281.59c-.86,6-1.21,12.1-1.61,18.13a12.56,12.56,0,0,0-1.88-.18,11.85,11.85,0,0,0-1.88.18c1.69-9.2,3-18.37,4.12-27.56a7,7,0,0,0,1.64.19,6.67,6.67,0,0,0,1.6-.19c2.9,6.35,6.3,13.46,9.22,19.09,3.16-5.95,6.43-12.74,9.3-19.09a7.88,7.88,0,0,0,1.72.19,7.55,7.55,0,0,0,1.69-.19c1,9.19,2.44,21.94,3.43,27.56-1.08-.1-2.16-.18-3.24-.18s-2.19.08-3.32.18c-.28-5.54-1-12.35-1.58-18.52h-.09q-4.5,9.26-8.83,18.52a3.91,3.91,0,0,0-.75-.08,3.77,3.77,0,0,0-.76.08c-2.83-6-5.72-12.09-8.72-18.13Z"/></g><g id="g4014"><path id="path4016" class="cls-2" d="M112.69,295.08a13,13,0,0,0-.89,3.41,17.32,17.32,0,0,1-8.15,1.75c-9.28,0-14.74-5.8-14.74-13.33,0-11,7.47-15.28,15.85-15.28a18,18,0,0,1,8.16,2,13.94,13.94,0,0,0-.91,4h-.57c-2-2.45-4-3.52-6.87-3.52-4.26,0-9.11,3.69-9.11,12.18,0,8.23,4.88,11.46,9.47,11.46a10.69,10.69,0,0,0,7.24-3Z"/></g><g id="g4018"><path id="path4020" class="cls-2" d="M118.35,283.22c0-4.46-.08-7.54-.32-11.06,2.35,0,4.75.19,7.1.19,3.94,0,7.28-.06,8.36-.19a9.49,9.49,0,0,0-.15,1.68,11,11,0,0,0,.15,1.79c-3-.22-7.84-.46-9-.46-.2,2.91-.2,5.78-.2,8.69,3.48-.06,6-.15,9.07-.32a9.46,9.46,0,0,0-.21,1.79,10.75,10.75,0,0,0,.21,1.65c-3-.25-6-.34-9.07-.34,0,1.67,0,3.4,0,5.08s0,3.4.12,5a76.57,76.57,0,0,0,9.14-.5,10.45,10.45,0,0,0-.15,1.8,8.61,8.61,0,0,0,.15,1.7c-1.44-.05-3.31-.18-7-.18-6.52,0-7.59.1-8.47.18.24-3.5.32-6.57.32-11Z"/></g><g id="g4022"><path id="path4024" class="cls-2" d="M159.47,286.45c-.73,0-1.26,0-1.72,0,0,1.14,0,2.24,0,3.89,0,2.52.07,5.58.07,7,.73,0,1.33.06,2.21.06,2.35,0,4.39-1.95,4.39-5.43,0-3.71-1.72-5.57-4.91-5.57m.35-12a12.74,12.74,0,0,0-2,.11c-.08,2-.15,4.22-.15,5.57s0,2.73,0,4.09h1.81c2.26,0,4.55-1.7,4.55-5.09,0-2.55-1.13-4.68-4.29-4.68m-8,8.79c0-4.46-.09-7.54-.32-11.06.89.07,2,.19,3.29.19,2.27,0,4.91-.19,7.19-.19,4.78,0,8.07,1.86,8.07,6.19S166,284.56,163.5,285v.09c2.44.09,7.2,1.86,7.2,6.67,0,5.73-4.57,8-9.32,8-2.11,0-3.87-.18-5.87-.18-1.43,0-3.15.1-4,.18.23-3.5.32-6.57.32-11Z"/></g><g id="g4026"><path id="path4028" class="cls-2" d="M188.44,289.16c-1.15-3.22-2.28-6.37-3.55-9.49-1.37,3.12-2.61,6.27-3.76,9.49ZM199,299.72c-1.27-.08-2.39-.18-3.5-.18s-2.28.1-3.4.18c-.84-2.69-1.76-5.46-2.76-8.18-1.71,0-3.4-.08-5.12-.08-1.39,0-2.75.05-4.16.08a84.18,84.18,0,0,0-2.71,8.18,14.61,14.61,0,0,0-1.87-.18,19.41,19.41,0,0,0-2,.18c2-4.42,7.94-18.67,11.4-27.76a11.37,11.37,0,0,0,1.51.2,11,11,0,0,0,1.51-.2c3.41,9.09,8.07,21.25,11.11,27.76"/></g><g id="g4030"><path id="path4032" class="cls-2" d="M204.29,272.16a8.67,8.67,0,0,0,3.61,0c5.74,6.35,11.46,12.67,17.33,19,0-6.35,0-17.21-.28-19a8.54,8.54,0,0,0,1.8.19,8.34,8.34,0,0,0,1.8-.19c-.64,11.64-.64,16.94-.64,27.56a9,9,0,0,0-1.63-.18,7,7,0,0,0-1.54.18q-8.24-9.69-17.49-19.39c-.08,3-.08,6.31-.08,9.29,0,6.41.13,8.62.25,10.1a12.44,12.44,0,0,0-1.89-.18,11.47,11.47,0,0,0-1.84.18c.22-1.14.81-11.47.81-19.61,0-3.6-.17-6-.21-7.95"/></g><g id="g4034"><path id="path4036" class="cls-2" d="M241.78,287.18c0,5.76,0,10,.31,12.54-.88-.08-2-.18-3.27-.18s-2.39.1-3.27.18c.23-3.5.32-6.57.32-11v-5.46c0-4.46-.09-7.54-.32-11.06.88.07,1.95.19,3.27.19s2.39-.12,3.27-.19c-.31,2.11-.31,7.6-.31,12.76,3.59-4.26,8.79-10.71,10.19-12.76.76.07,1.46.19,2.22.19s1.49-.12,2.4-.19c-1.79,1.81-8.22,8.89-10.29,11.5,3.42,5.2,8.74,13.25,10.9,16.06-1.57-.08-2.72-.18-3.88-.18s-2.32.1-3.46.18c-2.64-4.18-5.36-8.37-8-12.54Z"/></g><path id="path4038" class="cls-2" d="M289.39,318.46H12.69v-2.82h276.7Z"/></g><g id="g4050"><g id="g4052"><g id="g4054"><g id="g4056"><path id="path4058" class="cls-3" d="M313.28,288.78a25,25,0,0,0-4.06,7.94h0a33.19,33.19,0,0,0-.36,14.61h0a33.19,33.19,0,0,0,5.69,11.88h0a69.86,69.86,0,0,0,27.73,21.73h0l.18.05c.85.38,1.72.72,2.61,1.06h0l.43.17c.81.3,1.64.61,2.45.86h0l.73.24h0c.74.25,1.51.48,2.28.69h0l.78.21h0l1.51.39h0c1.86.44,3.73.83,5.65,1.13h0l.32.06a79.91,79.91,0,0,0,8.27.78h0c.82,0,1.63.05,2.45.05h0l1.68,0h.17c.42,0,.83,0,1.26-.06h0c.33,0,.7,0,1.05-.05h0l.66,0,1.93-.16h0c-11.55-.82-27.28-5.48-33.12-20.53h0c-10-25.6,38.37-62.79,95.7-44h0c-17-10.17-43.4-16.39-68.24-16.39h0c-24,0-46.49,5.79-57.75,19.39"/></g></g></g></g></svg>