<svg id="Calque_1" data-name="Calque 1" xmlns="http://www.w3.org/2000/svg" viewBox="0 0 725 403"><defs><style>.cls-1{fill:#ed7d23;}.cls-1,.cls-2{fill-rule:evenodd;}.cls-2,.cls-3{fill:#0073b1;}</style></defs><path class="cls-1" d="M420.18,29.67c42.64,13.79,74,32.61,92.8,53.93,12.55,13.79,21.33,26.33,26.35,40.13,7.52,16.3,11.28,36.37,11.28,58.94,0,15.05-3.76,30.1-10,45.15A125.22,125.22,0,0,1,513,270.46c-25.07,25.08-60.19,43.89-106.59,57.69C355,341.94,292.26,349.47,218.28,348.21c-50.17-1.26-111.62-6.27-183.1-17.56-3.77,0-5,1.26-5,2.51s1.24,2.51,3.75,3.76C86.59,350.72,148,362,217,368.28c64,5,121.65,3.76,173.07-2.51C439,359.5,481.63,347,516.75,330.65S578.2,293,597,269.2q26.36-37.62,26.34-82.77c0-61.45-30.1-105.34-91.55-134.19a246.18,246.18,0,0,0-69-21.32l-40.13-5-3.76,1.25,1.25,2.51"/><path class="cls-1" d="M661,207.75c1.26-2.51,1.26-2.51,2.51,0,5,10,8.78,20.07,12.54,28.84l-1.25,5c-6.28,12.55-15,25.08-25.09,37.63-1.25,2.5-2.5,3.76-3.75,2.5l-16.31-23.83c-1.26-1.25,0-3.75,1.25-6.27,11.29-13.79,21.32-27.58,30.1-43.89"/><path class="cls-1" d="M661,165.11c1.26,2.51,1.26,2.51,2.51,1.26A140.72,140.72,0,0,0,676,136.26l-1.25-5c-6.28-12.54-15-25.08-25.09-37.62l-3.75-1.26L629.62,115l1.25,6.27L661,165.11"/><path class="cls-1" d="M686.06,152.57c3.75,11.29,7.52,21.32,8.77,31.35v5c-1.25,8.78-5,20.07-10,31.35-1.25,1.25-1.25,2.51-1.25,1.25-1.26-10-5-20.06-10-31.35v-6.27c5-11.29,8.78-21.32,11.29-32.6,0-1.26,0-1.26,1.26,1.25"/><path class="cls-2" d="M575.69,182.67l37.63-46.41c1.26-2.5,3.76-2.5,6.27,0,11.28,15.06,22.57,30.11,31.35,46.41a8,8,0,0,1,0,7.52c-8.78,15.05-20.07,30.1-32.61,45.15-1.25,3.77-3.75,3.77-5,1.25l-17.56-20.06-20.07-25.08c-2.5-2.51-2.5-5,0-8.78"/><path class="cls-2" d="M283.49,135c3.76-3.76,8.77-5,16.3-5v11.28q-1.87,7.53-11.28,7.53-7.53,0-7.52-7.53l2.5-6.27m16.3-17.55c-13.79,0-22.57,3.76-28.84,10-3.76,3.76-5,8.77-6.27,15,0,6.27,1.25,10,5,13.79a20.7,20.7,0,0,0,15,6.27c6.28,0,12.54-2.5,16.31-7.52l1.26,6.27h15V160.1l-1.26-15V122.47c0-18.81-8.77-28.84-25.07-28.84-8.79,0-15.06,2.5-21.32,6.27h0l3.75,12.54c3.77-3.76,8.78-5,15.06-5,3.75,0,7.52,1.26,8.77,2.51s2.51,3.76,2.51,7.53Z"/><path class="cls-2" d="M363.75,94.88H360q-9.4,0-15.05,11.29l-1.25-10h-13.8v65.22h16.3V122.47c1.26-7.52,6.28-11.29,12.54-11.29h5V94.88"/><path class="cls-2" d="M398.86,107.42c3.77,0,7.53,2.51,10,7.53a38.76,38.76,0,0,1,2.51,13.79q0,9.4-3.77,15c-2.5,3.76-5,5-8.78,6.27-3.75-1.25-7.52-2.51-10-6.27s-3.76-8.78-3.76-15a38.78,38.78,0,0,1,2.5-13.79q3.78-7.53,11.29-7.53m-22.57-3.76c-6.27,6.27-8.78,15-8.78,25.08s2.51,18.81,8.78,25.08,12.54,8.78,21.32,8.78a31.62,31.62,0,0,0,21.32-7.52c6.27-6.27,10-15.05,10-26.34s-2.5-18.81-8.78-25.08c-5-6.27-12.54-8.78-21.32-8.78S382.56,97.39,376.29,103.66Z"/><path class="cls-2" d="M445.27,103.66c-6.28,6.27-10,15-10,26.34,0,10,2.51,17.55,8.77,23.82s13.8,8.78,22.58,8.78c6.26,1.26,12.54,0,16.3-2.5l-2.51-13.8c-3.76,1.25-7.53,2.51-11.28,2.51-5,0-8.79-1.26-12.54-5q-3.76-5.64-3.77-15c0-6.27,1.26-11.28,5-15.05,2.5-3.76,6.27-5,11.29-5,3.75,0,7.52,1.25,11.28,2.5l2.51-13.79a38.54,38.54,0,0,0-13.79-2.51c-10,0-17.56,2.51-23.83,8.78"/><polyline class="cls-2" points="168.11 69.8 168.11 161.35 184.42 161.35 183.16 89.86 203.23 161.35 219.53 161.35 239.6 89.86 239.6 161.35 254.64 161.35 254.64 69.8 229.56 69.8 212 135.01 193.19 69.8 168.11 69.8"/><rect class="cls-3" x="184.42" y="191.45" width="16.3" height="87.79"/><path class="cls-2" d="M306.06,212.77c-10,0-17.55,2.5-23.83,8.77a35,35,0,0,0-10,25.09c0,11.28,2.51,18.81,8.79,25.08s13.78,8.78,22.56,8.78A55.49,55.49,0,0,0,319.86,278l-2.51-13.8c-3.77,1.26-7.52,2.51-11.29,2.51-5,0-8.78-2.51-12.54-6.27-2.5-3.76-3.76-7.53-3.76-13.79s1.26-11.29,5-15c2.51-3.76,6.28-5,11.29-5,3.77,0,7.52,1.26,11.29,2.51l2.51-13.8a39.07,39.07,0,0,0-13.8-2.5"/><path class="cls-2" d="M377.54,221.54c-5-6.27-12.53-8.77-21.32-8.77s-16.3,2.5-22.56,8.77-8.79,15.05-8.79,25.09,2.51,18.81,8.79,25.08,12.53,10,21.31,10,15-2.5,21.32-8.78,10-15,10-26.33c0-10-2.5-18.81-8.78-25.09M365,261.67c-2.51,3.77-6.28,6.28-10,6.28s-6.27-2.51-8.78-6.28q-5.64-5.64-3.76-15l2.51-13.8a13.17,13.17,0,0,1,11.28-6.27c3.77,0,7.53,2.51,10,6.27a38.82,38.82,0,0,1,2.51,13.8Q368.77,256,365,261.67Z"/><path class="cls-2" d="M464.08,212.77a21.25,21.25,0,0,0-12.54,3.76l-6.27,7.53c-3.77-8.79-8.78-12.55-17.55-12.55a20,20,0,0,0-17.57,10V214H396.36v65.21h16.3v-43.9c1.26-6.27,5-8.78,10-8.78,6.27,0,10,5,8.78,15.05v37.63h16.31V240.36l1.24-5c1.26-6.27,5-8.78,8.79-8.78,6.27,0,10,5,10,16.31v36.37h16.3V240.36c0-8.78-2.51-16.3-6.26-21.32-3.77-3.77-8.78-6.27-13.8-6.27"/><polyline class="cls-2" points="64.02 188.94 64.02 203.99 87.85 203.99 87.85 279.24 104.15 279.24 104.15 203.99 127.98 203.99 127.98 188.94 64.02 188.94"/><path class="cls-2" d="M250.88,239.11H227.06c1.25-8.79,5-13.8,12.54-13.8,3.76,0,6.27,1.25,7.52,2.51a57.41,57.41,0,0,1,3.76,11.29m10-16.31c-5-7.53-11.28-11.29-20.06-11.29q-15.06,0-22.57,11.29c-5,6.27-7.53,15-7.53,23.83,0,11.28,2.51,18.81,8.78,25.08,5,6.27,12.54,8.78,22.57,8.78a52,52,0,0,0,20.07-3.76h0l-2.51-12.55c-5,1.26-10,2.51-16.3,2.51q-7.53,0-11.29-3.76c-3.76-3.76-5-7.52-5-11.29h38.87v-7.52C265.93,235.34,264.68,229.07,260.91,222.8Z"/><path class="cls-2" d="M158.08,239.11H134.25c1.25-8.79,6.27-13.8,12.54-13.8,3.76,0,6.27,1.25,7.53,2.51q3.75,3.75,3.76,11.29m-10-27.6q-13.15,0-22.57,11.29a31.48,31.48,0,0,0-6.27,23.83c-1.25,11.28,1.26,18.81,7.52,25.08s13.8,8.78,22.58,8.78a51.91,51.91,0,0,0,20.06-3.76h1.26l-3.77-12.55a46.49,46.49,0,0,1-15,2.51,21.16,21.16,0,0,1-12.54-3.76,44.22,44.22,0,0,1-5-11.29h38.88l1.25-7.52c0-8.78-2.51-15.05-6.27-21.32C164.35,215.27,156.82,211.51,148,211.51Z"/></svg>