<svg id="Calque_1" data-name="Calque 1" xmlns="http://www.w3.org/2000/svg" viewBox="0 0 725 595.28"><defs><style>.cls-1,.cls-2{fill:#a73439;}.cls-2{fill-rule:evenodd;}</style></defs><path class="cls-1" d="M367.86,104.84C258,104.84,169,150.54,169,206.92S258,309,367.86,309,566.72,263.3,566.72,206.92,477.69,104.84,367.86,104.84Zm.83,180.81c-100.44,0-181.85-35-181.85-78.22s81.41-78.23,181.85-78.23,181.86,35,181.86,78.23S469.13,285.65,368.69,285.65Z"/><path class="cls-1" d="M433.61,166.37a2.65,2.65,0,0,0,.23-.94,2.06,2.06,0,0,0-2-2.06v0l-2.76,0a.41.41,0,0,1-.42-.41v-4.85a.42.42,0,0,1,.42-.42h12.74l24.52,0c1.12,0,2.18.24,2.55,1.38l32.33,94.36a2.33,2.33,0,0,1,.07.53,1.79,1.79,0,0,1-1.79,1.81h0l-23.33,0a3.09,3.09,0,0,1-2.69-2.08l-20-60.89c-.14-.52-.46-1-1-1s-.89.4-1,1l-20,60.89a3.1,3.1,0,0,1-2.7,2.08l-23.25,0a1.82,1.82,0,0,1-1.82-1.82,1.79,1.79,0,0,1,.07-.51Z"/><path class="cls-1" d="M356,166.28v-.9h0a2.06,2.06,0,0,0-2.09-2h-3.09a.41.41,0,0,1-.41-.42v-4.86a.42.42,0,0,1,.41-.41h30.87a2.06,2.06,0,0,1,2,2.07v94a2.05,2.05,0,0,1-2,2.05H358a2.05,2.05,0,0,1-2-2.05V166.28Z"/><path class="cls-1" d="M335.92,255.75H308.69a5.11,5.11,0,0,1-3.54-2.07L278,216.31c-.46-.43-.49-.57-.8-.83a1.44,1.44,0,0,0-.77-.22,1.12,1.12,0,0,0-1.12,1.25V217l0,36.74a2.05,2.05,0,0,1-2,2.05H250.31a2,2,0,0,1-2-2.05l0-88.32h0a2,2,0,0,0-2-2.06h0l-3.21,0a.43.43,0,0,1-.41-.42v-4.85a.42.42,0,0,1,.41-.42h30.14a2.06,2.06,0,0,1,2,2.07v31.19a1.12,1.12,0,0,0,1.12,1.25,1.53,1.53,0,0,0,.78-.22c.3-.26.32-.4.79-.84l3.76-5.18,18.78-26.18a5.1,5.1,0,0,1,3.54-2.07h26.08a1.77,1.77,0,0,1,1.75,1.81,1.88,1.88,0,0,1-.27,1l-28.84,41.93a1.94,1.94,0,0,0-.48,1.27,1.74,1.74,0,0,0,.44,1.2l34.52,47.82a1.65,1.65,0,0,1,.43,1.2A1.78,1.78,0,0,1,335.92,255.75Z"/><path class="cls-2" d="M172,365.83h-8.34L137,440.2h16.68l5.17-14.43H185l5.19,14.43h20.29l-26.62-74.37Zm0,49.11h-9.25L172,389.27l9.24,25.67Z"/><polygon class="cls-2" points="308.32 365.83 292.99 408.88 277.66 365.83 256.26 365.83 246.11 440.2 262.78 440.2 268.87 393.76 284.66 440.2 298.85 440.2 315.08 393.55 321.17 440.2 339.87 440.2 329.5 365.83 308.32 365.83"/><rect class="cls-1" x="110.2" y="365.83" width="20.29" height="74.37"/><path class="cls-2" d="M94,428.48l-21-30,25.47-32.68h-21l-23,28.84V365.83H34.26V440.2H54.54V405.72l19.83,28.17s5,6.31,10.14,6.31h21.42S103.66,440.43,94,428.48Z"/><path class="cls-2" d="M629,429.6l-16.91-25.46c16-5.19,15.11-20.06,15.11-20.06,0-17.57-20.51-18.25-20.51-18.25H568V440.2h20.5V376.63h7.22s11.72.69,11.72,10.38c0,0,1.57,15.55-17.57,15.55l21.41,32.23a14,14,0,0,0,11.49,5.41h17.34a2.92,2.92,0,0,1-1.57-.67C636.7,438.4,633.76,435.69,629,429.6Z"/><path class="cls-2" d="M693.72,417.65c-.9-14.41-16.45-19.37-16.45-19.37-21.4-7.44-19.61-15.55-19.61-15.55,0-8.57,13.52-9,13.52-9,9.7,0,15.32,4.95,15.32,4.95V367.4s-8.11-4.74-21.63-3.83c0,0-20.74,1.35-26.37,15.32a17.64,17.64,0,0,0-1.57,7.89,16.54,16.54,0,0,0,1.57,8.12c1.79,4.27,6.09,9.46,15.11,13.53,0,0,20.95,6.51,20.5,15.09-.44,11.5-15.32,9-15.32,9C650,431.19,641,427.13,638.5,426a2.74,2.74,0,0,1-.9-.46l.9,2.93,2.25,8.56c9.25,5.64,21.87,6.09,21.87,6.09C696,444.71,693.72,417.65,693.72,417.65Z"/><path class="cls-2" d="M520.86,362.44a42.18,42.18,0,0,0-39.45,26.15,40,40,0,0,0,0,28.84c6.09,15.34,21.41,26.15,39.45,26.15,23.2,0,42.13-18,42.13-40.58S544.06,362.44,520.86,362.44Zm0,69.42C508.68,431.86,499,419,499,403s9.69-28.84,21.87-28.84S542.72,387,542.72,403,533,431.86,520.86,431.86Z"/><polygon class="cls-2" points="484.12 376.63 484.12 365.83 481.41 365.83 423.25 365.83 421.23 365.83 421.23 376.63 423.25 376.63 442.42 376.63 442.42 440.2 462.71 440.2 462.71 376.63 481.41 376.63 484.12 376.63"/><path class="cls-2" d="M382.92,362.44c-23.43,0-42.37,18-42.37,40.56s18.94,40.58,42.37,40.58c18.93,0,34.94-11.94,40.33-28.64A40.37,40.37,0,0,0,425.07,403a41.83,41.83,0,0,0-1.82-11.94C417.86,374.38,401.85,362.44,382.92,362.44Zm0,69.42c-12.17,0-22.08-12.85-22.08-28.86s9.91-28.84,22.08-28.84c11.95,0,21.87,12.85,21.87,28.84S394.87,431.86,382.92,431.86Z"/></svg>